<svg width="42" height="14" viewBox="0 0 42 14" fill="none" xmlns="http://www.w3.org/2000/svg">
<path d="M40.5885 5L12.5885 5C12.0362 5 11.5885 5.44772 11.5885 6C11.5885 6.55228 12.0362 7 12.5885 7L40.5885 7C41.1408 7 41.5885 6.55228 41.5885 6C41.5885 5.44772 41.1408 5 40.5885 5Z" fill="#F93E7B"/>
<path d="M10.3339 0.0100371C12.1526 0.149255 13.5898 1.87759 13.5895 3.98839C13.5878 8.94125 7.5448 12.9945 7.3911 13.097C7.389 13.0981 7.3881 13.0987 7.3881 13.0987C7.3881 13.0987 -0.000699997 9.00302 0 3.98582C0.000300407 1.78417 1.8645 -0.000340951 4.1636 4.88629e-08C5.4649 0.000193049 6.6266 0.572128 7.3898 1.46776C8.0977 0.637558 9.1477 0.0858991 10.3339 0.0100371Z" fill="#F93E7B"/>
</svg>
