<svg width="25" height="25" viewBox="0 0 25 25" fill="none" xmlns="http://www.w3.org/2000/svg">
<path d="M12.5 0C5.59658 0 0 5.59658 0 12.5C0 19.4034 5.59658 25 12.5 25C19.4034 25 25 19.4034 25 12.5C25 5.59658 19.4034 0 12.5 0ZM12.5 22.9167C6.74717 22.9167 2.08335 18.2528 2.08335 12.5C2.08335 6.74717 6.74717 2.08335 12.5 2.08335C18.2528 2.08335 22.9167 6.74717 22.9167 12.5C22.9167 18.2528 18.2528 22.9167 12.5 22.9167Z" fill="#34B7EA"/>
<path d="M11.1532 6.55503C10.7464 6.14824 10.0868 6.14824 9.68006 6.55503C9.27327 6.96182 9.27327 7.62139 9.68006 8.02817L14.1518 12.5L9.68006 16.9717C9.27327 17.3785 9.27327 18.0381 9.68006 18.4449C10.0868 18.8517 10.7464 18.8517 11.1532 18.4449L16.3616 13.2365C16.7683 12.8297 16.7683 12.1702 16.3616 11.7634L11.1532 6.55503Z" fill="#34B7EA"/>
</svg>
