<svg width="43" height="14" viewBox="0 0 43 14" fill="none" xmlns="http://www.w3.org/2000/svg">
<path d="M1.58853 5L29.5885 5C30.1408 5 30.5885 5.44772 30.5885 6C30.5885 6.55228 30.1408 7 29.5885 7L1.58853 7C1.03625 7 0.588531 6.55228 0.588531 6C0.588531 5.44772 1.03625 5 1.58853 5Z" fill="#F93E7B"/>
<path d="M31.8432 0.0100371C30.0245 0.149255 28.5873 1.87759 28.5876 3.98839C28.5893 8.94125 34.6323 12.9945 34.786 13.097C34.7881 13.0981 34.789 13.0987 34.789 13.0987C34.789 13.0987 42.1778 9.00302 42.1771 3.98582C42.1768 1.78417 40.3126 -0.000340951 38.0135 4.88629e-08C36.7122 0.000193049 35.5505 0.572128 34.7873 1.46776C34.0794 0.637558 33.0294 0.0858991 31.8432 0.0100371Z" fill="#F93E7B"/>
</svg>
