<svg width="331" height="344" viewBox="0 0 331 344" fill="none" xmlns="http://www.w3.org/2000/svg">
<path d="M119.319 60.431C125.126 60.431 130.766 62.0119 135.626 65.0068C140.932 68.2752 145.161 73.0411 148.201 79.1792C164.077 111.238 183.499 125.535 211.171 125.535C216.76 125.535 222.776 124.919 229.052 123.699C232.714 122.99 236.437 122.239 240.039 121.516C258.31 117.849 275.57 114.381 290.336 114.381C299.462 114.381 306.68 115.725 312.399 118.488C318.824 121.595 323.29 126.439 326.061 133.305C328.99 140.565 330.466 149.082 330.318 157.932C330.174 166.764 328.414 176.054 325.235 184.793C318.234 204.024 304.907 219.93 287.699 229.568C281.363 233.119 274.947 234.844 268.077 234.844C258.863 234.844 250.01 231.798 240.634 228.576C230.477 225.085 219.972 221.474 208.13 221.474C196.836 221.474 185.867 224.821 174.591 231.705C132.363 257.496 99.0795 293.18 74.7738 319.239C70.6146 323.694 66.6921 327.904 63.062 331.696C55.8808 339.197 46.1604 343.323 35.6787 343.323C24.0504 343.323 13.6476 338.14 9.18194 330.115C7.41797 326.939 6.64275 323.462 6.8795 319.781C7.13945 315.757 8.61097 311.566 11.2569 307.32C21.1027 291.506 25.2387 283.555 26.5153 277.992C27.8708 272.072 25.9582 268.771 23.0616 263.768L22.7552 263.235C22.4906 262.192 19.8865 251.701 19.5847 238.678C19.3991 230.667 20.1139 223.286 21.7061 216.745C23.6836 208.599 27.0398 201.733 31.6679 196.342C36.2775 190.973 42.8552 186.277 51.7772 181.974C59.6687 178.173 68.2518 175.192 76.5564 172.308C84.5964 169.517 92.1907 166.879 98.3321 163.764C105.309 160.227 109.454 156.546 111.372 152.188C113.122 148.215 112.964 144.863 110.884 141.636C109.046 138.79 105.959 136.388 102.385 133.607C97.9051 130.12 92.8313 126.17 89.1177 120.366C84.8331 113.667 83.1666 105.702 84.0254 96.0127C84.9817 85.2664 89.2059 76.138 96.2479 69.6104C99.4509 66.6433 103.104 64.3346 107.12 62.7537C111.065 61.2191 115.164 60.431 119.319 60.431ZM119.314 59.7634C102.482 59.7634 85.4459 72.6795 83.3755 95.9664C79.8801 135.257 118.998 133.226 110.773 151.933C102.547 170.639 51.7819 171.928 31.1712 195.915C10.5606 219.902 22.1379 263.5 22.1379 263.5C28.1911 273.977 30.0525 275.892 10.6999 306.972C-2.43706 328.071 15.2537 343.995 35.6879 343.995C45.3573 343.995 55.6347 340.43 63.5541 332.159C88.2032 306.411 125.516 262.466 174.949 232.276C187.269 224.751 198.154 222.141 208.139 222.146C230.737 222.146 248.692 235.516 268.087 235.516C274.502 235.516 281.084 234.051 288.033 230.152C325.286 209.276 338.789 163.045 326.683 133.055C320.764 118.396 307.4 113.713 290.336 113.713C272.483 113.713 250.577 118.841 228.922 123.041C222.558 124.274 216.658 124.863 211.171 124.863C180.125 124.863 162.253 106.045 148.8 78.8779C142.353 65.8598 130.882 59.7634 119.314 59.7634Z" fill="#B8CFE0"/>
<path d="M305.952 247.306C305.952 247.306 301.969 244.821 294.379 248.177C286.789 251.534 282.932 259.61 293.757 261.849C304.582 264.084 318.392 249.916 305.952 247.306Z" fill="#DBEBFA"/>
<path d="M205.34 233.68C205.34 233.68 198.373 232.934 197.375 236.29C196.381 239.647 201.232 243.625 209.072 241.882C216.913 240.143 212.554 234.056 205.34 233.68Z" fill="#DBEBFA"/>
<path d="M32.3225 124.473C32.3225 124.473 27.4715 121.446 24.6074 123.05C21.7433 124.654 13.7822 132.392 18.2617 135.605C22.7413 138.817 29.709 136.625 34.1886 133.059C38.6681 129.499 34.1978 125.428 32.3225 124.473Z" fill="#DBEBFA"/>
<path d="M132.739 27.7329C132.739 27.7329 122.341 30.8437 129.406 37.5428C136.471 44.2465 143.142 24.6221 132.739 27.7329Z" fill="#DBEBFA"/>
<path d="M303.923 98.5208C303.923 98.5208 315.867 91.3813 321.094 99.8282C326.321 108.28 298.696 103.671 303.923 98.5208Z" fill="#DBEBFA"/>
<path d="M83.9604 330.324C83.9604 330.324 89.2941 313.671 99.3209 317.894C109.348 322.118 80.7249 341.506 83.9604 330.324Z" fill="#DBEBFA"/>
<path d="M81.1102 49.3601H125.924C126.356 49.3601 126.769 49.4389 127.155 49.5826C128.468 50.0787 129.406 51.349 129.406 52.8371V77.9275C129.406 79.8468 127.846 81.4045 125.924 81.4045H121.222L122.754 88.3447C122.865 88.8454 122.522 89.2626 122.099 89.3461C121.89 89.3878 121.663 89.3554 121.459 89.2116L111.502 82.2993L110.211 81.4045H81.1056C79.1838 81.4045 77.6241 79.8468 77.6241 77.9275V52.8371C77.6287 50.9178 79.1884 49.3601 81.1102 49.3601Z" fill="#CEDDEA"/>
<path d="M232.589 280.977H187.77C187.338 280.977 186.925 281.056 186.54 281.2C185.226 281.696 184.289 282.966 184.289 284.454V309.545C184.289 311.464 185.848 313.022 187.77 313.022H192.473L190.941 319.962C190.829 320.463 191.173 320.88 191.595 320.963C191.804 321.005 192.032 320.973 192.236 320.829L202.193 313.917L203.483 313.022H232.589C234.511 313.022 236.07 311.464 236.07 309.545V284.454C236.066 282.535 234.511 280.977 232.589 280.977Z" fill="#CEDDEA"/>
<path d="M163.85 216.569V295.975C163.85 302.048 158.92 306.972 152.839 306.972H60.7363L56.656 309.804L25.1505 331.677C24.5006 332.127 23.7811 332.243 23.1266 332.104C21.7804 331.83 20.7035 330.514 21.0516 328.933L25.8979 306.967H11.0109C4.92984 306.972 0 302.048 0 295.975V216.569C0 211.863 2.96162 207.844 7.12552 206.277C8.33709 205.818 9.64614 205.572 11.0109 205.572H152.834C158.92 205.572 163.85 210.496 163.85 216.569Z" fill="url(#paint0_linear_103_148)"/>
<path d="M54.0498 258.628C55.3815 253.378 52.1999 248.044 46.9436 246.714C41.6872 245.384 36.3466 248.562 35.0149 253.811C33.6831 259.061 36.8647 264.395 42.121 265.725C47.3774 267.055 52.7181 263.877 54.0498 258.628Z" fill="#DBEBFA"/>
<path d="M88.2445 263.725C92.3936 260.238 92.9273 254.053 89.4364 249.909C85.9455 245.765 79.7521 245.232 75.603 248.719C71.4539 252.205 70.9202 258.391 74.4111 262.534C77.9019 266.678 84.0954 267.211 88.2445 263.725Z" fill="#DBEBFA"/>
<path d="M128.994 257.88C129.918 252.543 126.335 247.47 120.992 246.548C115.648 245.625 110.568 249.204 109.645 254.54C108.722 259.876 112.304 264.95 117.648 265.872C122.991 266.794 128.071 263.216 128.994 257.88Z" fill="#DBEBFA"/>
<g opacity="0.53">
<path d="M163.85 272.368V295.98C163.85 302.053 158.92 306.976 152.839 306.976H60.7363L56.656 309.809C54.0843 309.406 51.9629 309.179 50.3939 309.211C39.3505 309.457 28.9523 322.92 23.122 332.108C21.7758 331.835 20.6988 330.518 21.047 328.937L25.8932 306.972H11.0109C4.92984 306.972 0 302.048 0 295.975V216.569C0 211.863 2.96162 207.844 7.12552 206.277C7.03268 223.078 8.36494 253.597 18.2942 270.505C32.4803 294.668 60.0772 252.545 81.9272 277.894C103.777 303.244 136.624 288.307 147.821 279.559C152.259 276.096 158.748 272.772 163.85 272.368Z" fill="#3554AA"/>
</g>
<g opacity="0.26">
<path d="M163.85 216.569V258.989C163.85 258.989 142.594 230.551 119.323 238.381C96.0529 246.207 81.7508 243.226 97.0324 228.317C112.314 213.402 55.2495 225.706 36.9599 221.483C27.4344 219.285 26.0093 212.025 26.8263 205.577H152.839C158.92 205.572 163.85 210.496 163.85 216.569Z" fill="#DBEBFA"/>
</g>
<g opacity="0.85">
<path d="M163.85 288.622V295.975C163.85 302.048 158.92 306.972 152.839 306.972H11.0109C4.92984 306.972 0 302.048 0 295.975V254.983C2.05178 271.334 5.21764 286.351 10.0778 292.062C22.7692 306.972 47.3348 286.096 68.275 296.531C89.2152 306.972 138.486 302.498 148.564 299.142C158.646 295.79 163.85 288.622 163.85 288.622Z" fill="#3554AA"/>
</g>
<path d="M117.973 29.1886V60.5561C117.973 62.9576 116.023 64.9001 113.623 64.9001H77.2434L75.6326 66.0174L63.1873 74.659C62.932 74.8352 62.6442 74.8816 62.3889 74.8259C61.8551 74.7193 61.4326 74.1954 61.5673 73.5742L63.4844 64.9001H57.6076C55.203 64.9001 53.258 62.953 53.258 60.5561V29.1886C53.258 27.3295 54.4278 25.744 56.0711 25.1228C56.5492 24.942 57.0645 24.8446 57.6076 24.8446H113.632C116.028 24.8446 117.973 26.7917 117.973 29.1886Z" fill="#8FB1C9"/>
<path d="M74.6257 45.6784C75.0829 43.5899 73.7583 41.5266 71.6671 41.0699C69.5758 40.6132 67.5098 41.9361 67.0526 44.0247C66.5953 46.1133 67.9199 48.1766 70.0112 48.6333C72.1025 49.0899 74.1684 47.767 74.6257 45.6784Z" fill="#CEDDEA"/>
<path d="M89.3891 45.7425C89.8828 43.6621 88.5943 41.5759 86.5111 41.0829C84.428 40.5898 82.3391 41.8767 81.8455 43.9572C81.3518 46.0376 82.6404 48.1238 84.7235 48.6168C86.8066 49.1098 88.8955 47.8229 89.3891 45.7425Z" fill="#CEDDEA"/>
<path d="M104.162 45.7435C104.655 43.663 103.367 41.5768 101.284 41.0838C99.2006 40.5908 97.1117 41.8777 96.618 43.9581C96.1244 46.0386 97.4129 48.1248 99.496 48.6178C101.579 49.1108 103.668 47.8239 104.162 45.7435Z" fill="#CEDDEA"/>
<path d="M194.357 252.382V293.648C194.357 296.805 196.92 299.364 200.081 299.364H247.945L250.066 300.838L266.439 312.206C266.777 312.438 267.154 312.498 267.492 312.428C268.193 312.285 268.75 311.603 268.569 310.778L266.049 299.364H273.782C276.944 299.364 279.506 296.805 279.506 293.648V252.382C279.506 249.934 277.965 247.848 275.802 247.032C275.175 246.796 274.493 246.666 273.782 246.666H200.076C196.915 246.666 194.357 249.225 194.357 252.382Z" fill="#8FB1C9"/>
<path d="M251.264 272.99C251.264 275.804 253.548 278.085 256.365 278.085C259.183 278.085 261.467 275.804 261.467 272.99C261.467 270.175 259.183 267.895 256.365 267.895C253.548 267.895 251.264 270.175 251.264 272.99Z" fill="#CEDDEA"/>
<path d="M236.929 278.085C239.747 278.085 242.031 275.803 242.031 272.99C242.031 270.176 239.747 267.895 236.929 267.895C234.112 267.895 231.828 270.176 231.828 272.99C231.828 275.803 234.112 278.085 236.929 278.085Z" fill="#CEDDEA"/>
<path d="M217.493 278.085C220.311 278.085 222.595 275.803 222.595 272.99C222.595 270.176 220.311 267.895 217.493 267.895C214.676 267.895 212.391 270.176 212.391 272.99C212.391 275.803 214.676 278.085 217.493 278.085Z" fill="#CEDDEA"/>
<path d="M136.582 106.472V185.878C136.582 191.951 141.512 196.875 147.593 196.875H239.696L243.776 199.707L275.282 221.58C275.932 222.03 276.651 222.146 277.306 222.007C278.652 221.733 279.729 220.417 279.381 218.836L274.534 196.87H289.417C295.498 196.87 300.428 191.947 300.428 185.873V106.472C300.428 101.766 297.466 97.7466 293.302 96.1797C292.091 95.7207 290.781 95.475 289.417 95.475H147.598C141.512 95.475 136.582 100.398 136.582 106.472Z" fill="url(#paint1_linear_103_148)"/>
<path d="M258.156 155.647C263.433 154.403 266.701 149.122 265.455 143.851C264.209 138.581 258.921 135.318 253.644 136.562C248.367 137.807 245.099 143.088 246.345 148.358C247.591 153.628 252.879 156.892 258.156 155.647Z" fill="#FED8E0"/>
<path d="M225.449 153.057C229.283 149.228 229.283 143.02 225.449 139.191C221.615 135.361 215.399 135.361 211.565 139.191C207.73 143.02 207.73 149.228 211.565 153.057C215.399 156.886 221.615 156.886 225.449 153.057Z" fill="#FED8E0"/>
<path d="M188.053 153.056C191.887 149.227 191.887 143.018 188.053 139.189C184.219 135.36 178.002 135.36 174.168 139.189C170.334 143.018 170.334 149.227 174.168 153.056C178.002 156.885 184.219 156.885 188.053 153.056Z" fill="#FED8E0"/>
<g opacity="0.31">
<path d="M136.582 162.267V185.878C136.582 191.951 141.512 196.875 147.593 196.875H239.696L243.776 199.707C246.348 199.304 248.469 199.077 250.038 199.109C261.082 199.355 271.48 212.818 277.31 222.007C278.656 221.733 279.733 220.417 279.385 218.836L274.539 196.87H289.421C295.502 196.87 300.432 191.947 300.432 185.873V106.472C300.432 101.766 297.471 97.7467 293.307 96.1797C293.4 112.981 292.067 143.5 282.138 160.408C267.952 184.571 240.355 142.448 218.505 167.797C196.655 193.147 163.808 178.21 152.611 169.462C148.178 165.994 141.684 162.675 136.582 162.267Z" fill="#D32456"/>
</g>
<g opacity="0.42">
<path d="M136.582 106.472V148.892C136.582 148.892 157.838 120.454 181.109 128.285C204.379 136.11 218.681 133.129 203.4 118.22C188.118 103.31 245.183 115.61 263.472 111.386C272.998 109.189 274.423 101.929 273.606 95.48H147.598C141.512 95.4753 136.582 100.399 136.582 106.472Z" fill="#FED8E0"/>
</g>
<g opacity="0.35">
<path d="M136.582 178.521V185.873C136.582 191.947 141.512 196.87 147.593 196.87H289.417C295.498 196.87 300.428 191.947 300.428 185.873V144.881C298.376 161.233 295.21 176.249 290.35 181.961C277.658 196.87 253.093 175.994 232.153 186.43C211.212 196.87 161.942 192.396 151.864 189.04C141.786 185.693 136.582 178.521 136.582 178.521Z" fill="#D32456"/>
</g>
<g opacity="0.53">
<path d="M74.7367 207.292C74.7367 207.292 82.1732 220.486 85.8126 227.195C89.4473 233.903 91.6523 287.667 91.6523 287.667L102.278 286.467C102.278 286.467 114.208 251.251 114.927 246.416C115.642 241.576 116.278 218.854 120.786 224.515C125.293 230.176 157.616 270.5 157.616 270.5C157.616 270.5 146.034 208.799 132.14 198.859C118.242 188.924 74.7367 207.292 74.7367 207.292Z" fill="#3554AA"/>
</g>
<path d="M182.246 257.997C181.995 259.735 175.404 262.721 171.918 264.71C168.431 266.698 160.47 270.301 157.606 270.505C154.742 270.709 155.118 264.71 153.623 261.478C153.503 261.223 153.363 260.913 153.196 260.565C151.293 256.508 146.656 246.814 146.656 246.814L156.362 241.223C156.362 241.223 163.33 253.653 163.706 253.773C163.748 253.787 163.827 253.815 163.947 253.857C164.899 254.176 168.241 255.192 172.665 254.64C177.641 254.019 180.009 252.901 181.373 253.894C182.747 254.89 182.497 256.253 182.246 257.997Z" fill="url(#paint2_linear_103_148)"/>
<path d="M103.095 145.591C103.095 145.591 104.868 146.472 105.978 151.2C107.092 155.929 108.336 170.343 109.204 170.013C110.076 169.684 111.817 159.504 113.14 159.003C114.463 158.502 119.783 159.601 119.658 161.576C119.532 163.551 115.229 179.582 111.376 180.449C107.523 181.316 103.095 177.964 103.095 177.964C103.095 177.964 101.252 143.129 103.095 145.591Z" fill="url(#paint3_linear_103_148)"/>
<path d="M109.705 287.074C108.832 289.063 94.4003 288.567 93.2862 288.567C92.1722 288.567 90.7888 287.575 90.9142 284.218C91.0395 280.862 94.521 274.153 95.1431 271.668C95.2173 271.372 95.287 270.973 95.3519 270.505C95.8208 267.037 96.0157 259.615 96.0157 259.615L106.966 258.993C106.966 258.993 107.338 265.331 107.463 268.066C107.505 268.924 107.677 269.916 107.918 270.991C108.442 273.347 109.278 276.11 109.705 278.752C110.327 282.6 110.573 285.085 109.705 287.074Z" fill="url(#paint4_linear_103_148)"/>
<path d="M109.705 287.074C108.832 289.063 94.4003 288.567 93.2862 288.567C92.1722 288.567 90.7888 287.575 90.9142 284.218C91.0395 280.862 94.521 274.153 95.1431 271.668C95.2173 271.372 95.287 270.973 95.3519 270.505C95.6444 270.662 95.9183 270.88 96.1411 271.172C97.3851 272.786 99.0052 274.774 102.236 274.404C105.472 274.033 105.755 270.315 107.913 270.991H107.918C108.442 273.347 109.278 276.11 109.705 278.752C110.327 282.6 110.573 285.085 109.705 287.074Z" fill="#381F3D"/>
<path d="M159.519 241.756C158.855 243.082 148.731 251.367 147.241 250.866C145.746 250.37 134.795 228.001 130.153 220.213C125.507 212.424 124.397 209.772 123.376 209.109C122.355 208.446 104.766 205.628 104.766 205.628C104.766 205.628 100.714 202.137 97.1995 197.783C94.6417 194.608 92.3625 190.978 92.1536 187.899C91.6569 180.607 104.761 185.526 104.761 185.526C104.761 185.526 135.454 193.036 137.446 194.524C139.27 195.892 156.845 233.314 159.254 240.565C159.482 241.237 159.574 241.645 159.519 241.756Z" fill="#5D2168"/>
<path opacity="0.71" d="M159.519 241.756C158.855 243.082 148.731 251.367 147.241 250.866C145.746 250.37 134.795 228.001 130.153 220.213C125.507 212.424 124.397 209.772 123.376 209.109C122.355 208.446 104.766 205.628 104.766 205.628C104.766 205.628 100.713 202.137 97.1995 197.783C99.9568 194.506 102.306 192.063 102.306 192.063C102.306 192.063 119.203 201.001 122.355 202.072C125.507 203.143 129.322 202.313 130.65 205.461C131.978 208.609 148.731 243.736 150.56 244.065C152.384 244.394 159.259 240.565 159.259 240.565C159.482 241.237 159.574 241.645 159.519 241.756Z" fill="#381F3D"/>
<path d="M111.033 258.145C111.163 260.12 110.963 262.396 109.454 262.716C107.714 263.087 107.092 262.841 104.228 263.337C101.363 263.833 97.7565 263.087 96.1411 262.345C94.5257 261.599 94.5257 261.599 93.277 261.474C92.0329 261.348 94.0243 212.137 93.5276 210.644C93.0309 209.151 80.4603 211.265 74.7367 207.287C69.0131 203.31 70.7538 194.116 70.7538 194.116C70.9906 191.186 72.541 189.211 74.7645 187.904C81.7647 183.778 95.3937 186.286 95.3937 186.286C95.3937 186.286 116.051 202.939 116.422 206.791C116.793 210.644 110.699 255.131 110.949 257.245C110.982 257.538 111.01 257.834 111.033 258.145Z" fill="#5D2168"/>
<path opacity="0.71" d="M100.621 216.986C99.8733 218.228 94.897 260.978 96.3918 257.997C97.8865 255.016 98.6896 238.859 99.1584 240.101C99.6273 241.344 100.375 258.145 100.375 258.145H111.037C111.167 260.12 110.968 262.396 109.459 262.716C107.718 263.087 107.096 262.841 104.232 263.337C101.368 263.833 97.7612 263.087 96.1457 262.345C94.5303 261.599 94.5303 261.599 93.2816 261.474C92.0375 261.348 94.029 212.137 93.5323 210.644C93.0356 209.151 80.465 211.265 74.7413 207.287C69.0177 203.31 70.7585 194.116 70.7585 194.116C70.9952 191.186 72.5457 189.211 74.7692 187.904C75.809 192.957 78.2461 199.596 83.9511 202.076C93.6576 206.295 94.962 207.287 99.1631 208.284C103.364 209.276 116.069 208.284 116.069 208.284V211.515C116.065 211.515 101.368 215.744 100.621 216.986Z" fill="#381F3D"/>
<path d="M107.537 187.737C106.428 188.071 96.3082 185.586 89.3405 187.737C82.3728 189.893 76.0643 191.882 73.4137 195.693C70.7585 199.503 71.919 202.651 70.2618 201.993C68.5999 201.33 70.7399 174.529 68.897 164.775C68.5303 162.823 68.2796 160.89 68.1218 159.04C67.4765 151.664 68.2332 145.721 68.2332 145.721C68.2332 145.721 72.4807 143.416 76.0365 142.67C76.742 142.522 77.3966 142.443 77.9907 142.41C78.2878 142.392 78.5664 142.387 78.8356 142.387C80.1911 142.401 81.1937 142.619 81.7926 142.689C82.0479 142.721 82.2289 142.726 82.331 142.67C82.8277 142.42 87.182 147.64 92.5342 149.629C97.8865 151.618 96.0204 142.387 96.0204 142.387C96.0204 142.387 96.2246 142.424 96.5635 142.485C96.9859 142.568 97.608 142.698 98.3043 142.879C98.5642 142.944 98.8335 143.013 99.1073 143.097C100.579 143.523 102.148 144.135 102.742 144.909C103.383 145.744 104.404 149.633 105.244 154.446C106.033 158.966 106.669 164.306 106.688 168.683C106.697 171.094 106.841 173.551 107.027 175.864C107.101 176.787 107.18 177.691 107.259 178.553C107.732 183.643 108.234 187.533 107.537 187.737Z" fill="url(#paint5_linear_103_148)"/>
<path opacity="0.68" d="M107.537 187.737C106.428 188.071 96.3082 185.586 89.3405 187.737C82.3728 189.893 76.0643 191.882 73.4137 195.693C70.7585 199.503 71.919 202.651 70.2618 201.993C68.5999 201.33 70.7399 174.529 68.897 164.775C68.5303 162.823 68.2796 160.89 68.1218 159.04C73.7479 152.957 77.8004 149.587 77.8004 149.587C77.8004 149.587 87.9711 160.194 89.633 160.194C91.2948 160.194 102.491 159.499 102.491 159.499L105.244 154.446C106.033 158.966 106.669 164.307 106.688 168.683C106.697 171.094 106.841 173.551 107.027 175.864C100.607 176.991 92.8499 178.266 88.1707 178.711C79.0956 179.582 71.8772 173.741 71.8772 173.741C71.8772 173.741 72.4992 191.886 73.3719 191.636C74.2446 191.386 86.3139 185.299 94.275 185.299C102.241 185.299 106.098 185.669 103.234 184.803C100.37 183.931 95.5191 184.181 95.5191 183.064C95.5191 181.947 101.614 182.879 102.863 183.625C104.107 184.371 105.304 184.371 105.982 184.432C106.66 184.492 107.263 178.558 107.263 178.558C107.732 183.644 108.234 187.533 107.537 187.737Z" fill="#B78DAE"/>
<path d="M123 149.119L120.8 159.007L118.233 170.528C118.098 171.145 117.545 171.585 116.91 171.585H107.333C106.46 171.585 105.81 170.769 106.019 169.916L108.377 160.125L111.177 148.511C111.325 147.904 111.868 147.473 112.495 147.473H121.686C122.545 147.473 123.186 148.275 123 149.119Z" fill="url(#paint6_linear_103_148)"/>
<path d="M124.56 149.119L122.359 159.007L119.792 170.528C119.658 171.145 119.105 171.585 118.469 171.585H108.893C108.02 171.585 107.37 170.769 107.579 169.916L109.937 160.125L112.736 148.511C112.885 147.904 113.428 147.473 114.055 147.473H123.246C124.105 147.473 124.745 148.275 124.56 149.119Z" fill="#5D2168"/>
<path d="M122.355 159.008L119.788 170.528C119.653 171.145 119.101 171.585 118.465 171.585H108.888C108.015 171.585 107.366 170.769 107.574 169.916L109.933 160.125C111.854 159.48 114.482 158.553 116.065 157.83C118.79 156.587 121.278 155.841 120.776 157.413C120.28 158.989 118.618 160.482 119.658 160.231C120.034 160.143 121.124 159.624 122.355 159.008Z" fill="#381F3D"/>
<path d="M122.865 167.57C122.336 168.122 121.296 169.295 120.479 169.309C119.662 169.323 114.881 168.905 113.34 168.692C111.799 168.479 110.374 167.904 109.705 168.187C109.037 168.47 106.683 168.683 106.683 168.683C106.683 168.683 105.81 162.438 107.616 161.998C107.616 161.998 111.511 161.098 112.583 160.621C113.655 160.143 115.136 158.98 116.826 159.021C118.516 159.063 119.128 158.284 118.738 159.286C118.349 160.292 117.337 160.769 116.696 160.871C116.055 160.973 115.276 162.058 115.276 162.058C115.276 162.058 120.187 161.525 121.194 161.052C122.201 160.574 122.447 159.281 122.447 159.281C122.447 159.281 123.264 159.717 123.093 160.51C122.977 161.033 122.861 161.39 122.791 161.571C122.758 161.664 122.735 161.71 122.735 161.71C122.735 161.71 122.833 161.84 122.958 162.044C123.209 162.466 123.557 163.203 123.278 163.671C123.172 163.852 123.097 163.982 123.037 164.079C122.865 164.367 122.865 164.367 122.865 164.367C122.865 164.367 122.912 164.422 122.967 164.51C123.111 164.747 123.339 165.234 123.056 165.646C122.935 165.822 122.851 165.948 122.796 166.031C122.67 166.221 122.67 166.221 122.67 166.221C122.67 166.221 122.851 166.421 122.967 166.689C123.079 166.963 123.125 167.297 122.865 167.57Z" fill="url(#paint7_linear_103_148)"/>
<g opacity="0.64">
<path d="M122.953 162.049C121.018 162.981 118.609 162.902 118.609 162.902C118.609 162.902 119.611 162.475 121.217 162.197C121.728 162.109 122.276 161.863 122.786 161.576C122.754 161.669 122.731 161.715 122.731 161.715C122.731 161.715 122.828 161.845 122.953 162.049Z" fill="#ED3E3E"/>
<path d="M122.963 164.515C121.199 164.979 119.555 164.677 119.555 164.677C119.555 164.677 121.519 164.561 123.037 164.084C122.865 164.371 122.865 164.371 122.865 164.371C122.865 164.371 122.907 164.427 122.963 164.515Z" fill="#ED3E3E"/>
<path d="M122.963 166.694C121.134 166.972 119.658 166.62 119.658 166.62C119.658 166.62 120.869 166.476 122.034 166.258C122.239 166.221 122.499 166.138 122.796 166.031C122.67 166.221 122.67 166.221 122.67 166.221C122.67 166.221 122.847 166.425 122.963 166.694Z" fill="#ED3E3E"/>
</g>
<path d="M109.204 170.009C108.735 170.848 93.5137 173.583 85.0791 174.524C82.2846 174.83 80.2375 174.946 79.7129 174.728C79.1281 174.487 77.7354 173.124 76.0318 171.135C71.5708 165.924 64.9791 156.402 65.1555 151.367C65.2252 149.429 65.8704 148.015 66.771 146.977C66.7756 146.972 66.7756 146.972 66.7756 146.972C67.3884 146.268 68.1218 145.734 68.8599 145.336C68.8599 145.336 68.8645 145.336 68.8645 145.331C68.8645 145.331 68.8692 145.331 68.8692 145.326C68.8738 145.322 68.8831 145.322 68.8924 145.317C70.9627 144.223 73.1166 144.154 73.1166 144.154C75.614 143.695 84.4385 162.174 85.8079 163.041C87.1773 163.912 107.834 161.673 108.206 161.548C108.498 161.451 109.315 165.934 109.371 168.46C109.389 169.198 109.343 169.763 109.204 170.009Z" fill="url(#paint8_linear_103_148)"/>
<g opacity="0.48">
<path d="M85.0791 174.524C82.2846 174.83 80.2375 174.946 79.7129 174.728C79.128 174.487 77.7354 173.124 76.0318 171.135C76.9881 170.394 78.2228 169.944 79.5597 169.944C82.3914 169.949 84.731 171.942 85.0791 174.524Z" fill="white"/>
</g>
<g opacity="0.48">
<path d="M84.1089 169.8C83.473 169.8 82.9995 169.768 82.7349 169.689C80.1029 168.947 69.8115 157.032 68.1821 153.347C66.5992 149.772 67.133 146.504 67.1609 146.365L67.5276 146.43C67.523 146.462 66.9891 149.731 68.5256 153.198C70.1364 156.842 80.2607 168.609 82.8417 169.332C85.4273 170.055 109 166.629 109.241 166.592L109.297 166.963C108.41 167.093 89.7861 169.8 84.1089 169.8Z" fill="white"/>
</g>
<path opacity="0.51" d="M109.204 170.009C108.735 170.848 93.5137 173.583 85.0791 174.524C82.2846 174.83 80.2375 174.946 79.7129 174.728C79.1281 174.487 77.7354 173.124 76.0318 171.135C71.5708 165.924 64.9791 156.402 65.1555 151.367C65.2252 149.429 65.8704 148.015 66.771 146.977C66.7013 147.093 64.9652 149.976 67.0495 155.011C69.1802 160.148 77.5544 173.157 82.1222 173.319C86.1468 173.467 104.761 170.064 109.376 168.465C109.389 169.198 109.343 169.763 109.204 170.009Z" fill="#B78DAE"/>
<g opacity="0.48">
<path d="M85.8126 163.05C85.2741 163.88 84.3596 163.379 82.6188 160.482C80.8781 157.58 76.0643 148.799 74.5696 146.17C73.1537 143.685 69.3055 145.16 68.8924 145.326C70.9627 144.232 73.1166 144.163 73.1166 144.163C75.614 143.699 84.4432 162.179 85.8126 163.05Z" fill="white"/>
</g>
<g opacity="0.48">
<path d="M98.8196 149.74C98.3646 152.948 96.5728 155.836 92.9474 155.549C89.1595 155.252 85.6315 152.498 83.1388 149.819C81.0777 147.598 79.4391 145.053 77.9861 142.41C78.2832 142.392 78.5617 142.387 78.831 142.387C81.7601 147.644 85.6269 152.855 91.4944 154.524C93.328 155.044 95.3984 154.951 96.6935 153.375C97.7519 152.086 98.0536 150.282 98.1929 148.669C98.3553 146.764 98.4157 144.812 98.2996 142.879C98.5596 142.944 98.8288 143.013 99.1027 143.097C99.2327 145.336 99.1213 147.603 98.8196 149.74Z" fill="white"/>
</g>
<path d="M182.246 257.997C181.995 259.735 175.404 262.721 171.918 264.71C168.431 266.698 160.47 270.301 157.606 270.505C154.742 270.709 155.118 264.71 153.623 261.478C153.503 261.223 153.363 260.913 153.196 260.565C154.798 259.832 156.594 259.151 157.978 258.993C161.213 258.622 163.701 258.868 165.196 257.876C166.384 257.088 163.395 255.349 163.943 253.861C164.894 254.181 168.236 255.196 172.66 254.645C177.637 254.023 180.004 252.906 181.369 253.898C182.747 254.89 182.497 256.253 182.246 257.997Z" fill="#381F3D"/>
<path d="M107.05 120.463C107.547 119.592 107.932 118.623 108.071 117.589C108.382 115.238 107.923 114.154 107.37 113.607C107.56 113.366 107.723 113.106 107.834 112.823C108.289 111.683 107.955 110.612 107.147 110.055C107.523 109.049 107.709 107.844 107.356 106.56C106.4 103.069 102.849 101.78 99.3394 104.872C95.8254 107.969 92.7199 105.456 87.0984 107.798C81.4769 110.134 80.8549 113.31 82.5492 115.98C82.5492 115.98 82.5492 115.98 82.5446 115.98C82.4239 115.99 78.8124 116.397 78.5803 119.777C78.4828 121.238 78.7335 122.758 79.2162 124.228C78.9377 124.923 78.752 125.656 78.8077 126.314C78.9749 128.266 81.4769 129.276 81.5419 129.304C81.5419 129.304 80.9477 131.673 82.9252 132.902C84.8981 134.13 87.2609 133.018 87.2609 133.018L86.4671 131.641L102.682 124.807C102.751 125.109 102.798 125.289 102.798 125.289C102.798 125.289 105.629 125.512 106.632 123.069C107.031 122.077 107.106 121.177 107.05 120.463Z" fill="#381F3D"/>
<path d="M104.074 117.445C104.074 117.445 105.903 123.579 104.85 130.079C103.796 136.578 99.6505 138.21 97.9422 138.808C96.2339 139.406 94.7763 139.249 94.7763 139.249L95.2916 142.693C95.2916 142.693 100.147 150.76 94.3353 151.182C88.5235 151.604 84.0811 143.537 84.0811 143.537C84.0811 143.537 86.0075 137.872 85.9565 135.039C85.9054 132.206 85.5248 129.383 84.9817 128.864C84.4339 128.345 83.4591 129.304 82.4517 127.232C81.4444 125.16 83.2455 122.675 84.5082 122.67C85.7754 122.665 87.1588 128.034 87.7204 128.025C88.2821 128.02 89.1734 127.862 88.8763 127.051C88.5792 126.244 87.7576 124.246 88.0268 123.755C88.2961 123.264 91.2391 121.038 92.2557 119.443C93.2723 117.849 93.4162 117.144 93.4162 117.144C93.4162 117.144 95.0177 118.405 98.6988 118.27C102.38 118.136 104.074 117.445 104.074 117.445Z" fill="url(#paint9_linear_103_148)"/>
<path d="M94.7717 139.249C94.7717 139.249 93.3327 139.36 91.6105 137.663C89.8883 135.971 88.0082 131.65 88.0082 131.65C88.0082 131.65 88.0454 135.007 90.0647 138.447C92.0793 141.887 95.2916 142.693 95.2916 142.693L94.7717 139.249Z" fill="#ED3E3E"/>
<path d="M101.633 126.745C101.67 127.209 101.944 127.566 102.241 127.543C102.542 127.519 102.751 127.121 102.714 126.657C102.677 126.194 102.403 125.837 102.106 125.86C101.804 125.883 101.595 126.282 101.633 126.745Z" fill="#381F3D"/>
<path d="M95.4355 126.615C95.4726 127.079 95.7465 127.436 96.0436 127.413C96.3453 127.39 96.5542 126.991 96.5171 126.527C96.4799 126.064 96.2061 125.707 95.909 125.73C95.6072 125.753 95.3937 126.152 95.4355 126.615Z" fill="#381F3D"/>
<path d="M97.2552 124.209C96.7306 123.704 96.0808 123.301 95.3241 123.454C94.6278 123.597 93.8247 124.13 93.3512 124.654C93.1934 124.826 92.9335 124.575 93.0866 124.404C93.639 123.792 94.5721 123.166 95.4077 123.064C96.2154 122.967 96.9395 123.412 97.4966 123.95C97.673 124.107 97.4223 124.371 97.2552 124.209Z" fill="#381F3D"/>
<path d="M103.828 123.987C103.048 123.338 102.083 123.968 101.405 124.441C101.215 124.575 101.029 124.265 101.219 124.13C102.06 123.542 103.16 122.957 104.084 123.727C104.26 123.871 104.009 124.135 103.828 123.987Z" fill="#381F3D"/>
<path opacity="0.49" d="M91.708 131.275C92.1165 131.961 92.887 132.253 93.4255 131.933C93.964 131.613 94.0661 130.797 93.6576 130.111C93.2491 129.425 92.4785 129.133 91.9401 129.453C91.4016 129.777 91.2995 130.593 91.708 131.275Z" fill="#ED3E3E"/>
<path opacity="0.49" d="M102.654 131.696C102.923 132.146 103.448 132.327 103.824 132.1C104.2 131.873 104.288 131.326 104.019 130.881C103.749 130.431 103.225 130.25 102.849 130.477C102.473 130.7 102.385 131.247 102.654 131.696Z" fill="#ED3E3E"/>
<path d="M99.1677 131.771C99.3209 131.785 99.4787 131.789 99.6319 131.78C99.7387 131.775 99.8547 131.761 99.9708 131.706C100.194 131.599 100.342 131.367 100.398 131.038C100.477 130.598 100.416 130.129 100.221 129.731C100.156 129.596 100.082 129.476 100.013 129.36C99.9429 129.249 99.8826 129.147 99.8315 129.04C99.6644 128.692 99.6272 128.28 99.7247 127.904C99.7619 127.765 99.6829 127.626 99.5483 127.589C99.4137 127.552 99.2745 127.635 99.2373 127.77C99.1073 128.261 99.1584 128.808 99.3766 129.267C99.4416 129.397 99.5158 129.518 99.5855 129.633C99.6551 129.745 99.7201 129.847 99.7711 129.958C99.915 130.264 99.9661 130.616 99.9058 130.95C99.8779 131.108 99.8222 131.214 99.7572 131.247C99.7201 131.265 99.6644 131.27 99.6087 131.275C99.177 131.302 98.7406 131.214 98.3553 131.02C98.23 130.959 98.0814 131.01 98.0165 131.135C97.9561 131.261 98.0072 131.418 98.1325 131.479C98.4575 131.636 98.8103 131.738 99.1677 131.771Z" fill="#ED3E3E"/>
<path d="M99.5623 134.181C99.5623 134.181 98.6014 135.637 97.3387 135.605C96.0761 135.572 95.3241 134.186 95.2777 133.773C95.2313 133.361 95.1152 133.027 95.2591 133.064C95.403 133.101 96.7492 133.787 97.8494 133.764C98.9495 133.741 99.9244 133.463 99.5623 134.181Z" fill="#ED3E3E"/>
<path d="M80.711 142.387L84.6892 141.594C84.6892 141.594 89.257 145.846 92.2418 146.374C95.2266 146.898 95.2916 142.698 95.2916 142.698L96.0157 142.387C96.0157 142.387 100.495 149.281 95.1895 151.618C89.8836 153.954 80.711 142.387 80.711 142.387Z" fill="url(#paint10_linear_103_148)"/>
<g opacity="0.46">
<path d="M217.187 96.1611C217.187 96.1611 207.048 112.04 203.813 113.695C200.573 115.35 194.227 112.679 192.737 118.303C191.242 123.926 185.667 159.091 185.667 159.091L165.883 173.486C165.883 173.486 178.013 158.303 179.215 151.928C180.417 145.549 176.351 127.575 176.351 127.575L149.353 155.563L162.494 103.12C162.499 103.124 221.109 68.7713 217.187 96.1611Z" fill="#D32456"/>
</g>
<path d="M205.382 40.6443L193.99 57.1023L185.644 52.0351L182.822 55.8645C182.822 55.8645 193.67 66.1982 197.983 66.0777C202.295 65.9525 212.099 48.0713 212.099 48.0713L205.382 40.6443Z" fill="white"/>
<path d="M241.743 39.7727C233.285 40.3846 230.857 33.1617 230.788 32.9438C230.783 32.9391 230.783 32.9391 230.783 32.9391C230.449 31.2748 230.31 29.5363 230.17 27.7328C229.674 21.2841 228.801 11.1914 218.12 8.5813C207.438 5.9712 203.326 13.1803 203.326 13.1803C198.716 12.9299 197.737 24.4459 200.308 28.3402C202.88 32.2345 205.781 34.5525 203.711 37.5474C201.636 40.5376 202.165 44.265 202.165 44.265C202.165 44.265 204.166 75.5677 212.104 86.1703C220.042 96.773 231.995 92.1369 233.16 86.1703C234.32 80.2037 234.32 83.0225 243.447 73.7411C243.447 73.7411 258.046 71.9608 258.547 58.66C259.039 45.3638 250.326 39.1514 241.743 39.7727ZM254.184 64.0053C251.199 70.8389 244.672 72.3642 244.672 72.3642L244.64 72.4059C252.322 63.0225 249.639 48.5116 240.624 44.2465C240.527 44.2001 240.434 44.1538 240.337 44.1074C244.329 44.1955 248.358 43.2961 251.696 46.0824C257.173 50.6489 257.173 57.1718 254.184 64.0053Z" fill="#B02773"/>
<path opacity="0.65" d="M220.835 26.0685C220.835 26.0685 220.854 37.7838 226.754 40.3939C232.654 43.004 237.008 44.8677 239.25 51.7013C241.492 58.5348 230.913 64.5014 234.771 68.6043C238.628 72.7072 234.826 81.4648 228.736 81.7754C222.646 82.086 218.208 81.0753 213.612 71.4231C209.017 61.7708 201.673 44.8677 204.658 40.0231C207.643 35.1784 205.596 31.7941 203.321 28.5164C201.046 25.234 204.161 22.2531 204.161 22.2531L220.835 26.0685Z" fill="#5D2168"/>
<path d="M219.573 29.1514C219.573 29.1514 219.517 30.1343 219.735 31.4416C219.958 32.7536 217.748 35.781 217.748 35.781L217.804 36.226C217.804 36.2307 217.809 36.2307 217.809 36.2353C217.809 36.2353 218.352 39.6243 219.963 40.6674C221.573 41.7105 218.881 48.6414 218.881 48.6414L210.525 49.3183C210.525 49.3183 207.216 41.2144 207.898 40.0137C208.58 38.813 210.521 38.6461 210.521 38.6461C210.521 38.6461 211.05 38.8871 211.347 38.2427C211.533 37.8487 211.626 37.1301 211.472 35.8227C211.472 35.8227 208.334 35.4194 205.275 31.7986C202.211 28.1779 203.678 18.4329 203.678 18.4329C204.5 20.329 207.745 21.3489 211.505 22.6146C215.27 23.8802 216.866 25.3684 217.27 25.7578C217.674 26.1473 217.855 26.138 217.855 26.138C217.855 26.138 218.143 24.0889 219.299 22.8881C220.455 21.6874 221.611 22.1649 221.499 24.8955C221.388 27.6215 219.573 29.1514 219.573 29.1514Z" fill="url(#paint11_linear_103_148)"/>
<path d="M211.347 38.2381L211.472 35.8181C211.626 37.1255 211.528 37.8441 211.347 38.2381Z" fill="white"/>
<path d="M211.472 35.8181L214.907 36.0546L211.296 39.272L211.472 35.8181Z" fill="#ED3E3E"/>
<path d="M202.523 26.4904C202.648 28.1872 203.864 29.4899 205.243 29.3879C206.617 29.2859 207.638 27.8256 207.513 26.1288C207.499 25.948 207.471 25.7672 207.434 25.5956C208.348 25.044 208.961 25.4844 209.11 25.6188C209.105 25.7486 209.105 25.8784 209.114 26.0129C209.24 27.7097 210.442 29.0124 211.802 28.9151C213.162 28.8177 214.165 27.3527 214.039 25.6559C214.012 25.2572 213.919 24.8771 213.779 24.534C214.174 24.4598 214.968 24.3485 215.957 24.4181C217.27 24.5062 217.707 25.4427 217.725 25.4844L218.12 25.2711C218.097 25.2201 217.563 24.0333 215.98 23.9267C214.801 23.8479 213.905 24.0055 213.561 24.0797C213.065 23.2266 212.243 22.6935 211.356 22.7584C210.256 22.8372 209.388 23.8108 209.165 25.081C208.761 24.8353 208.093 24.6777 207.299 25.1274C206.872 23.9545 205.883 23.1617 204.797 23.2405C203.414 23.3286 202.397 24.789 202.523 26.4904ZM209.551 25.9804C209.448 24.5525 210.27 23.324 211.389 23.2452C212.508 23.1664 213.501 24.2605 213.603 25.6884C213.705 27.1163 212.884 28.3448 211.765 28.4236C210.646 28.5025 209.653 27.4037 209.551 25.9804ZM202.959 26.458C202.857 25.03 203.692 23.8015 204.83 23.718C205.962 23.6346 206.974 24.7287 207.076 26.1566C207.178 27.5845 206.343 28.8131 205.206 28.8965C204.068 28.98 203.061 27.8859 202.959 26.458Z" fill="white"/>
<path d="M210.929 26.1797C210.957 26.5645 211.189 26.8612 211.445 26.8427C211.7 26.8241 211.886 26.4996 211.858 26.1148C211.83 25.73 211.598 25.4333 211.342 25.4519C211.087 25.4658 210.901 25.7949 210.929 26.1797Z" fill="#5D2168"/>
<path d="M204.918 26.6155C204.946 27.0003 205.178 27.297 205.433 27.2785C205.688 27.2599 205.874 26.9354 205.846 26.5506C205.818 26.1658 205.586 25.8691 205.331 25.8877C205.076 25.9016 204.89 26.2307 204.918 26.6155Z" fill="#5D2168"/>
<path d="M208.631 28.0156C208.529 28.4282 208.446 28.8408 208.395 29.2673C208.376 29.425 208.293 29.731 208.39 29.87C208.469 29.9859 208.891 30.0694 209.017 30.1204C209.281 30.227 209.091 30.6674 208.826 30.5608C208.46 30.4125 207.926 30.3568 207.907 29.8283C207.884 29.2024 208.056 28.507 208.204 27.9136C208.274 27.6123 208.706 27.7096 208.631 28.0156Z" fill="#ED3E3E"/>
<path d="M212.076 30.9085C211.816 31.4926 211.57 32.0165 211.055 32.3642C210.493 32.7444 209.82 32.8464 209.175 32.9344C208.896 32.9762 208.859 32.4847 209.137 32.443C209.699 32.3642 210.307 32.29 210.799 31.9562C211.245 31.6549 211.449 31.1913 211.677 30.686C211.807 30.4078 212.201 30.6257 212.076 30.9085Z" fill="#ED3E3E"/>
<path d="M156.293 157.236C155.48 158.247 150.634 160.041 147.979 161.288C145.323 162.535 134.921 166.546 132.641 166.425C130.362 166.305 128.886 165.53 129.174 163.945C129.406 162.665 132.46 160.19 134.976 158.182C135.571 157.705 136.132 157.26 136.62 156.856C139.173 154.761 147.092 148.048 147.658 146.221C148.081 144.84 152.662 127.037 154.886 118.372C155.61 115.549 156.084 113.695 156.084 113.695L168.246 115.271C168.246 115.271 165.827 127.167 162.299 134.858C159.268 141.465 156.098 146.629 155.879 149.309C155.847 149.749 155.889 150.12 156.023 150.421C156.984 152.559 157.105 156.226 156.293 157.236Z" fill="url(#paint12_linear_103_148)"/>
<path opacity="0.53" d="M162.295 134.858C159.263 141.465 156.093 146.629 155.875 149.309L147.654 146.226C147.654 146.226 153.577 147.732 154.719 147.121C155.865 146.513 163.348 128.09 162.313 126.235C161.798 125.317 158.298 121.752 154.881 118.372C155.606 115.549 156.079 113.695 156.079 113.695L168.241 115.271C168.241 115.275 165.823 127.172 162.295 134.858Z" fill="#ED3E3E"/>
<path d="M156.293 157.236C155.48 158.247 150.634 160.041 147.979 161.288C145.323 162.535 134.921 166.546 132.641 166.425C130.362 166.305 128.886 165.53 129.174 163.945C129.406 162.665 132.46 160.19 134.976 158.182C135.7 159.48 137.028 160.292 139.442 159.388C145.463 157.134 148.703 148.428 155.879 149.304C155.847 149.745 155.889 150.115 156.023 150.417C156.984 152.559 157.105 156.226 156.293 157.236Z" fill="#5D2168"/>
<path d="M210.428 86.8287C210.261 95.4471 180.422 96.5644 179.215 97.436C178.008 98.3075 167.29 120.964 165.855 121.298C164.421 121.627 156.506 118.484 154.682 117.983C154.023 117.802 155.183 113.593 156.98 108.15C160.145 98.544 165.289 85.0901 165.855 83.1894C166.742 80.2084 198.15 75.1133 198.15 75.1133C202.054 73.5371 207.814 76.5598 209.759 82.3595C210.21 83.704 210.456 85.2014 210.428 86.8287Z" fill="#3554AA"/>
<g opacity="0.85">
<path d="M210.428 86.8286C210.261 95.447 180.422 96.5643 179.215 97.4359C178.008 98.3075 167.29 120.964 165.855 121.298C164.421 121.627 156.506 118.484 154.682 117.983C154.023 117.802 155.183 113.593 156.98 108.15C158.692 109.082 162.931 111.33 163.724 111.233C164.718 111.108 166.96 103.528 166.835 102.035C166.709 100.542 166.338 95.6974 165.855 95.0483C165.372 94.3993 168.325 91.8448 168.826 90.8527C169.323 89.8606 167.331 86.5041 166.709 84.7656C166.087 83.027 170.195 88.1221 171.894 87.626C173.593 87.1299 193.995 79.2255 193.995 79.2255C195.592 77.9506 204.556 80.6441 209.759 82.3641C210.21 83.7039 210.456 85.2013 210.428 86.8286Z" fill="#1D3772"/>
</g>
<path d="M188.485 157.083C188.114 158.326 184.298 161.808 182.306 163.959C180.315 166.11 172.187 173.736 170.028 174.478C167.874 175.224 166.213 175.057 165.883 173.486C165.614 172.216 167.517 168.771 169.091 165.966C169.462 165.303 169.815 164.677 170.116 164.121C171.69 161.223 176.504 152.026 176.337 150.12C176.211 148.683 173.747 130.463 172.544 121.599C172.154 118.711 171.894 116.815 171.894 116.815L183.759 113.708C183.759 113.708 186.002 125.637 185.626 134.089C185.305 141.349 184.312 147.325 185.115 149.888C185.25 150.31 185.431 150.635 185.667 150.866C187.366 152.489 188.856 155.841 188.485 157.083Z" fill="url(#paint13_linear_103_148)"/>
<path opacity="0.53" d="M185.621 134.093C185.301 141.353 184.307 147.329 185.11 149.893L176.332 150.125C176.332 150.125 182.385 149.295 183.216 148.303C184.047 147.311 184.047 127.427 182.385 126.096C181.564 125.438 176.973 123.449 172.54 121.604C172.15 118.715 171.89 116.819 171.89 116.819L183.755 113.713C183.755 113.713 185.997 125.646 185.621 134.093Z" fill="#ED3E3E"/>
<path d="M211.663 101.743C202.959 105.721 184.544 103.069 184.874 104.395C185.203 105.721 186.535 113.175 185.537 114.334C184.544 115.493 172.512 116.819 171.89 116.819C171.672 116.819 171.008 114.441 170.302 111.182C168.984 105.099 167.536 95.9385 168.617 93.4582C170.274 89.6474 201.083 75.2756 205.247 75.1133C206.208 75.0762 207.452 75.2107 208.808 75.5028C213.311 76.481 219.048 79.2348 219.74 83.5C219.74 83.5 220.366 97.7651 211.663 101.743Z" fill="url(#paint14_linear_103_148)"/>
<path d="M170.576 95.0437C170.613 95.0576 170.924 95.2431 171.426 95.5444C171.17 95.4053 170.961 95.2848 170.813 95.1921C170.669 95.1086 170.595 95.0576 170.576 95.0437Z" fill="white"/>
<g opacity="0.85">
<path d="M211.663 101.743C202.959 105.721 184.544 103.069 184.874 104.395C185.203 105.721 186.535 113.175 185.537 114.334C184.544 115.493 172.512 116.819 171.89 116.819C171.672 116.819 171.008 114.441 170.302 111.182C173.078 110.755 177.873 109.898 179.772 108.869C182.511 107.376 182.511 103.277 181.141 101.91C180.12 100.89 173.756 96.9585 171.426 95.5491C174.633 97.3062 185.574 102.429 184.999 101.163C184.377 99.7957 177.827 95.3219 180.422 96.5644C183.012 97.8069 189.358 101.289 191.971 100.913C194.585 100.542 211.133 93.8291 212.754 90.9733C214.369 88.1129 203.664 76.9493 203.664 76.9493C203.664 76.9493 205.809 76.1194 208.812 75.5074C213.315 76.4857 219.053 79.2395 219.744 83.5046C219.74 83.5 220.366 97.7652 211.663 101.743Z" fill="#3554AA"/>
</g>
<path d="M226.336 58.66C224.823 68.7249 222.455 70.9641 222.831 78.4189C223.203 85.8736 218.603 93.4536 217.98 93.4536C217.85 93.4536 217.767 93.1105 217.683 92.5357C217.368 90.417 217.01 85.1829 213.877 82.6423C213.877 82.6423 213.849 82.6191 213.798 82.5821C213.77 82.5542 213.738 82.5311 213.705 82.5079C213.58 82.4012 213.45 82.3039 213.32 82.2065C213.283 82.1833 213.255 82.1555 213.213 82.1277C209.3 79.1884 204.203 77.2552 202.555 76.43C200.814 75.5584 196.46 75.8088 196.581 74.9372C196.701 74.0656 199.445 66.6294 199.816 62.6424C200.164 58.915 197.574 54.4319 197.24 52.0397C197.217 51.8728 197.203 51.7152 197.203 51.5715C197.203 49.3323 205.707 40.2641 206.454 39.5177C207.202 38.7713 210.27 38.6879 210.27 38.6879C210.27 38.6879 208.775 41.794 211.143 43.1385C213.506 44.4876 217.488 39.7634 219.355 40.5098C221.221 41.2562 224.127 42.3457 224.823 43.8617C224.823 43.8617 225.371 44.7147 225.886 46.4718C226.016 46.9076 226.141 47.4037 226.253 47.9461C226.262 47.9832 226.267 48.0202 226.276 48.0527C226.276 48.0573 226.276 48.0573 226.28 48.062C226.763 50.5052 227.032 54.0147 226.336 58.66Z" fill="url(#paint15_linear_103_148)"/>
<g opacity="0.71">
<path d="M202.796 72.5775C204.537 73.3239 211.384 74.9372 215.488 78.5441C219.596 82.1463 223.203 86.3744 217.976 93.4582C217.976 93.4582 218.57 83.449 214.991 79.666C211.412 75.883 201.427 73.9497 204.166 75.5631C206.389 76.8751 211.403 80.7276 213.208 82.1277C209.295 79.1885 204.198 77.2552 202.55 76.43C200.81 75.5584 196.455 75.8088 196.576 74.9372C196.697 74.0656 199.44 66.6294 199.812 62.6424C200.16 58.915 197.569 54.4319 197.235 52.0397C200.703 53.1895 205.382 54.3856 207.652 53.4352C211.509 51.8218 216.722 46.0731 216.722 46.0731L225.881 46.4718L226.248 47.9461L226.271 48.0434C226.271 48.0434 226.271 48.0481 226.266 48.0527C226.113 48.4746 219.197 67.7467 217.228 70.0833C215.237 72.4569 201.051 71.8357 202.796 72.5775Z" fill="#B72963"/>
</g>
<path d="M173.487 44.7935L175.687 54.6822L178.254 66.2028C178.389 66.8194 178.941 67.2598 179.577 67.2598H189.153C190.026 67.2598 190.676 66.4439 190.467 65.5909L188.109 55.7995L185.31 44.1862C185.161 43.5789 184.618 43.1477 183.992 43.1477H174.8C173.942 43.1477 173.296 43.9497 173.487 44.7935Z" fill="url(#paint16_linear_103_148)"/>
<path d="M171.927 44.7935L174.127 54.6822L176.694 66.2028C176.829 66.8194 177.381 67.2598 178.017 67.2598H187.594C188.466 67.2598 189.116 66.4439 188.907 65.5909L186.549 55.7995L183.75 44.1862C183.602 43.5789 183.058 43.1477 182.432 43.1477H173.241C172.382 43.1477 171.737 43.9497 171.927 44.7935Z" fill="#5D2168"/>
<path d="M226.271 48.0573C225.607 52.3689 214.411 66.532 213.167 67.691C211.923 68.8501 193.754 67.0281 190.189 65.8691C186.624 64.7101 185.38 64.2975 183.467 64.2975C181.559 64.2975 178.282 64.316 177.534 63.8199C177.075 63.5186 176.996 63.004 176.996 62.647C177.001 62.4245 177.038 62.2622 177.038 62.2622C177.038 62.2622 176.611 62.3596 176.355 62.0536C176.258 61.9377 176.188 61.7662 176.17 61.5158C176.109 60.584 176.109 60.584 176.109 60.584C176.109 60.584 175.975 60.4356 175.808 60.2177C175.696 60.074 175.58 59.9025 175.478 59.7217C175.329 59.4528 175.218 59.1561 175.241 58.9057C175.274 58.5766 175.39 58.2613 175.501 58.0202C175.622 57.7652 175.738 57.5983 175.738 57.5983C175.738 57.5983 175.673 57.4454 175.585 57.2321C175.45 56.8983 175.274 56.4115 175.237 56.1055C175.176 55.6095 175.673 55.4009 176.42 55.1922C177.168 54.9883 180.96 55.6698 182.826 55.8552C184.692 56.0406 184.256 55.7717 183.574 55.1922C182.891 54.6127 180.71 53.9915 180.9 53.5557C181.086 53.1199 181.151 52.4987 182.144 52.9947C183.137 53.4908 184.943 53.3656 185.691 54.112C186.438 54.8584 188.555 58.0898 189.112 58.5256C189.673 58.9613 192.347 58.5858 199.064 59.3322C205.786 60.0786 208.209 59.9535 208.585 59.3925C208.956 58.8315 216.653 42.2437 222.209 42.3225C222.205 42.3411 226.935 43.7505 226.271 48.0573Z" fill="url(#paint17_linear_103_148)"/>
<path d="M179.215 61.9563C179.215 61.9563 178.064 62.2206 176.996 62.6517C177.001 62.4292 177.038 62.2669 177.038 62.2669C177.038 62.2669 176.611 62.3643 176.355 62.0583C178.282 61.7662 179.215 61.9563 179.215 61.9563Z" fill="#ED3E3E"/>
<path d="M180.399 60.0276C180.399 60.0276 177.785 59.5687 175.803 60.2223C175.692 60.0786 175.576 59.9071 175.473 59.7263C176.086 59.5826 176.727 59.4852 177.349 59.4713C180.148 59.4064 180.399 60.0276 180.399 60.0276Z" fill="#ED3E3E"/>
<path d="M175.492 58.0249C175.613 57.7699 175.729 57.603 175.729 57.603C175.729 57.603 175.664 57.45 175.576 57.2368C176.184 57.144 176.871 57.0884 177.595 57.1069C180.046 57.1672 181.118 57.858 181.197 57.9136C181.081 57.8812 177.948 57.1116 175.492 58.0249Z" fill="#ED3E3E"/>
<g opacity="0.51">
<path d="M226.336 58.6599C224.823 68.7248 222.455 70.964 222.831 78.4188C223.203 85.8736 218.602 93.4535 217.98 93.4535C217.85 93.4535 217.767 93.1105 217.683 92.5356C221.49 89.2533 222.845 75.3034 222.214 73.5695C221.583 71.8356 222.339 69.346 223.829 65.3683C225.292 61.4694 226.239 48.5672 226.276 48.0665C226.763 50.5051 227.032 54.0146 226.336 58.6599Z" fill="url(#paint18_linear_103_148)"/>
</g>
<path d="M184.284 118.15L173.556 119.026C171.945 119.156 170.534 117.96 170.404 116.351C170.274 114.742 171.472 113.333 173.083 113.203L183.81 112.327C185.421 112.197 186.832 113.393 186.962 115.002C187.092 116.611 185.895 118.02 184.284 118.15Z" fill="url(#paint19_linear_103_148)"/>
<path d="M163.84 123.718L154.129 119.086C152.672 118.391 152.054 116.648 152.751 115.192C153.447 113.736 155.192 113.12 156.65 113.815L166.361 118.447C167.819 119.142 168.436 120.885 167.74 122.341C167.043 123.797 165.298 124.413 163.84 123.718Z" fill="#3554AA"/>
<path d="M188.485 157.083C188.114 158.326 184.298 161.808 182.306 163.959C180.315 166.11 172.187 173.736 170.028 174.478C167.874 175.224 166.213 175.057 165.883 173.486C165.614 172.216 167.517 168.771 169.091 165.966C170.251 166.898 171.788 167.153 173.682 165.405C178.412 161.057 178.138 151.771 185.115 149.888C185.25 150.31 185.431 150.635 185.667 150.867C187.366 152.489 188.856 155.841 188.485 157.083Z" fill="#5D2168"/>
<path d="M20.2485 90.1481H51.7958C52.1022 90.1481 52.39 90.2037 52.6592 90.3057C53.583 90.6534 54.2421 91.5482 54.2421 92.5959V110.259C54.2421 111.608 53.1466 112.707 51.7911 112.707H48.4814L49.5583 117.594C49.6372 117.946 49.3958 118.238 49.0988 118.298C48.9549 118.331 48.7924 118.303 48.6485 118.201L41.639 113.333L40.7292 112.702H20.2485C18.8977 112.702 17.7975 111.608 17.7975 110.255V92.5913C17.8022 91.2422 18.8977 90.1481 20.2485 90.1481Z" fill="#DBEBFA"/>
<path d="M32.8934 107.705C32.8934 107.705 23.2473 102.466 26.0232 98.1453C28.8038 93.8291 32.8934 98.5301 32.8934 98.5301C32.8934 98.5301 36.9831 93.8245 39.7636 98.1453C42.5396 102.466 32.8934 107.705 32.8934 107.705Z" fill="url(#paint20_linear_103_148)"/>
<path d="M42.9388 97.6492C42.9388 97.6492 40.692 96.4299 41.3419 95.4239C41.9872 94.4179 42.9388 95.512 42.9388 95.512C42.9388 95.512 43.8904 94.4179 44.5403 95.4239C45.1855 96.4299 42.9388 97.6492 42.9388 97.6492Z" fill="url(#paint21_linear_103_148)"/>
<path d="M44.1782 107.454C44.1782 107.454 40.3161 105.354 41.4255 103.625C42.5396 101.896 44.1782 103.778 44.1782 103.778C44.1782 103.778 45.8169 101.896 46.931 103.625C48.0404 105.354 44.1782 107.454 44.1782 107.454Z" fill="url(#paint22_linear_103_148)"/>
<path d="M276.609 0H245.062C244.756 0 244.468 0.0556327 244.199 0.157626C243.27 0.50533 242.616 1.40009 242.616 2.44784V20.1112C242.616 21.4603 243.711 22.559 245.067 22.559H248.377L247.3 27.4455C247.221 27.7978 247.462 28.0899 247.759 28.1501C247.903 28.1826 248.065 28.1548 248.209 28.0528L255.219 23.1849L256.129 22.5544H276.614C277.965 22.5544 279.065 21.4603 279.065 20.1066V2.44784C279.06 1.09411 277.965 0 276.609 0Z" fill="#DBEBFA"/>
<path d="M263.969 17.5614C263.969 17.5614 273.615 12.3226 270.839 8.00182C268.059 3.68566 263.969 8.38662 263.969 8.38662C263.969 8.38662 259.879 3.68102 257.099 8.00182C254.318 12.3226 263.969 17.5614 263.969 17.5614Z" fill="url(#paint23_linear_103_148)"/>
<path d="M253.919 7.50115C253.919 7.50115 256.166 6.28186 255.521 5.27584C254.875 4.26981 253.919 5.36392 253.919 5.36392C253.919 5.36392 252.967 4.26981 252.318 5.27584C251.668 6.28186 253.919 7.50115 253.919 7.50115Z" fill="url(#paint24_linear_103_148)"/>
<path d="M252.684 17.3064C252.684 17.3064 256.546 15.2063 255.437 13.477C254.323 11.7478 252.684 13.63 252.684 13.63C252.684 13.63 251.046 11.7478 249.932 13.477C248.822 15.2063 252.684 17.3064 252.684 17.3064Z" fill="url(#paint25_linear_103_148)"/>
<path d="M274.098 54.1954C272.25 52.5867 272.552 54.5107 271.239 54.9975C269.925 55.4843 269.767 50.7416 266.689 50.1853C263.612 49.6289 265.696 52.8371 264.54 54.4087C263.384 55.9803 263.658 50.8528 261.277 50.6767C258.895 50.5005 260.246 52.0443 261.114 55.8644C261.982 59.6799 257.772 55.5353 254.328 57.6818C250.883 59.8282 252.215 62.749 255.103 64.8445C257.99 66.94 258.673 64.1722 260.492 63.6947C262.317 63.2172 261.88 64.9557 259.48 65.9154C257.08 66.875 258.482 66.5227 259.322 68.493C260.163 70.468 262.976 69.0076 265.046 67.895C267.112 66.7823 267.056 68.15 266.262 69.8978C265.468 71.6409 266.323 70.8296 270.069 71.4787C273.815 72.1277 278.229 70.1713 278.229 70.1713C281.121 64.914 275.946 55.8088 274.098 54.1954ZM258.84 62.4662C255.098 64.8445 253.446 60.468 255.618 59.8978C255.623 59.8978 262.586 60.0879 258.84 62.4662ZM263.672 65.2756C261.982 64.3809 264.879 62.8927 264.879 62.8927C267.376 62.9159 265.362 66.1657 263.672 65.2756ZM264.596 58.85C261.978 58.3679 263.143 56.277 263.143 56.277C263.393 55.1366 266.573 55.2339 267.525 56.634C268.481 58.0341 267.214 59.3322 264.596 58.85ZM272.608 69.5454C268.096 70.0276 268.746 67.5334 269.312 65.4286C269.874 63.3238 274.302 64.8166 274.302 64.8166C277.863 65.2849 277.12 69.0633 272.608 69.5454Z" fill="#304C3F"/>
<path d="M263.992 50.7323C264.582 51.7847 267.451 51.5575 268.811 52.1231C270.171 52.6887 271.893 53.6252 270.969 53.8987C270.045 54.1723 265.176 53.2033 265.241 53.6206C265.306 54.0332 268.449 57.0466 270.862 58.5394C273.276 60.0276 276.41 60.7323 277.371 60.6952C277.371 60.6952 283.568 54.4597 284.222 50.6071C284.877 46.7546 283.196 40.0369 282.166 42.2715C281.135 44.5107 280.857 46.0128 279.654 46.3327C278.452 46.6526 279.125 45.0207 279.343 44.3763C279.557 43.7319 280.448 39.4528 279.729 37.9878C279.009 36.5228 275.221 32.8696 275.091 34.6962C274.961 36.5228 274.766 38.7388 273.949 39.2998C273.132 39.8608 272.464 38.6925 272.608 37.6957C272.752 36.699 272.371 34.6916 271.819 33.3239C271.266 31.9563 266.801 30.8622 264.712 30.2919C262.628 29.7217 260.683 29.6753 260.845 30.3151C261.007 30.9595 261.685 39.7263 262.057 40.1528C262.428 40.5793 267.571 41.3767 267.697 41.7847C267.822 42.1927 267.581 42.9576 265.701 42.902C263.816 42.8464 262.595 42.5589 262.535 43.6021C262.474 44.6452 263.398 49.6846 263.992 50.7323ZM274.432 45.0949C274.441 44.4551 274.947 41.8172 276.075 42.3642C277.143 42.8788 276.758 44.8677 276.34 45.679C276.247 45.8552 276.15 45.9989 276.048 46.1148C275.333 46.8983 274.414 46.2678 274.432 45.0949ZM268.305 38.8965C267.845 38.66 267.525 38.1964 267.395 37.6957C267.26 37.195 267.302 36.6619 267.423 36.1565C267.455 36.0175 267.502 35.8784 267.604 35.781C267.766 35.6327 268.031 35.6466 268.217 35.7625C268.927 36.1844 269.168 37.3527 269.182 38.1037C269.187 38.3077 269.15 38.5395 269.057 38.7157C268.982 38.8547 268.871 38.9567 268.713 38.9845C268.574 39.0077 268.43 38.9614 268.305 38.8965ZM266.903 47.3294C267.135 46.8797 267.743 46.736 268.221 46.9029C268.699 47.0698 269.052 47.4732 269.326 47.895C269.549 48.2381 270.152 49.3276 270.185 50.0786C270.203 50.5051 270.032 50.8204 269.512 50.8343C269.145 50.8436 268.811 50.6303 268.528 50.3985C267.952 49.9303 267.465 49.3508 267.102 48.7017C266.866 48.2752 266.685 47.756 266.903 47.3294Z" fill="#52895A"/>
<path d="M277.891 76.736C277.891 76.736 278.104 68.864 276.721 62.0304C275.342 55.1969 270.774 44.2002 270.774 44.2002L271.48 43.0597C271.48 43.0597 275.764 54.9836 277.306 61.1357C278.847 67.2877 279.056 76.736 279.056 76.736H277.891Z" fill="#304C3F"/>
<path d="M279.989 50.4171C279.58 51.6456 281.832 53.7689 282.365 55.2664C282.899 56.7592 283.401 58.8083 282.519 58.2659C281.637 57.7235 278.884 53.1384 278.601 53.4908C278.318 53.8431 278.202 58.5162 278.763 61.5158C279.325 64.5153 281.033 67.5241 281.757 68.2659C281.757 68.2659 291.185 68.7341 294.713 66.4903C298.241 64.2418 302.359 58.0758 299.838 58.8547C297.317 59.6382 295.925 60.5005 294.801 59.768C293.678 59.0355 295.461 58.405 296.129 58.1129C296.793 57.8208 300.831 55.4565 301.477 53.8292C302.117 52.2019 302.28 46.5552 300.739 47.7606C299.197 48.966 297.294 50.4078 296.264 50.1574C295.229 49.9071 295.674 48.5348 296.565 47.9321C297.461 47.3294 298.775 45.5863 299.462 44.1584C300.149 42.7351 297.786 38.3819 296.733 36.3049C295.679 34.2279 294.309 32.6424 293.919 33.2358C293.53 33.8292 287.059 40.6721 286.989 41.2701C286.919 41.8682 290.002 46.5552 289.774 46.9493C289.542 47.3387 288.758 47.7003 287.444 46.1565C286.125 44.6127 285.471 43.4305 284.598 44.1306C283.721 44.8352 280.397 49.1931 279.989 50.4171ZM292.012 54.7008C292.527 54.2464 294.982 52.7583 295.368 54.0517C295.73 55.271 293.878 56.3976 292.931 56.6433C292.726 56.6989 292.541 56.7221 292.374 56.7221C291.227 56.7175 291.065 55.5306 292.012 54.7008ZM292.499 45.3545C292.355 44.8213 292.49 44.2326 292.791 43.7643C293.093 43.2961 293.543 42.9437 294.031 42.6795C294.165 42.6099 294.309 42.5404 294.463 42.5543C294.699 42.5775 294.876 42.8 294.922 43.0318C295.103 43.8988 294.347 44.9372 293.766 45.4843C293.608 45.6326 293.395 45.7717 293.191 45.8227C293.028 45.8644 292.866 45.8459 292.731 45.7439C292.606 45.6512 292.541 45.5028 292.499 45.3545ZM284.798 50.2965C285.322 50.1574 285.879 50.5422 286.088 51.0383C286.297 51.539 286.237 52.1092 286.102 52.6331C285.991 53.0596 285.564 54.3253 284.988 54.8862C284.663 55.2061 284.292 55.2988 283.902 54.8909C283.628 54.6034 283.558 54.1862 283.535 53.7921C283.489 52.9947 283.596 52.188 283.851 51.4324C284.018 50.9456 284.301 50.4263 284.798 50.2965Z" fill="url(#paint26_linear_103_148)"/>
<path d="M279.938 89.6288C279.938 89.6288 280.021 78.6228 281.929 69.9951C283.837 61.372 291.807 49.4156 291.807 49.4156H290.958C290.958 49.4156 283.679 58.9057 280.973 69.1143C278.267 79.3229 279.06 89.6242 279.06 89.6242H279.938V89.6288Z" fill="#497A52"/>
<path d="M289.175 79.1421L287.086 93.1986L287.012 93.7178C286.859 94.747 285.977 95.5073 284.932 95.5073H271.791C270.751 95.5073 269.864 94.747 269.711 93.7178L267.548 79.1421C267.362 77.8996 268.305 76.7823 269.549 76.736C269.572 76.736 269.6 76.736 269.623 76.736H287.096C288.382 76.736 289.366 77.8764 289.175 79.1421Z" fill="url(#paint27_linear_103_148)"/>
<g opacity="0.68">
<path d="M287.091 93.2032L287.017 93.7225C286.864 94.7517 285.982 95.512 284.937 95.512H271.791C270.751 95.512 269.864 94.7517 269.711 93.7225L267.548 79.1467C267.362 77.9043 268.305 76.787 269.549 76.7406L273.801 93.2032H287.091Z" fill="#B78DAE"/>
</g>
<path d="M37.1502 181.529C37.1502 181.529 40.135 176.119 39.0163 159.527C37.8975 142.934 32.4339 129.406 32.2064 127.121C31.9789 124.835 30.967 127.617 30.2846 130.208C29.6022 132.8 28.6042 142.818 28.5485 144.279C28.4928 145.739 29.0962 147.255 29.0962 147.255L29.8715 147.793L28.827 149.383C28.827 149.383 28.3999 154.163 28.516 164.51C28.632 174.858 30.6838 179.494 30.6838 179.494L37.1502 181.529Z" fill="#99A35F"/>
<path d="M35.739 180.199L31.8675 177.904C31.8675 177.904 31.3151 175.966 30.7534 172.943C30.7163 172.739 30.6792 172.535 30.642 172.322C30.4099 171.01 30.1825 169.517 30.0014 167.904C29.9829 167.723 29.9597 167.542 29.9411 167.357C29.774 165.781 29.6533 164.098 29.6162 162.369C29.4722 156.087 29.6162 152.359 29.6951 150.913C29.7136 150.561 29.7322 150.347 29.7368 150.259C29.7415 150.231 29.7415 150.213 29.7415 150.213L30.591 148.943L29.9411 148.502C29.9411 148.502 29.4258 147.278 29.4583 146.105C29.4722 145.549 29.6486 143.435 29.8854 141.149C29.9225 140.783 29.9643 140.412 30.0061 140.046C30.2475 137.872 30.5306 135.744 30.772 134.812C31.3151 132.735 31.9232 128.669 32.1321 130.51C32.2621 131.659 34.2071 137.07 35.9154 144.223C35.9618 144.436 36.0129 144.65 36.0639 144.863C36.997 148.882 37.8418 153.412 38.2457 158.025C38.2596 158.173 38.2735 158.321 38.2828 158.47C38.3153 158.859 38.3432 159.239 38.3617 159.619C38.5846 163.185 38.4731 166.374 38.2039 169.114C38.1807 169.332 38.1575 169.545 38.1343 169.758C37.7908 172.823 37.2523 175.289 36.7695 177.056C36.7092 177.287 36.6442 177.505 36.5885 177.714C36.115 179.327 35.739 180.199 35.739 180.199Z" fill="#6A724A"/>
<g opacity="0.29">
<path d="M36.0639 144.854C35.7575 144.928 35.4605 145.034 35.1819 145.169C34.5645 145.466 33.9518 145.702 33.5062 145.03C33.1951 144.562 33.1348 143.899 33.0187 143.351C32.8516 142.554 32.7124 141.738 32.5128 140.955C32.4199 140.588 32.2853 139.935 31.9418 139.759C31.4962 139.531 30.9855 139.99 30.6745 140.264C30.3774 140.528 30.1175 140.82 29.8854 141.14C29.9225 140.774 29.9643 140.403 30.0061 140.037C30.577 139.411 31.2548 138.933 31.9232 139.077C33.1116 139.337 33.2184 141.409 33.4272 142.396C33.5433 142.953 33.5897 143.732 33.8357 144.237C34.1885 144.951 34.7966 144.654 35.363 144.413C35.544 144.334 35.7343 144.269 35.92 144.214C35.9618 144.427 36.0082 144.64 36.0639 144.854Z" fill="#351D1F"/>
<path d="M38.3617 159.61C37.9393 158.831 37.5726 158.015 37.2012 157.209C36.9041 156.564 36.6024 155.92 36.2543 155.308C35.9989 154.863 35.6694 154.39 35.1123 154.705C34.9313 154.807 34.7781 155.122 34.6342 155.289C34.0957 155.92 33.4551 156.221 32.7217 155.86C31.8722 155.442 31.5704 154.515 31.4173 153.583C31.278 152.758 31.2501 151.701 30.591 151.159C30.3171 150.936 30.0107 150.876 29.6951 150.918C29.7136 150.565 29.7322 150.352 29.7368 150.264C30.6467 150.18 31.3383 150.797 31.6819 151.803C31.8954 152.424 31.9047 153.097 32.0439 153.741C32.3132 154.983 33.2694 156.003 34.3232 154.752C34.8338 154.149 35.4048 153.5 36.1336 154.07C36.6767 154.497 37.0063 155.401 37.3126 156.022C37.6376 156.68 37.9347 157.362 38.2503 158.025C38.2643 158.173 38.2782 158.321 38.2875 158.47C38.3107 158.845 38.3385 159.23 38.3617 159.61Z" fill="#351D1F"/>
<path d="M38.1343 169.749C37.8975 169.782 37.6515 169.842 37.3962 169.902C36.5978 170.102 35.6462 170.264 34.9684 169.703C34.0307 168.929 34.7874 167.292 33.4644 166.861C32.5546 166.56 31.1991 167.459 30.0014 167.904C29.9829 167.723 29.9597 167.542 29.9411 167.357C30.8277 167.009 31.7236 166.268 32.6103 166.17C33.3623 166.087 34.2118 166.291 34.6481 166.972C34.8802 167.338 34.8941 167.751 34.9591 168.178C35.0427 168.734 35.1309 169.179 35.6972 169.378C36.0454 169.503 36.4864 169.462 36.8484 169.392C37.2987 169.309 37.7536 169.17 38.2039 169.1C38.1807 169.323 38.1575 169.536 38.1343 169.749Z" fill="#351D1F"/>
<path d="M36.5885 177.705C36.4074 177.686 36.2217 177.654 36.0407 177.603C34.7456 177.241 33.8636 176.161 33.1441 175.034C32.6056 174.191 31.9557 172.934 30.8463 172.939C30.8138 172.939 30.7859 172.939 30.7581 172.943C30.7209 172.739 30.6838 172.535 30.6467 172.322C30.8834 172.294 31.1294 172.313 31.3801 172.382C33.2137 172.883 33.7336 175.452 35.2191 176.504C35.7297 176.866 36.2496 177.023 36.7742 177.051C36.7092 177.278 36.6442 177.496 36.5885 177.705Z" fill="#351D1F"/>
</g>
<path d="M39.8054 182.151C39.8054 182.151 44.3035 178.919 49.7904 165.071C55.2773 151.219 56.0711 138.178 56.7674 136.24C57.4637 134.307 55.5744 136.166 54.0239 137.997C52.4735 139.828 47.8083 147.552 47.2002 148.711C46.5921 149.87 46.4946 151.33 46.4946 151.33L46.9124 152.063L45.4548 152.948C45.4548 152.948 43.2684 156.648 39.3737 165.067C35.479 173.481 35.3537 178.02 35.3537 178.02L39.8054 182.151Z" fill="#99A35F"/>
<path d="M39.1741 180.528L36.9273 177.185C36.9273 177.185 37.2244 175.405 37.9393 172.744C37.9857 172.568 38.0368 172.382 38.0878 172.202C38.4035 171.047 38.7981 169.754 39.2716 168.382C39.3273 168.229 39.3783 168.071 39.434 167.913C39.9075 166.573 40.4599 165.169 41.0912 163.755C43.3983 158.618 44.9488 155.656 45.5662 154.515C45.7147 154.237 45.8122 154.07 45.854 154C45.8679 153.977 45.8725 153.963 45.8725 153.963L47.0516 153.263L46.6942 152.656C46.6942 152.656 46.7499 151.469 47.228 150.533C47.4555 150.088 48.4117 148.446 49.484 146.689C49.6558 146.407 49.8322 146.124 50.0086 145.841C51.0391 144.177 52.0882 142.559 52.6453 141.9C53.8847 140.431 55.9411 137.376 55.4026 138.943C55.0637 139.921 54.5578 145.048 53.1837 151.488C53.1419 151.678 53.1002 151.868 53.0584 152.063C52.2646 155.674 51.2062 159.661 49.7533 163.546C49.7068 163.671 49.6604 163.796 49.614 163.922C49.4887 164.246 49.3633 164.566 49.238 164.881C48.045 167.853 46.7267 170.389 45.4501 172.503C45.348 172.67 45.2459 172.832 45.1484 172.994C43.6908 175.34 42.3028 177.13 41.2351 178.377C41.0959 178.539 40.9613 178.692 40.8359 178.84C39.8147 179.972 39.1741 180.528 39.1741 180.528Z" fill="#6A724A"/>
<g opacity="0.29">
<path d="M53.0538 152.067C52.7799 152.012 52.4967 151.984 52.2182 151.984C51.6054 151.984 51.0159 151.942 50.9184 151.228C50.8488 150.732 51.053 150.171 51.1691 149.684C51.3409 148.975 51.5405 148.261 51.6797 147.552C51.7447 147.223 51.8886 146.638 51.6797 146.365C51.4058 146.013 50.8163 146.184 50.4589 146.286C50.1154 146.384 49.7904 146.523 49.484 146.689C49.6558 146.407 49.8322 146.124 50.0086 145.841C50.7095 145.554 51.4476 145.428 51.9257 145.799C52.7892 146.467 52.0743 148.182 51.8608 149.063C51.7401 149.559 51.4755 150.204 51.4801 150.709C51.4894 151.418 52.0929 151.418 52.6499 151.437C52.8263 151.446 53.0073 151.46 53.1791 151.488C53.1327 151.678 53.0909 151.873 53.0538 152.067Z" fill="#351D1F"/>
<path d="M49.2287 164.886C49.1869 164.093 49.2055 163.291 49.2148 162.494C49.2194 161.859 49.2287 161.219 49.1777 160.593C49.1405 160.134 49.057 159.624 48.486 159.666C48.2957 159.68 48.0589 159.874 47.8779 159.953C47.2002 160.259 46.5642 160.255 46.1093 159.68C45.5847 159.017 45.6961 158.15 45.9329 157.334C46.1418 156.615 46.5224 155.748 46.1975 155.058C46.0629 154.77 45.8354 154.608 45.5662 154.52C45.7147 154.242 45.8122 154.075 45.854 154.005C46.6199 154.288 46.9448 155.053 46.8334 155.999C46.7638 156.583 46.5178 157.135 46.3785 157.705C46.1186 158.813 46.4992 160.004 47.8315 159.397C48.4767 159.105 49.1916 158.799 49.5583 159.541C49.8322 160.097 49.7486 160.95 49.7579 161.571C49.7672 162.23 49.744 162.893 49.744 163.551C49.6976 163.676 49.6511 163.801 49.6047 163.926C49.4794 164.251 49.3541 164.571 49.2287 164.886Z" fill="#351D1F"/>
<path d="M45.1391 172.999C44.9349 172.934 44.712 172.888 44.4799 172.841C43.7558 172.693 42.9249 172.461 42.5953 171.747C42.1357 170.76 43.3751 169.726 42.4746 168.868C41.8525 168.275 40.4135 168.484 39.2716 168.382C39.3273 168.229 39.3783 168.071 39.434 167.913C40.2835 167.974 41.2955 167.714 42.0522 167.978C42.6928 168.201 43.3009 168.688 43.3937 169.411C43.4401 169.796 43.2916 170.134 43.1802 170.505C43.0316 170.987 42.9341 171.381 43.3148 171.761C43.5469 171.998 43.9229 172.132 44.2386 172.216C44.6331 172.322 45.0602 172.382 45.4501 172.498C45.3387 172.67 45.2366 172.837 45.1391 172.999Z" fill="#351D1F"/>
<path d="M40.822 178.841C40.6827 178.757 40.5435 178.66 40.4181 178.548C39.5129 177.76 39.2112 176.546 39.0673 175.359C38.9559 174.469 38.9141 173.203 38.0136 172.781C37.9904 172.767 37.9625 172.758 37.9393 172.749C37.9857 172.573 38.0368 172.387 38.0878 172.206C38.2921 172.276 38.4824 172.383 38.6588 172.536C39.9493 173.644 39.383 175.92 40.1768 177.343C40.4506 177.835 40.8127 178.159 41.2259 178.386C41.082 178.544 40.9473 178.697 40.822 178.841Z" fill="#351D1F"/>
</g>
<path d="M37.9208 186.318C37.9208 186.318 39.0627 180.25 32.8145 164.835C26.5663 149.42 17.143 138.27 16.2146 136.17C15.2862 134.07 15.1934 137.028 15.3558 139.703C15.5183 142.378 17.7001 152.206 18.1039 153.611C18.5078 155.016 19.5569 156.268 19.5569 156.268L20.4621 156.536L19.97 158.372C19.97 158.372 21.0609 163.045 24.4032 172.841C27.7454 182.637 31.148 186.397 31.148 186.397L37.9208 186.318Z" fill="#C4E57C"/>
<path d="M36.1614 185.493L31.7654 184.52C31.7654 184.52 30.6328 182.851 29.1566 180.152C29.0591 179.972 28.957 179.786 28.8595 179.601C28.2282 178.428 27.5458 177.079 26.8681 175.605C26.7938 175.438 26.7149 175.271 26.6406 175.104C25.9907 173.657 25.3501 172.095 24.7699 170.468C22.6717 164.543 21.6412 160.959 21.2605 159.559C21.1677 159.221 21.1166 159.007 21.0934 158.924C21.0888 158.896 21.0841 158.878 21.0841 158.878L21.4973 157.403L20.7406 157.185C20.7406 157.185 19.8679 156.184 19.5337 155.058C19.3712 154.524 18.8792 152.461 18.3871 150.217C18.3082 149.856 18.2293 149.494 18.155 149.133C17.7047 146.991 17.3055 144.881 17.2452 143.922C17.1105 141.78 16.4189 137.728 17.1895 139.411C17.6722 140.463 21.2141 144.993 25.0716 151.256C25.183 151.441 25.2991 151.631 25.4151 151.817C27.5598 155.345 29.7786 159.383 31.603 163.639C31.6633 163.773 31.719 163.912 31.7794 164.047C31.9325 164.404 32.0765 164.761 32.2157 165.113C33.5433 168.433 34.4346 171.492 35.0334 174.186C35.0798 174.399 35.1263 174.608 35.168 174.816C35.7994 177.834 36.0593 180.347 36.1568 182.174C36.1707 182.41 36.18 182.642 36.1893 182.855C36.245 184.552 36.1614 185.493 36.1614 185.493Z" fill="url(#paint28_linear_103_148)"/>
<g opacity="0.45">
<path d="M25.4198 151.817C25.1552 151.984 24.8999 152.179 24.677 152.392C24.185 152.865 23.6744 153.282 23.0431 152.781C22.6021 152.433 22.3375 151.826 22.0543 151.339C21.6458 150.635 21.2605 149.902 20.8242 149.221C20.6246 148.901 20.2903 148.321 19.9097 148.266C19.4176 148.192 19.0741 148.785 18.8652 149.142C18.6656 149.485 18.5078 149.847 18.3917 150.217C18.3128 149.856 18.2339 149.494 18.1596 149.133C18.5031 148.358 19.0045 147.695 19.6776 147.626C20.8892 147.501 21.6365 149.439 22.1425 150.31C22.4303 150.802 22.7135 151.529 23.1034 151.933C23.6604 152.498 24.1432 152.03 24.6074 151.622C24.756 151.492 24.9138 151.367 25.0763 151.256C25.1877 151.441 25.2991 151.631 25.4198 151.817Z" fill="#6A724A"/>
<path d="M32.2157 165.118C31.5705 164.51 30.967 163.847 30.3589 163.198C29.8761 162.679 29.3887 162.16 28.8641 161.692C28.4789 161.349 28.0193 161.001 27.5876 161.474C27.4483 161.631 27.4019 161.975 27.3183 162.179C27.0027 162.948 26.4921 163.43 25.6797 163.314C24.742 163.18 24.1664 162.396 23.7254 161.557C23.3355 160.816 22.9781 159.823 22.1796 159.513C21.85 159.388 21.539 159.425 21.2559 159.564C21.163 159.225 21.112 159.012 21.0887 158.929C21.9243 158.567 22.7738 158.933 23.419 159.782C23.8136 160.306 24.0364 160.941 24.3707 161.511C25.0159 162.605 26.2414 163.277 26.8495 161.761C27.1466 161.029 27.4855 160.231 28.3535 160.551C29.0034 160.788 29.5976 161.543 30.0804 162.039C30.5956 162.563 31.0877 163.115 31.5983 163.648C31.6586 163.783 31.7144 163.922 31.7747 164.056C31.9325 164.408 32.0764 164.765 32.2157 165.118Z" fill="#6A724A"/>
<path d="M35.168 174.821C34.9545 174.928 34.7363 175.057 34.5135 175.197C33.8172 175.632 32.9631 176.082 32.1461 175.762C31.0088 175.317 31.2177 173.532 29.8297 173.532C28.8734 173.532 27.8661 174.807 26.8681 175.605C26.7938 175.438 26.7149 175.271 26.6406 175.104C27.3741 174.501 27.9915 173.514 28.8085 173.143C29.4955 172.832 30.3635 172.758 30.9948 173.268C31.3291 173.541 31.473 173.931 31.6679 174.316C31.9233 174.821 32.1414 175.21 32.7449 175.229C33.1163 175.238 33.5201 175.062 33.8451 174.886C34.2489 174.663 34.6342 174.39 35.0427 174.186C35.0798 174.404 35.1263 174.612 35.168 174.821Z" fill="#6A724A"/>
<path d="M36.1893 182.865C36.0083 182.906 35.8226 182.929 35.6369 182.939C34.2953 182.999 33.1209 182.248 32.0857 181.404C31.3105 180.769 30.2986 179.782 29.2448 180.129C29.217 180.139 29.1891 180.148 29.1613 180.162C29.0638 179.981 28.9616 179.796 28.8642 179.61C29.0823 179.508 29.3191 179.452 29.579 179.439C31.4776 179.341 32.7728 181.617 34.5135 182.155C35.1123 182.341 35.6555 182.327 36.1661 182.192C36.1707 182.42 36.18 182.647 36.1893 182.865Z" fill="#6A724A"/>
</g>
<path d="M32.7077 181.529C32.7077 181.529 30.7395 175.674 34.7967 159.55C38.8584 143.421 46.6478 131.08 47.2744 128.873C47.9058 126.666 48.4025 129.582 48.616 132.253C48.8249 134.923 48.0218 144.96 47.8176 146.407C47.6133 147.853 46.7499 149.239 46.7499 149.239L45.8911 149.633L46.6338 151.386C46.6338 151.386 46.2021 156.166 44.2432 166.328C42.2843 176.49 39.4387 180.686 39.4387 180.686L32.7077 181.529Z" fill="#C4E57C"/>
<path d="M34.3371 180.468L38.5567 178.896C38.5567 178.896 39.448 177.088 40.5388 174.214C40.6131 174.024 40.6874 173.824 40.757 173.625C41.2212 172.373 41.7086 170.945 42.1775 169.392C42.2285 169.216 42.2796 169.044 42.3353 168.864C42.7809 167.338 43.1987 165.707 43.5469 164.014C44.8095 157.858 45.3341 154.163 45.5151 152.726C45.5569 152.378 45.5801 152.16 45.594 152.072C45.594 152.044 45.5987 152.026 45.5987 152.026L44.9859 150.625L45.7054 150.306C45.7054 150.306 46.4296 149.193 46.606 148.034C46.6895 147.482 46.8938 145.373 47.0702 143.083C47.098 142.716 47.1259 142.345 47.1491 141.975C47.3023 139.791 47.4044 137.644 47.3301 136.685C47.1677 134.543 47.293 130.435 46.7592 132.211C46.4249 133.319 43.5469 138.298 40.5899 145.03C40.5063 145.229 40.4181 145.428 40.3253 145.632C38.6913 149.42 37.0527 153.727 35.8318 158.196C35.79 158.34 35.7529 158.484 35.7158 158.627C35.6136 159.003 35.5208 159.374 35.4326 159.745C34.5785 163.212 34.1143 166.369 33.8961 169.119C33.8775 169.337 33.8636 169.55 33.8497 169.763C33.6408 172.841 33.729 175.363 33.8868 177.19C33.9054 177.426 33.9286 177.654 33.9518 177.872C34.1236 179.55 34.3371 180.468 34.3371 180.468Z" fill="url(#paint29_linear_103_148)"/>
<g opacity="0.45">
<path d="M40.3207 145.637C40.6085 145.767 40.8824 145.925 41.133 146.105C41.6854 146.504 42.2471 146.852 42.8088 146.268C43.1941 145.864 43.3751 145.224 43.5887 144.705C43.895 143.95 44.1782 143.175 44.5171 142.438C44.6703 142.095 44.9209 141.474 45.2923 141.367C45.7704 141.224 46.1928 141.766 46.4482 142.091C46.6942 142.401 46.8984 142.74 47.0655 143.092C47.0934 142.726 47.1213 142.355 47.1445 141.984C46.6942 141.265 46.1093 140.677 45.4316 140.7C44.2153 140.741 43.7419 142.763 43.3612 143.699C43.1477 144.228 42.9666 144.983 42.6324 145.438C42.1589 146.078 41.6158 145.679 41.1005 145.34C40.9334 145.234 40.7617 145.132 40.5853 145.044C40.4971 145.229 40.4135 145.433 40.3207 145.637Z" fill="#6A724A"/>
<path d="M35.4279 159.745C35.9803 159.054 36.4863 158.312 37.0016 157.589C37.4101 157.009 37.8186 156.425 38.2735 155.887C38.6077 155.493 39.0162 155.085 39.5083 155.498C39.6708 155.632 39.759 155.966 39.875 156.156C40.2928 156.875 40.8684 157.283 41.6576 157.056C42.5674 156.796 43.027 155.938 43.3473 155.048C43.6304 154.26 43.8486 153.226 44.5913 152.809C44.9023 152.638 45.2134 152.633 45.5151 152.73C45.5569 152.383 45.5801 152.165 45.594 152.077C44.7167 151.836 43.9229 152.318 43.403 153.245C43.0827 153.82 42.9527 154.478 42.6974 155.09C42.21 156.263 41.0912 157.097 40.2742 155.679C39.8797 154.993 39.434 154.251 38.617 154.687C38.0089 155.011 37.5215 155.841 37.113 156.397C36.6767 156.991 36.2635 157.603 35.8318 158.201C35.79 158.345 35.7529 158.488 35.7158 158.632C35.6136 159.003 35.5161 159.374 35.4279 159.745Z" fill="#6A724A"/>
<path d="M33.845 169.763C34.0725 169.837 34.3046 169.939 34.546 170.046C35.298 170.384 36.2032 170.709 36.9691 170.282C38.0321 169.684 37.5772 167.946 38.9559 167.751C39.9029 167.617 41.0773 168.743 42.1775 169.397C42.2285 169.221 42.2796 169.049 42.3353 168.868C41.5229 168.372 40.7756 167.478 39.9214 167.227C39.1973 167.014 38.3246 167.06 37.7722 167.654C37.4751 167.974 37.3915 168.377 37.2523 168.785C37.0712 169.318 36.9041 169.74 36.3146 169.837C35.9479 169.898 35.5208 169.777 35.1773 169.647C34.7502 169.485 34.3232 169.267 33.8961 169.119C33.8729 169.337 33.859 169.55 33.845 169.763Z" fill="#6A724A"/>
<path d="M33.9472 177.867C34.1282 177.881 34.3185 177.881 34.5042 177.862C35.8411 177.737 36.9041 176.833 37.8093 175.85C38.4917 175.113 39.3551 173.996 40.446 174.195C40.4739 174.2 40.5064 174.204 40.5342 174.214C40.6085 174.024 40.6827 173.824 40.7524 173.625C40.5249 173.555 40.2789 173.528 40.0189 173.551C38.125 173.718 37.1548 176.152 35.5069 176.921C34.9359 177.185 34.4021 177.246 33.8775 177.185C33.9054 177.427 33.924 177.654 33.9472 177.867Z" fill="#6A724A"/>
</g>
<path d="M46.1371 180.032C46.0814 182.095 45.9747 185.294 45.7936 188.738C45.5476 193.477 45.1623 198.674 44.5774 201.988C44.2386 203.922 43.8254 205.22 43.3334 205.414C40.9474 206.365 35.8226 206.485 35.8226 206.485C35.8226 206.485 30.6978 206.365 28.3164 205.414C28.1214 205.336 27.9357 205.085 27.7686 204.691C27.2859 203.565 26.8959 201.279 26.5896 198.488C25.9211 192.452 25.624 184.07 25.5126 180.037C25.4848 179.072 26.0557 178.238 26.8866 177.876C27.1698 177.751 27.4762 177.686 27.8011 177.686H43.8393C45.1345 177.681 46.1743 178.743 46.1371 180.032Z" fill="#AFA38B"/>
<path d="M44.5774 201.984C44.2386 203.917 43.8254 205.215 43.3334 205.41C40.9474 206.36 35.8226 206.481 35.8226 206.481C35.8226 206.481 30.6978 206.36 28.3164 205.41C28.1214 205.331 27.9357 205.081 27.7686 204.687C27.2859 203.56 26.8959 201.274 26.5896 198.483C25.9211 192.447 25.624 184.065 25.5126 180.032C25.4848 179.068 26.0557 178.233 26.8866 177.872C27.1698 177.746 27.4762 177.682 27.8011 177.682H29.7786L33.1348 201.988H44.5774V201.984Z" fill="#8C7E67"/>
<defs>
<linearGradient id="paint0_linear_103_148" x1="81.9243" y1="199.867" x2="81.9243" y2="357.153" gradientUnits="userSpaceOnUse">
<stop stop-color="#7C90D9"/>
<stop offset="1" stop-color="#5968BD"/>
</linearGradient>
<linearGradient id="paint1_linear_103_148" x1="218.509" y1="96.3747" x2="218.509" y2="212.865" gradientUnits="userSpaceOnUse">
<stop stop-color="#F7A1BD"/>
<stop offset="1" stop-color="#FF7588"/>
</linearGradient>
<linearGradient id="paint2_linear_103_148" x1="146.66" y1="255.863" x2="182.443" y2="255.863" gradientUnits="userSpaceOnUse">
<stop stop-color="#FFD3B6"/>
<stop offset="1" stop-color="#F48E76"/>
</linearGradient>
<linearGradient id="paint3_linear_103_148" x1="102.275" y1="163.029" x2="119.659" y2="163.029" gradientUnits="userSpaceOnUse">
<stop stop-color="#E4D5DF"/>
<stop offset="1" stop-color="#C9B1C3"/>
</linearGradient>
<linearGradient id="paint4_linear_103_148" x1="90.9057" y1="273.805" x2="110.267" y2="273.805" gradientUnits="userSpaceOnUse">
<stop stop-color="#FFD3B6"/>
<stop offset="1" stop-color="#F48E76"/>
</linearGradient>
<linearGradient id="paint5_linear_103_148" x1="78.0645" y1="146.741" x2="94.5447" y2="198.922" gradientUnits="userSpaceOnUse">
<stop stop-color="#E4D5DF"/>
<stop offset="1" stop-color="#C9B1C3"/>
</linearGradient>
<linearGradient id="paint6_linear_103_148" x1="105.977" y1="159.529" x2="123.032" y2="159.529" gradientUnits="userSpaceOnUse">
<stop stop-color="#7C90D9"/>
<stop offset="1" stop-color="#5968BD"/>
</linearGradient>
<linearGradient id="paint7_linear_103_148" x1="106.47" y1="164.039" x2="123.375" y2="164.039" gradientUnits="userSpaceOnUse">
<stop stop-color="#F48E76"/>
<stop offset="1" stop-color="#FFD3B6"/>
</linearGradient>
<linearGradient id="paint8_linear_103_148" x1="65.1523" y1="159.498" x2="109.377" y2="159.498" gradientUnits="userSpaceOnUse">
<stop stop-color="#E4D5DF"/>
<stop offset="1" stop-color="#C9B1C3"/>
</linearGradient>
<linearGradient id="paint9_linear_103_148" x1="95.0292" y1="117.385" x2="91.0213" y2="145.031" gradientUnits="userSpaceOnUse">
<stop stop-color="#FFD3B6"/>
<stop offset="1" stop-color="#F48E76"/>
</linearGradient>
<linearGradient id="paint10_linear_103_148" x1="80.71" y1="146.761" x2="97.7825" y2="146.761" gradientUnits="userSpaceOnUse">
<stop stop-color="#E4D5DF"/>
<stop offset="1" stop-color="#C9B1C3"/>
</linearGradient>
<linearGradient id="paint11_linear_103_148" x1="211.806" y1="21.5401" x2="216.111" y2="45.7681" gradientUnits="userSpaceOnUse">
<stop stop-color="#FFD3B6"/>
<stop offset="1" stop-color="#F48E76"/>
</linearGradient>
<linearGradient id="paint12_linear_103_148" x1="129.134" y1="140.064" x2="168.241" y2="140.064" gradientUnits="userSpaceOnUse">
<stop stop-color="#FFD3B6"/>
<stop offset="1" stop-color="#F48E76"/>
</linearGradient>
<linearGradient id="paint13_linear_103_148" x1="165.855" y1="144.313" x2="188.543" y2="144.313" gradientUnits="userSpaceOnUse">
<stop stop-color="#FFD3B6"/>
<stop offset="1" stop-color="#F48E76"/>
</linearGradient>
<linearGradient id="paint14_linear_103_148" x1="188.378" y1="81.7444" x2="198.402" y2="106.502" gradientUnits="userSpaceOnUse">
<stop stop-color="#7C90D9"/>
<stop offset="1" stop-color="#5968BD"/>
</linearGradient>
<linearGradient id="paint15_linear_103_148" x1="208.25" y1="36.767" x2="213.594" y2="78.2397" gradientUnits="userSpaceOnUse">
<stop stop-color="#FF6575"/>
<stop offset="1" stop-color="#D43672"/>
</linearGradient>
<linearGradient id="paint16_linear_103_148" x1="173.453" y1="55.2008" x2="190.508" y2="55.2008" gradientUnits="userSpaceOnUse">
<stop stop-color="#7C90D9"/>
<stop offset="1" stop-color="#5968BD"/>
</linearGradient>
<linearGradient id="paint17_linear_103_148" x1="201.081" y1="46.2906" x2="199.3" y2="78.3943" gradientUnits="userSpaceOnUse">
<stop stop-color="#FFD3B6"/>
<stop offset="1" stop-color="#F48E76"/>
</linearGradient>
<linearGradient id="paint18_linear_103_148" x1="217.677" y1="70.7641" x2="226.758" y2="70.7641" gradientUnits="userSpaceOnUse">
<stop stop-color="#F7A1BD"/>
<stop offset="1" stop-color="#FF7588"/>
</linearGradient>
<linearGradient id="paint19_linear_103_148" x1="170.394" y1="115.678" x2="186.971" y2="115.678" gradientUnits="userSpaceOnUse">
<stop stop-color="#7C90D9"/>
<stop offset="1" stop-color="#5968BD"/>
</linearGradient>
<linearGradient id="paint20_linear_103_148" x1="32.8923" y1="84.3347" x2="32.8923" y2="127.002" gradientUnits="userSpaceOnUse">
<stop stop-color="#FF6575"/>
<stop offset="1" stop-color="#D43672"/>
</linearGradient>
<linearGradient id="paint21_linear_103_148" x1="42.9411" y1="84.3346" x2="42.9411" y2="127.002" gradientUnits="userSpaceOnUse">
<stop stop-color="#FF6575"/>
<stop offset="1" stop-color="#D43672"/>
</linearGradient>
<linearGradient id="paint22_linear_103_148" x1="44.1774" y1="84.3347" x2="44.1774" y2="127.002" gradientUnits="userSpaceOnUse">
<stop stop-color="#FF6575"/>
<stop offset="1" stop-color="#D43672"/>
</linearGradient>
<linearGradient id="paint23_linear_103_148" x1="263.97" y1="4.73711" x2="263.97" y2="49.5524" gradientUnits="userSpaceOnUse">
<stop stop-color="#FF6575"/>
<stop offset="1" stop-color="#D43672"/>
</linearGradient>
<linearGradient id="paint24_linear_103_148" x1="253.921" y1="4.73713" x2="253.921" y2="49.5527" gradientUnits="userSpaceOnUse">
<stop stop-color="#FF6575"/>
<stop offset="1" stop-color="#D43672"/>
</linearGradient>
<linearGradient id="paint25_linear_103_148" x1="252.685" y1="4.73708" x2="252.685" y2="49.5527" gradientUnits="userSpaceOnUse">
<stop stop-color="#FF6575"/>
<stop offset="1" stop-color="#D43672"/>
</linearGradient>
<linearGradient id="paint26_linear_103_148" x1="281.87" y1="47.0921" x2="301.339" y2="58.5227" gradientUnits="userSpaceOnUse">
<stop stop-color="#A1CC77"/>
<stop offset="1" stop-color="#63887E"/>
</linearGradient>
<linearGradient id="paint27_linear_103_148" x1="267.525" y1="86.1233" x2="289.2" y2="86.1233" gradientUnits="userSpaceOnUse">
<stop stop-color="#E4D5DF"/>
<stop offset="1" stop-color="#C9B1C3"/>
</linearGradient>
<linearGradient id="paint28_linear_103_148" x1="15.7511" y1="138.443" x2="39.7753" y2="194.181" gradientUnits="userSpaceOnUse">
<stop stop-color="#A1CC77"/>
<stop offset="1" stop-color="#63887E"/>
</linearGradient>
<linearGradient id="paint29_linear_103_148" x1="48.0462" y1="131.054" x2="31.9434" y2="189.568" gradientUnits="userSpaceOnUse">
<stop stop-color="#A1CC77"/>
<stop offset="1" stop-color="#63887E"/>
</linearGradient>
</defs>
</svg>
