<svg width="322" height="324" viewBox="0 0 322 324" fill="none" xmlns="http://www.w3.org/2000/svg">
<path opacity="0.35" d="M301.237 70.863C312.466 70.863 321.569 63.0589 321.569 53.4319C321.569 43.805 312.466 36.0009 301.237 36.0009C290.008 36.0009 280.905 43.805 280.905 53.4319C280.905 63.0589 290.008 70.863 301.237 70.863Z" fill="#B9C6F0"/>
<path d="M240.512 125.641C243.404 123.979 246.016 121.9 248.528 119.722C248.952 119.352 249.377 118.972 249.802 118.602C249.856 118.701 249.928 118.783 250.046 118.837C252.44 119.985 255.043 120.563 257.682 120.599C259.823 123.753 263.998 123.988 267.305 122.741C269.257 122.009 271.037 120.852 272.745 119.668C274.598 118.376 276.351 116.939 277.995 115.394C278.366 115.042 278.049 114.508 277.661 114.49C277.652 114.49 277.643 114.481 277.634 114.481C273.604 113.352 269.438 112.466 265.227 112.819C263.311 112.981 261.314 113.289 259.959 114.78C258.748 116.117 258.269 117.861 257.88 119.578C255.35 119.578 252.856 119.009 250.552 117.942C254.121 114.761 257.682 111.517 261.883 109.186C266.501 106.629 272.167 105.309 277.245 107.108C278.872 110.532 282.938 111.409 286.39 110.713C288.432 110.298 290.375 109.439 292.246 108.535C294.279 107.55 296.24 106.412 298.101 105.147C298.526 104.858 298.291 104.279 297.911 104.198C297.902 104.198 297.902 104.189 297.893 104.18C294.098 102.427 290.122 100.891 285.911 100.574C283.995 100.43 281.971 100.421 280.399 101.677C278.989 102.806 278.239 104.451 277.589 106.087C277.435 106.06 277.29 106.014 277.137 105.987C274.616 105.192 271.932 105.056 269.311 105.463C263.736 106.331 259.245 109.222 255.043 112.656C255.865 110.876 256.389 108.978 256.615 107.035C259.977 105.228 260.627 101.099 259.733 97.6828C259.2 95.6677 258.233 93.7791 257.23 91.9628C256.136 89.9839 254.889 88.0953 253.516 86.3061C253.199 85.8994 252.639 86.1615 252.585 86.55C252.585 86.5591 252.576 86.5591 252.567 86.5681C251.031 90.4628 249.73 94.5201 249.639 98.7401C249.603 100.665 249.711 102.68 251.058 104.18C252.26 105.517 253.95 106.177 255.621 106.737C255.35 109.313 254.51 111.807 253.154 114.021C253.091 114.12 253.082 114.21 253.091 114.301C248.808 117.997 244.705 122.036 239.925 124.792C239.338 125.135 239.943 125.967 240.512 125.641ZM255.712 104.84C255.712 105.129 255.703 105.409 255.694 105.698C254.221 105.192 252.702 104.587 251.699 103.358C250.525 101.93 250.597 99.8064 250.696 98.0533C250.886 94.4659 251.971 91.005 253.254 87.6706C255.368 90.508 257.302 93.6526 258.45 96.987C259.453 99.8877 259.48 103.9 256.724 105.797C256.742 105.436 256.751 105.075 256.751 104.713C256.733 104.062 255.712 104.18 255.712 104.84ZM278.628 107.478C278.718 107.433 278.781 107.361 278.836 107.27C279.07 107.288 279.305 107.316 279.54 107.325C280.2 107.352 280.146 106.322 279.495 106.294C279.206 106.285 278.926 106.249 278.637 106.222C279.224 104.776 279.911 103.294 281.194 102.364C282.694 101.279 284.8 101.469 286.544 101.659C290.113 102.056 293.502 103.331 296.764 104.794C293.809 106.737 290.565 108.499 287.167 109.457C284.303 110.279 280.444 110.108 278.628 107.478ZM259.787 119.488C259.498 119.524 259.218 119.533 258.929 119.551C259.281 118.033 259.724 116.46 260.844 115.331C262.145 114.021 264.26 113.876 266.013 113.786C269.6 113.614 273.152 114.328 276.604 115.268C273.992 117.662 271.064 119.903 267.865 121.394C265.082 122.686 261.097 123.129 258.919 120.572C259.281 120.554 259.642 120.527 259.995 120.491C260.654 120.418 260.447 119.406 259.787 119.488Z" fill="#BBBBD9"/>
<path d="M97.3497 213.727C93.1207 211.297 89.5062 207.736 85.729 204.474C85.738 204.402 85.729 204.312 85.6748 204.23C84.4729 202.269 83.732 200.074 83.497 197.796C84.9699 197.299 86.4609 196.721 87.5182 195.537C88.711 194.218 88.8013 192.438 88.7652 190.739C88.6929 187.016 87.5363 183.438 86.1808 179.995C86.1808 179.986 86.1718 179.986 86.1718 179.977C86.1175 179.633 85.6205 179.407 85.3495 179.76C84.1386 181.341 83.0362 183.013 82.0693 184.757C81.1837 186.356 80.3252 188.028 79.8644 189.808C79.0692 192.826 79.6566 196.468 82.6205 198.067C82.8193 199.784 83.2801 201.456 84.0121 203.028C80.2981 200.001 76.3312 197.444 71.4154 196.676C69.1021 196.314 66.7346 196.432 64.5117 197.137C64.3761 197.164 64.2496 197.2 64.1141 197.227C63.5357 195.781 62.8761 194.335 61.6291 193.341C60.2375 192.23 58.4573 192.239 56.7675 192.365C53.0536 192.646 49.5475 194.001 46.195 195.546C46.186 195.546 46.186 195.555 46.1769 195.564C45.8426 195.637 45.6347 196.143 46.0052 196.405C47.6499 197.525 49.3758 198.537 51.174 199.396C52.8277 200.191 54.5355 200.95 56.3428 201.311C59.3881 201.926 62.9755 201.149 64.4123 198.131C68.8943 196.54 73.9004 197.706 77.9758 199.965C81.6807 202.025 84.8253 204.881 87.979 207.691C85.9458 208.64 83.741 209.137 81.509 209.137C81.1656 207.619 80.7409 206.083 79.6746 204.899C78.4818 203.58 76.7198 203.309 75.03 203.164C71.316 202.857 67.6382 203.634 64.087 204.637C64.0779 204.637 64.0779 204.646 64.0689 204.646C63.7255 204.664 63.4454 205.134 63.7707 205.441C65.2165 206.815 66.7617 208.08 68.4063 209.218C69.9064 210.266 71.4787 211.288 73.2046 211.929C76.1324 213.023 79.8102 212.824 81.6988 210.032C84.0211 210.004 86.3254 209.489 88.4399 208.477C88.5393 208.432 88.6116 208.351 88.6477 208.269C89.0182 208.604 89.3977 208.929 89.7773 209.254C91.9912 211.179 94.2954 213.014 96.8437 214.477C97.3226 214.758 97.8557 214.017 97.3497 213.727ZM82.503 196.007C82.503 196.323 82.512 196.64 82.5301 196.965C80.0903 195.284 80.1174 191.742 81.003 189.185C82.015 186.239 83.732 183.465 85.5934 180.962C86.723 183.907 87.6808 186.953 87.8525 190.124C87.9338 191.67 87.9971 193.54 86.967 194.805C86.0814 195.89 84.744 196.423 83.4337 196.866C83.4247 196.613 83.4157 196.36 83.4157 196.107C83.4066 195.519 82.503 195.42 82.503 196.007ZM55.647 200.191C52.6469 199.342 49.7824 197.796 47.1709 196.07C50.0445 194.769 53.0355 193.649 56.1892 193.296C57.7254 193.125 59.5869 192.962 60.9152 193.92C62.0447 194.742 62.6592 196.052 63.1743 197.326C62.9213 197.354 62.6682 197.381 62.4152 197.39C61.8369 197.417 61.7917 198.329 62.37 198.302C62.5779 198.293 62.7857 198.275 62.9936 198.248C63.0387 198.32 63.102 198.393 63.1743 198.429C61.5748 200.76 58.1772 200.905 55.647 200.191ZM79.6204 209.923C79.9367 209.959 80.253 209.977 80.5692 209.995C78.6535 212.245 75.1294 211.857 72.6715 210.718C69.8431 209.408 67.2587 207.42 64.9544 205.315C67.9997 204.483 71.1263 203.851 74.298 204.004C75.8432 204.077 77.7137 204.212 78.8614 205.369C79.8463 206.363 80.2439 207.745 80.5512 209.092C80.2981 209.074 80.0451 209.065 79.7921 209.038C79.2318 208.965 79.0421 209.851 79.6204 209.923Z" fill="#BBBBD9"/>
<path d="M265.028 143.687C269.094 143.687 269.094 150.916 273.161 150.916C277.227 150.916 277.227 143.687 281.293 143.687C285.36 143.687 285.36 150.916 289.426 150.916C293.493 150.916 293.493 143.687 297.559 143.687C301.625 143.687 301.625 150.916 305.692 150.916" stroke="#DFD3EB" stroke-width="2" stroke-miterlimit="10" stroke-linecap="round" stroke-linejoin="round"/>
<path d="M36.1467 65.8478C40.2131 65.8478 40.2131 73.0768 44.2794 73.0768C48.3458 73.0768 48.3458 65.8478 52.4121 65.8478C56.4785 65.8478 56.4785 73.0768 60.5448 73.0768C64.6112 73.0768 64.6112 65.8478 68.6775 65.8478C72.7439 65.8478 72.7439 73.0768 76.8102 73.0768" stroke="#DFD3EB" stroke-width="2" stroke-miterlimit="10" stroke-linecap="round" stroke-linejoin="round"/>
<path d="M205.036 30.3261C205.099 31.7357 204.927 33.0912 204.539 34.3653C204.231 35.4316 203.761 36.4346 203.183 37.3654C203.138 37.4557 203.084 37.528 203.03 37.6094C202.659 38.1606 202.252 38.6847 201.801 39.1726C201.385 39.6245 200.933 40.0401 200.445 40.4287L199.551 41.4046L194.535 46.8716L192.222 49.4018L187.207 54.8688L184.885 57.3989L181.884 60.6701L180.61 59.5044L179.146 58.167L175.966 55.2573L174.502 53.9199L171.33 51.0102L169.866 49.6729L166.694 46.7632L165.231 45.4258L162.059 42.5161L161.643 42.1456C161.264 41.8926 160.902 41.6215 160.55 41.3323C159.908 40.7992 159.33 40.2118 158.806 39.5522C158.751 39.4708 158.688 39.3986 158.625 39.3263C158.218 38.7931 157.857 38.2238 157.55 37.6274C157.26 37.0853 157.007 36.516 156.809 35.9196C156.664 35.4949 156.547 35.0611 156.447 34.6183C156.294 33.9316 156.194 33.2177 156.167 32.4858C156.041 29.5038 156.98 26.7386 158.661 24.5428C159.312 23.6934 160.071 22.9163 160.929 22.2657C162.185 21.2988 163.622 20.5668 165.203 20.1421C165.8 19.9795 166.414 19.862 167.038 19.7897C167.3 19.7626 167.571 19.7355 167.851 19.7264C168.872 19.6813 169.866 19.7626 170.815 19.9614C171.384 20.0698 171.935 20.2325 172.469 20.4222C173.318 20.7204 174.131 21.118 174.881 21.5879C175.225 21.8048 175.559 22.0307 175.875 22.2837C176.399 22.6904 176.896 23.1331 177.339 23.6211C178.595 24.9675 179.544 26.6031 180.095 28.4194C180.384 29.3682 180.556 30.3713 180.601 31.4104C180.475 28.564 181.333 25.8983 182.878 23.7476C183.592 22.7536 184.451 21.8681 185.436 21.1271C186.095 20.6301 186.8 20.1963 187.55 19.8349C188.165 19.5457 188.806 19.3017 189.466 19.112C190.361 18.859 191.3 18.6963 192.276 18.6602C192.647 18.6421 193.017 18.6421 193.379 18.6602C193.957 18.6873 194.535 18.7505 195.096 18.859C196.352 19.0939 197.544 19.5276 198.629 20.115C199.171 20.4042 199.686 20.7385 200.174 21.118C201.394 22.0398 202.442 23.1783 203.246 24.4976C203.734 25.3019 204.141 26.1694 204.439 27.0911C204.783 28.0941 204.99 29.1875 205.036 30.3261Z" fill="#CC7CA3"/>
<path d="M160.929 22.2386L157.559 37.6095C157.27 37.0673 157.017 36.498 156.818 35.9016C156.673 35.4769 156.556 35.0431 156.456 34.6004L158.67 24.5248C159.312 23.6574 160.071 22.8893 160.929 22.2386Z" fill="white"/>
<path d="M167.047 19.7627L162.059 42.4981L161.643 42.1276C161.264 41.8746 160.902 41.6035 160.55 41.3144L165.204 20.1151C165.8 19.9525 166.414 19.835 167.047 19.7627Z" fill="white"/>
<path d="M172.478 20.3952L166.694 46.7542L165.23 45.4168L170.824 19.9434C171.384 20.0428 171.944 20.2054 172.478 20.3952Z" fill="white"/>
<path d="M177.348 23.5941L171.33 50.9923L169.866 49.6549L175.884 22.2567C176.409 22.6633 176.896 23.1152 177.348 23.5941Z" fill="white"/>
<path d="M182.896 23.7295L175.975 55.2482L174.511 53.9109L180.113 28.3922C180.402 29.3411 180.574 30.3441 180.619 31.3833C180.484 28.5368 181.342 25.8801 182.896 23.7295Z" fill="white"/>
<path d="M189.484 19.094L180.61 59.5045L179.146 58.1671L187.568 19.8169C188.174 19.5187 188.815 19.2838 189.484 19.094Z" fill="white"/>
<path d="M195.114 18.8408L187.207 54.8686L184.885 57.3988L193.397 18.651C193.975 18.6691 194.553 18.7414 195.114 18.8408Z" fill="white"/>
<path d="M200.192 21.1L194.535 46.8716L192.222 49.4018L198.656 20.106C199.189 20.3951 199.704 20.7295 200.192 21.1Z" fill="white"/>
<path d="M204.448 27.073L201.792 39.1727C201.376 39.6245 200.924 40.0402 200.436 40.4287L199.542 41.4047L203.255 24.4886C203.752 25.2838 204.159 26.1513 204.448 27.073Z" fill="white"/>
<path d="M23.6763 212.318C23.6763 212.318 15.4171 186.031 10.2845 185.082C5.15182 184.134 -0.902532 188.805 3.87769 195.501C11.161 205.721 20.9022 215.58 20.9022 215.58L23.6763 212.318Z" fill="#FFB7AE"/>
<path d="M9.84186 148.539C1.59168 158.046 -2.9536 190.224 2.15193 192.375C5.37791 193.73 5.99238 194.254 10.9172 185.715C15.842 177.176 18.6975 160.341 20.1162 153.302C20.9837 149.027 19.2216 137.732 9.84186 148.539Z" fill="#FFB7AE"/>
<path d="M17.7034 170.949C17.7034 170.949 3.96819 167.651 2.05249 165.735C2.05249 165.735 5.07063 145.675 13.4021 142.91C21.7246 140.154 22.4746 151.594 22.0047 155.353C21.4897 159.365 17.7034 170.949 17.7034 170.949Z" fill="url(#paint0_linear_103_1942)"/>
<path d="M247.416 59.0345H247.434C247.434 51.95 241.696 46.2119 234.612 46.2119H106.377C99.2925 46.2119 93.5544 51.95 93.5544 59.0345H93.5725V304.064H93.5544C93.5544 311.148 99.2925 316.886 106.377 316.886H234.612C241.696 316.886 247.434 311.148 247.434 304.064H247.416V59.0345Z" fill="url(#paint1_linear_103_1942)"/>
<path d="M208.957 54.1731C210.115 54.1731 211.054 53.2345 211.054 52.0767C211.054 50.9188 210.115 49.9802 208.957 49.9802C207.799 49.9802 206.861 50.9188 206.861 52.0767C206.861 53.2345 207.799 54.1731 208.957 54.1731Z" fill="white"/>
<path d="M219.927 54.1731C221.085 54.1731 222.024 53.2345 222.024 52.0767C222.024 50.9188 221.085 49.9802 219.927 49.9802C218.769 49.9802 217.831 50.9188 217.831 52.0767C217.831 53.2345 218.769 54.1731 219.927 54.1731Z" fill="white"/>
<path d="M232.994 52.0767C232.994 53.2333 232.054 54.1731 230.897 54.1731C229.741 54.1731 228.801 53.2333 228.801 52.0767C228.801 50.92 229.741 49.9802 230.897 49.9802C232.054 49.9802 232.994 50.92 232.994 52.0767Z" fill="white"/>
<path d="M239.735 65.595V297.467C239.735 300.748 237.07 303.404 233.798 303.404H107.199C103.919 303.404 101.262 300.748 101.262 297.467V65.595C101.262 62.3148 103.919 59.6581 107.199 59.6581H233.798C237.07 59.6581 239.735 62.3238 239.735 65.595Z" fill="url(#paint2_linear_103_1942)"/>
<path opacity="0.23" d="M214.045 92.6678H67.0959C64.4302 92.6678 62.2615 94.8366 62.2615 97.5023V148.738C62.2615 151.404 64.4302 153.573 67.0959 153.573H214.045C216.711 153.573 218.879 151.413 218.879 148.738V97.5023C218.879 94.8275 216.72 92.6678 214.045 92.6678Z" fill="url(#paint3_linear_103_1942)"/>
<path opacity="0.83" d="M209.075 86.5864H62.1259C59.4602 86.5864 57.2915 88.7552 57.2915 91.4209V142.657C57.2915 145.323 59.4512 147.491 62.1259 147.491H209.075C211.741 147.491 213.909 145.323 213.909 142.657V91.4209C213.909 88.7552 211.741 86.5864 209.075 86.5864Z" fill="white"/>
<path d="M28.2216 111.879C28.2216 111.879 40.4749 127.196 38.5863 128.958C36.6977 130.729 28.068 132.907 28.068 132.907L26.2155 145.205L16.4382 137.081L17.0256 131.542C17.0256 131.542 15.6159 121.53 19.0317 116.343C22.4564 111.174 28.2216 111.879 28.2216 111.879Z" fill="#FFB7AE"/>
<path d="M28.0771 132.916L24.7607 131.398L27.1825 139.196L28.0771 132.916Z" fill="#EBA5A0"/>
<path d="M29.1794 113.099L30.6975 115.033C30.6975 115.033 28.7637 118.9 25.0317 119.108C25.0317 119.108 26.1342 123.256 24.8239 123.111C23.5136 122.967 21.5076 121.105 21.5076 121.105C21.5076 121.105 24.2094 112.403 29.1794 113.099Z" fill="#EBA5A0"/>
<path d="M24.0738 99.2191C18.5526 100.511 18.3357 111.653 15.8236 111.888C13.3115 112.123 6.97703 118.132 7.91681 123.391C8.85658 128.65 10.0132 131.994 15.9049 133.639C21.7966 135.283 24.625 128.768 24.625 128.768C24.625 128.768 18.2996 125.388 19.7363 122.714C20.3056 121.656 21.7243 121.367 22.7545 121.982C23.4864 122.424 24.3087 122.777 24.3087 122.171C24.3087 121.069 23.2876 118.006 23.2876 118.006C23.2876 118.006 27.3992 117.997 31.2667 112.06C33.0378 109.322 30.2817 97.7643 24.0738 99.2191Z" fill="url(#paint4_linear_103_1942)"/>
<path d="M185.463 141.202C197.969 141.202 208.108 131.063 208.108 118.557C208.108 106.05 197.969 95.9119 185.463 95.9119C172.956 95.9119 162.818 106.05 162.818 118.557C162.818 131.063 172.956 141.202 185.463 141.202Z" fill="url(#paint5_linear_103_1942)"/>
<path d="M185.463 140.072C197.346 140.072 206.979 130.44 206.979 118.557C206.979 106.674 197.346 97.0414 185.463 97.0414C173.58 97.0414 163.948 106.674 163.948 118.557C163.948 130.44 173.58 140.072 185.463 140.072Z" fill="white"/>
<mask id="mask0_103_1942" style="mask-type:luminance" maskUnits="userSpaceOnUse" x="163" y="97" width="44" height="44">
<path d="M185.463 140.072C197.346 140.072 206.979 130.44 206.979 118.557C206.979 106.674 197.346 97.0414 185.463 97.0414C173.58 97.0414 163.948 106.674 163.948 118.557C163.948 130.44 173.58 140.072 185.463 140.072Z" fill="white"/>
</mask>
<g mask="url(#mask0_103_1942)">
<path d="M188.147 99.6078C188.147 99.6078 194.454 101.686 194.852 106.177C195.24 110.668 197.906 117.373 197.906 117.373C197.906 117.373 191.788 123.943 185.481 122.705C179.165 121.467 173.309 117.699 174.285 115.873C175.261 114.048 177.538 107.677 177.538 107.677L188.147 99.6078Z" fill="url(#paint6_linear_103_1942)"/>
<path d="M191.942 124.521C195.258 125.506 199.126 136.359 199.126 136.359L211.415 129.319L213.819 131.633C213.819 131.633 202.062 145.973 198.593 144.997C195.123 144.021 191.138 134.226 191.138 134.226C191.138 134.226 185.219 122.524 191.942 124.521Z" fill="#CC7CA3"/>
<path d="M191.942 124.521C191.942 124.521 187.496 122.777 184.505 123.102C181.514 123.428 174.032 124.403 174.032 124.403C174.032 124.403 175.261 140.479 173.173 147.247C171.095 154.016 174.222 155.479 174.222 155.479C174.222 155.479 191.228 159.989 192.963 155.651C194.698 151.314 192.096 144.889 192.439 142.639C192.782 140.38 195.041 141.247 194.346 136.91C193.65 132.572 190.225 129.473 191.942 124.521Z" fill="#BF6F9A"/>
<path d="M176.291 124.666C179.427 126.138 174.565 140.271 174.565 140.271L193.089 147.762L190.487 151.404C190.487 151.404 183.113 147.383 179.824 145.901C176.535 144.419 168.863 136.313 168.863 136.313C168.863 136.313 169.938 121.693 176.291 124.666Z" fill="#CC7CA3"/>
<path d="M188.011 119.912L188.183 124.684C188.183 124.684 187.144 125.894 185.842 125.641C184.541 125.379 182.11 123.563 182.11 123.563L183.502 118.096L188.011 119.912Z" fill="#FFB7AE"/>
<path d="M192.954 106.204C192.954 106.204 193.216 115.232 192.43 116.876C191.653 118.521 189.918 121.476 186.62 121.385C183.321 121.295 180.375 118.521 180.204 116.442C180.204 116.442 177.601 115.747 178.125 113.93C178.649 112.105 180.032 112.539 180.032 112.539L181.162 106.466L192.954 106.204Z" fill="#FFB7AE"/>
<path d="M193.153 105.861C193.153 105.861 187.361 111.129 185.87 111.454L185.933 109.439C185.933 109.439 180.927 112.819 179.752 112.891L179.363 112.114C179.363 112.114 175.523 115.304 172.731 114.192C172.731 114.192 175.27 112.891 175.857 109.765C176.445 106.638 179.761 98.6408 186.267 99.2191C192.764 99.8065 194.002 105.011 193.153 105.861Z" fill="url(#paint7_linear_103_1942)"/>
</g>
<path d="M149.643 104.614H119.696C117.266 104.614 115.305 106.584 115.305 109.005C115.305 111.436 117.275 113.397 119.696 113.397H149.643C152.074 113.397 154.034 111.427 154.034 109.005C154.034 106.584 152.074 104.614 149.643 104.614Z" fill="url(#paint8_linear_103_1942)"/>
<path d="M152.227 118.286H116.787V119.677H152.227V118.286Z" fill="url(#paint9_linear_103_1942)"/>
<path d="M152.227 123.03H116.787V124.422H152.227V123.03Z" fill="url(#paint10_linear_103_1942)"/>
<path d="M152.227 129.247H116.787V130.639H152.227V129.247Z" fill="url(#paint11_linear_103_1942)"/>
<path d="M96.3105 99.5625C94.684 99.5625 93.1749 100.069 91.9279 100.927C89.9128 102.319 88.5935 104.65 88.5935 107.289C88.5935 104.65 87.2742 102.319 85.2591 100.927C84.0121 100.06 82.503 99.5625 80.8674 99.5625C76.6023 99.5625 73.1414 103.023 73.1414 107.289C73.1414 108.924 73.6474 110.433 74.5058 111.68C74.542 111.734 74.5781 111.78 74.6143 111.834C75.0932 112.493 75.6715 113.072 76.3312 113.551L88.5935 125.813L100.856 113.551C101.515 113.072 102.094 112.494 102.564 111.843C102.6 111.789 102.636 111.743 102.672 111.689C103.54 110.442 104.037 108.933 104.037 107.298C104.037 103.023 100.576 99.5625 96.3105 99.5625Z" fill="#CC7CA3"/>
<path opacity="0.23" d="M227.87 164.995H117.934C115.937 164.995 114.32 166.612 114.32 168.609V206.941C114.32 208.938 115.937 210.556 117.934 210.556H227.87C229.867 210.556 231.485 208.938 231.485 206.941V168.609C231.485 166.612 229.867 164.995 227.87 164.995Z" fill="url(#paint12_linear_103_1942)"/>
<path opacity="0.83" d="M224.518 159.058H114.573C112.576 159.058 110.958 160.675 110.958 162.672V201.004C110.958 203.001 112.576 204.619 114.573 204.619H224.509C226.506 204.619 228.124 203.001 228.124 201.004V162.672C228.133 160.675 226.515 159.058 224.518 159.058Z" fill="white"/>
<path d="M202.758 198.782C212.116 198.782 219.701 191.196 219.701 181.838C219.701 172.481 212.116 164.895 202.758 164.895C193.401 164.895 185.815 172.481 185.815 181.838C185.815 191.196 193.401 198.782 202.758 198.782Z" fill="url(#paint13_linear_103_1942)"/>
<path d="M217.633 187.992C221.034 179.78 217.135 170.366 208.923 166.964C200.711 163.563 191.297 167.462 187.895 175.674C184.494 183.886 188.393 193.3 196.605 196.702C204.817 200.103 214.231 196.204 217.633 187.992Z" fill="white"/>
<mask id="mask1_103_1942" style="mask-type:luminance" maskUnits="userSpaceOnUse" x="186" y="165" width="33" height="33">
<path d="M217.633 187.992C221.034 179.78 217.135 170.366 208.923 166.964C200.711 163.563 191.297 167.462 187.895 175.674C184.494 183.886 188.393 193.3 196.605 196.702C204.817 200.103 214.231 196.204 217.633 187.992Z" fill="white"/>
</mask>
<g mask="url(#mask1_103_1942)">
<path d="M200.743 167.66C200.743 167.66 196.017 169.215 195.728 172.576C195.439 175.938 193.442 180.953 193.442 180.953C193.442 180.953 198.014 185.869 202.74 184.947C207.466 184.025 211.84 181.197 211.117 179.832C210.385 178.468 208.686 173.697 208.686 173.697L200.743 167.66Z" fill="url(#paint14_linear_103_1942)"/>
<path d="M197.906 186.302C195.421 187.043 192.529 195.158 192.529 195.158L183.33 189.89L181.532 191.625C181.532 191.625 190.324 202.351 192.927 201.619C195.529 200.887 198.502 193.558 198.502 193.558C198.502 193.558 202.939 184.802 197.906 186.302Z" fill="url(#paint15_linear_103_1942)"/>
<path d="M197.906 186.302C197.906 186.302 201.231 185.001 203.472 185.245C205.713 185.489 211.307 186.221 211.307 186.221C211.307 186.221 210.385 198.248 211.948 203.318C213.503 208.378 211.162 209.481 211.162 209.481C211.162 209.481 198.439 212.86 197.138 209.607C195.837 206.363 197.789 201.556 197.526 199.875C197.264 198.185 195.584 198.836 196.099 195.592C196.623 192.33 199.189 190.007 197.906 186.302Z" fill="url(#paint16_linear_103_1942)"/>
<path d="M209.617 186.411C207.267 187.513 210.909 198.086 210.909 198.086L197.047 203.688L198.99 206.417C198.99 206.417 204.502 203.408 206.969 202.297C209.427 201.185 215.165 195.122 215.165 195.122C215.165 195.122 214.361 184.179 209.617 186.411Z" fill="url(#paint17_linear_103_1942)"/>
<path d="M200.843 182.851L200.716 186.42C200.716 186.42 201.493 187.333 202.469 187.134C203.445 186.935 205.262 185.579 205.262 185.579L204.222 181.486L200.843 182.851Z" fill="#FFB7AE"/>
<path d="M197.147 172.594C197.147 172.594 196.948 179.344 197.535 180.582C198.123 181.811 199.415 184.025 201.882 183.962C204.349 183.899 206.554 181.82 206.689 180.266C206.689 180.266 208.632 179.751 208.244 178.387C207.855 177.022 206.816 177.347 206.816 177.347L205.975 172.802L197.147 172.594Z" fill="#FFB7AE"/>
<path d="M197.002 172.341C197.002 172.341 201.331 176.281 202.451 176.525L202.406 175.016C202.406 175.016 206.156 177.546 207.033 177.6L207.322 177.013C207.322 177.013 210.195 179.399 212.292 178.567C212.292 178.567 210.394 177.591 209.951 175.26C209.518 172.92 207.033 166.938 202.162 167.371C197.291 167.814 196.37 171.709 197.002 172.341Z" fill="url(#paint18_linear_103_1942)"/>
</g>
<path d="M175.957 171.401H153.547C151.73 171.401 150.257 172.874 150.257 174.691C150.257 176.507 151.73 177.98 153.547 177.98H175.957C177.773 177.98 179.246 176.507 179.246 174.691C179.246 172.874 177.773 171.401 175.957 171.401Z" fill="url(#paint19_linear_103_1942)"/>
<path d="M177.891 181.631H151.378V182.679H177.891V181.631Z" fill="url(#paint20_linear_103_1942)"/>
<path d="M177.891 185.182H151.378V186.23H177.891V185.182Z" fill="url(#paint21_linear_103_1942)"/>
<path d="M177.891 189.836H151.378V190.884H177.891V189.836Z" fill="url(#paint22_linear_103_1942)"/>
<path d="M130.956 191.345L121.522 181.92C121.043 181.576 120.582 181.115 120.203 180.591L120.121 180.474C119.407 179.453 119.037 178.242 119.037 176.986C119.037 173.597 121.793 170.841 125.182 170.841C126.438 170.841 127.648 171.221 128.67 171.926C129.736 172.667 130.531 173.715 130.965 174.908C131.39 173.715 132.185 172.667 133.26 171.926C134.281 171.212 135.492 170.841 136.748 170.841C140.137 170.841 142.893 173.597 142.893 176.986C142.893 178.242 142.513 179.453 141.808 180.474L141.718 180.6C141.339 181.116 140.887 181.576 140.363 181.956L130.956 191.345ZM125.173 171.564C122.182 171.564 119.751 173.995 119.751 176.986C119.751 178.097 120.085 179.155 120.709 180.058L120.781 180.158C121.124 180.628 121.522 181.034 121.992 181.369L130.956 190.324L139.875 181.405C140.381 181.034 140.778 180.628 141.113 180.167L141.176 180.085C141.817 179.164 142.152 178.097 142.152 176.986C142.152 173.995 139.721 171.564 136.73 171.564C135.619 171.564 134.561 171.898 133.658 172.522C132.194 173.534 131.317 175.206 131.317 176.986H130.594C130.594 175.206 129.718 173.534 128.254 172.522C127.35 171.889 126.284 171.564 125.173 171.564Z" fill="url(#paint23_linear_103_1942)"/>
<path opacity="0.23" d="M227.87 217.478H117.934C115.937 217.478 114.32 219.095 114.32 221.092V259.424C114.32 261.421 115.937 263.039 117.934 263.039H227.87C229.867 263.039 231.485 261.421 231.485 259.424V221.092C231.485 219.095 229.867 217.478 227.87 217.478Z" fill="url(#paint24_linear_103_1942)"/>
<path opacity="0.83" d="M224.518 211.532H114.573C112.576 211.532 110.958 213.149 110.958 215.146V253.478C110.958 255.475 112.576 257.093 114.573 257.093H224.509C226.506 257.093 228.124 255.475 228.124 253.478V215.146C228.133 213.158 226.515 211.532 224.518 211.532Z" fill="white"/>
<path d="M202.759 251.264C212.116 251.264 219.702 243.679 219.702 234.321C219.702 224.964 212.116 217.378 202.759 217.378C193.401 217.378 185.815 224.964 185.815 234.321C185.815 243.679 193.401 251.264 202.759 251.264Z" fill="url(#paint25_linear_103_1942)"/>
<path d="M217.635 240.475C221.037 232.263 217.137 222.849 208.926 219.447C200.714 216.046 191.3 219.945 187.898 228.157C184.497 236.368 188.396 245.783 196.608 249.184C204.82 252.586 214.234 248.686 217.635 240.475Z" fill="white"/>
<mask id="mask2_103_1942" style="mask-type:luminance" maskUnits="userSpaceOnUse" x="186" y="218" width="33" height="33">
<path d="M217.635 240.475C221.037 232.263 217.137 222.849 208.926 219.447C200.714 216.046 191.3 219.945 187.898 228.157C184.497 236.368 188.396 245.783 196.608 249.184C204.82 252.586 214.234 248.686 217.635 240.475Z" fill="white"/>
</mask>
<g mask="url(#mask2_103_1942)">
<path d="M200.744 220.143C200.744 220.143 196.017 221.697 195.728 225.059C195.439 228.42 193.442 233.436 193.442 233.436C193.442 233.436 198.015 238.351 202.741 237.43C207.467 236.508 211.84 233.68 211.117 232.315C210.385 230.951 208.686 226.179 208.686 226.179L200.744 220.143Z" fill="url(#paint26_linear_103_1942)"/>
<path d="M197.906 238.776C195.421 239.517 192.529 247.632 192.529 247.632L183.33 242.364L181.532 244.099C181.532 244.099 190.325 254.825 192.927 254.093C195.53 253.361 198.502 246.032 198.502 246.032C198.502 246.032 202.939 237.285 197.906 238.776Z" fill="#D4D4ED"/>
<path d="M197.906 238.776C197.906 238.776 201.232 237.475 203.473 237.719C205.714 237.963 211.307 238.695 211.307 238.695C211.307 238.695 210.385 250.722 211.949 255.792C213.503 260.852 211.163 261.954 211.163 261.954C211.163 261.954 198.439 265.334 197.138 262.081C195.837 258.837 197.789 254.029 197.527 252.349C197.265 250.659 195.584 251.309 196.099 248.065C196.623 244.812 199.189 242.49 197.906 238.776Z" fill="#D4D4ED"/>
<path d="M209.617 238.894C207.268 239.996 210.909 250.569 210.909 250.569L197.048 256.171L198.99 258.9C198.99 258.9 204.503 255.891 206.969 254.779C209.427 253.668 215.165 247.605 215.165 247.605C215.165 247.605 214.361 236.662 209.617 238.894Z" fill="#D4D4ED"/>
<path d="M200.843 235.333L200.716 238.903C200.716 238.903 201.493 239.815 202.469 239.617C203.445 239.418 205.262 238.062 205.262 238.062L204.222 233.969L200.843 235.333Z" fill="#FFB7AE"/>
<path d="M197.147 225.077C197.147 225.077 196.948 231.827 197.536 233.065C198.123 234.294 199.415 236.508 201.882 236.445C204.349 236.382 206.554 234.303 206.69 232.749C206.69 232.749 208.632 232.234 208.244 230.869C207.855 229.505 206.816 229.83 206.816 229.83L205.976 225.285L197.147 225.077Z" fill="#FFB7AE"/>
<path d="M197.002 224.815C197.002 224.815 201.331 228.755 202.451 228.999L202.406 227.49C202.406 227.49 206.156 230.02 207.033 230.074L207.322 229.487C207.322 229.487 210.196 231.872 212.292 231.041C212.292 231.041 210.394 230.065 209.952 227.734C209.518 225.393 207.033 219.411 202.162 219.845C197.292 220.288 196.37 224.182 197.002 224.815Z" fill="url(#paint27_linear_103_1942)"/>
</g>
<path d="M175.957 223.884H153.547C151.73 223.884 150.257 225.357 150.257 227.174C150.257 228.99 151.73 230.463 153.547 230.463H175.957C177.773 230.463 179.246 228.99 179.246 227.174C179.246 225.357 177.773 223.884 175.957 223.884Z" fill="url(#paint28_linear_103_1942)"/>
<path d="M177.891 234.114H151.378V235.162H177.891V234.114Z" fill="url(#paint29_linear_103_1942)"/>
<path d="M177.891 237.665H151.378V238.713H177.891V237.665Z" fill="url(#paint30_linear_103_1942)"/>
<path d="M177.891 242.318H151.378V243.367H177.891V242.318Z" fill="url(#paint31_linear_103_1942)"/>
<path d="M130.956 243.819L121.522 234.394C121.043 234.05 120.582 233.589 120.203 233.065L120.121 232.948C119.407 231.927 119.037 230.716 119.037 229.46C119.037 226.071 121.793 223.315 125.182 223.315C126.438 223.315 127.648 223.695 128.67 224.399C129.736 225.14 130.531 226.189 130.965 227.381C131.39 226.189 132.185 225.14 133.26 224.399C134.281 223.686 135.492 223.315 136.748 223.315C140.137 223.315 142.893 226.071 142.893 229.46C142.893 230.716 142.513 231.927 141.808 232.948L141.718 233.074C141.339 233.589 140.887 234.05 140.363 234.43L130.956 243.819ZM125.173 224.047C122.182 224.047 119.751 226.478 119.751 229.469C119.751 230.58 120.085 231.638 120.709 232.541L120.781 232.641C121.124 233.111 121.522 233.517 121.992 233.851L130.956 242.807L139.875 233.888C140.381 233.517 140.778 233.111 141.113 232.65L141.176 232.568C141.817 231.647 142.152 230.58 142.152 229.469C142.152 226.478 139.721 224.047 136.73 224.047C135.619 224.047 134.561 224.381 133.658 225.005C132.194 226.017 131.317 227.689 131.317 229.469H130.594C130.594 227.689 129.718 226.017 128.254 225.014C127.35 224.372 126.284 224.047 125.173 224.047Z" fill="url(#paint32_linear_103_1942)"/>
<path d="M77.1804 129.617L79.5028 131.443L83.045 127.846C83.045 127.846 90.0482 128.379 91.241 126.129C92.4338 123.879 95.6778 119.153 93.003 119.921C90.3192 120.698 88.6295 123.174 86.7499 122.723C84.8703 122.271 84.6083 121.602 84.6083 121.602C84.6083 121.602 88.0602 117.662 85.4487 118.322C82.8372 118.991 81.8793 120.717 80.813 121.268C79.7467 121.819 79.3491 125.723 78.3913 127.087C77.4334 128.434 77.1804 129.617 77.1804 129.617Z" fill="#FFB7AE"/>
<path d="M79.1776 126.22C79.1776 126.22 56.2705 142.783 57.0115 148.106C57.7525 153.428 64.2586 157.838 69.2377 151.006C76.8191 140.587 83.253 127.873 83.253 127.873L79.1776 126.22Z" fill="#FFB7AE"/>
<path d="M17.9563 298.841C19.9081 313.425 17.4503 304.38 18.9503 314.148C19.0407 314.157 18.8238 315.504 21.2365 315.188C23.7124 314.862 23.7215 315.901 23.7215 315.901C23.7215 315.901 25.6733 306.476 26.2607 297.079C22.2214 297.503 21.9865 298.362 17.9563 298.841Z" fill="#FFB7AE"/>
<path d="M33.3452 316.679C28.9806 315.901 19.3659 312.513 19.3659 312.513C19.3659 312.513 17.5496 312.025 16.8629 313.76C16.4382 314.835 17.1069 317.013 17.1972 319.2C17.2514 320.483 18.3629 321.106 19.6099 321.414C25.7275 322.923 29.5951 322.462 34.3211 321.17C35.4506 320.862 37.7007 317.465 33.3452 316.679Z" fill="url(#paint33_linear_103_1942)"/>
<path d="M15.9956 206.769C15.9956 206.769 15.5347 221.201 18.5438 227.372L19.0137 256.93L16.6191 310.922L26.3331 310.281L34.0502 255.936C34.0502 255.936 39.49 224.092 38.6587 206.833L15.9956 206.769Z" fill="url(#paint34_linear_103_1942)"/>
<path d="M7.91682 299.772C7.88971 314.483 6.66981 305.193 6.85053 315.07C6.9409 315.088 6.5433 316.398 8.97407 316.407C11.4681 316.417 11.7573 315.314 11.7573 315.314C11.7573 315.314 14.5405 308.374 16.3839 299.139C12.3266 299.022 11.9741 299.844 7.91682 299.772Z" fill="#FFB7AE"/>
<path d="M19.872 317.185C15.5074 316.407 6.52531 312.088 6.52531 312.088C6.52531 312.088 4.70901 311.6 4.03128 313.335C3.60658 314.41 3.64272 317.51 3.73308 319.697C3.7873 320.98 4.89877 321.603 6.14579 321.911C12.2634 323.42 18.0557 323.871 22.7817 322.588C23.9022 322.281 24.2275 317.962 19.872 317.185Z" fill="url(#paint35_linear_103_1942)"/>
<path d="M11.2602 206.11C11.2602 206.11 9.85057 220.478 12.435 226.839L10.944 256.361L4.97998 310.073H14.7212L26.0256 256.361C26.0256 256.361 33.5619 224.951 33.8782 207.673L11.2602 206.11Z" fill="url(#paint36_linear_103_1942)"/>
<path d="M15.7876 137.126L8.67604 149.344C8.67604 149.344 6.31755 175.73 8.20615 189.393C10.0947 203.056 9.61582 208.712 9.61582 208.712C9.61582 208.712 16.6822 215.309 26.812 212.715C36.9417 210.122 39.3002 208.712 39.3002 208.712L37.8905 179.968C37.8905 179.968 31.7819 149.217 28.2487 144.735C24.7065 140.262 15.7876 137.126 15.7876 137.126Z" fill="url(#paint37_linear_103_1942)"/>
<path d="M21.5887 160.332C33.5167 165.329 66.3095 159.392 66.7523 153.699C67.0325 150.112 67.3307 149.335 57.4268 147.274C47.523 145.214 30.2094 147.862 22.8899 148.738C18.4531 149.28 8.03421 154.648 21.5887 160.332Z" fill="#FFB7AE"/>
<path opacity="0.25" d="M33.8062 160.54L35.6677 169.928C35.6677 169.928 16.8812 165.23 17.577 159.988C18.2728 154.738 33.8062 160.54 33.8062 160.54Z" fill="url(#paint38_linear_103_1942)"/>
<path d="M40.8544 145.413C40.8544 145.413 42.1014 159.916 40.8544 162.401C40.8544 162.401 20.3419 165.925 14.9562 158.669C9.57056 151.422 20.4684 146.985 24.2817 146.235C28.3481 145.44 40.8544 145.413 40.8544 145.413Z" fill="url(#paint39_linear_103_1942)"/>
<path d="M192.43 290.853H148.441C143.887 290.853 140.191 287.157 140.191 282.602C140.191 278.048 143.887 274.352 148.441 274.352H192.43C196.985 274.352 200.68 278.048 200.68 282.602C200.671 287.157 196.985 290.853 192.43 290.853Z" fill="url(#paint40_linear_103_1942)"/>
<path d="M158.544 285.973L158.526 282.404L156.791 285.313H155.941L154.215 282.503V285.973H152.453V279.232H154.026L156.393 283.118L158.707 279.232H160.279L160.297 285.964H158.544V285.973Z" fill="white"/>
<path d="M166.162 284.663H163.315L162.782 285.973H160.839L163.812 279.241H165.692L168.674 285.973H166.695L166.162 284.663ZM165.601 283.253L164.734 281.093L163.866 283.253H165.601Z" fill="white"/>
<path d="M170.309 280.741H168.24V279.232H174.276V280.741H172.216V285.964H170.309V280.741Z" fill="white"/>
<path d="M176.345 285.657C175.785 285.359 175.342 284.943 175.026 284.41C174.71 283.877 174.547 283.271 174.547 282.602C174.547 281.925 174.71 281.328 175.026 280.795C175.342 280.262 175.785 279.846 176.345 279.548C176.906 279.25 177.538 279.096 178.243 279.096C178.857 279.096 179.418 279.205 179.906 279.422C180.403 279.639 180.809 279.955 181.135 280.361L179.924 281.455C179.49 280.931 178.957 280.669 178.333 280.669C177.972 280.669 177.638 280.75 177.357 280.913C177.068 281.075 176.851 281.301 176.698 281.59C176.544 281.88 176.463 282.214 176.463 282.593C176.463 282.973 176.544 283.307 176.698 283.596C176.851 283.886 177.077 284.112 177.357 284.274C177.647 284.437 177.972 284.518 178.333 284.518C178.957 284.518 179.481 284.256 179.924 283.732L181.135 284.825C180.809 285.232 180.394 285.548 179.906 285.765C179.409 285.982 178.857 286.09 178.243 286.09C177.538 286.109 176.906 285.955 176.345 285.657Z" fill="white"/>
<path d="M188.4 279.232V285.964H186.493V283.334H183.891V285.964H181.984V279.232H183.891V281.762H186.493V279.232H188.4Z" fill="white"/>
<path d="M280.905 140.524C280.905 141.934 280.67 143.289 280.227 144.554C279.866 145.603 279.36 146.588 278.736 147.5C278.682 147.582 278.637 147.663 278.574 147.744C277.815 148.783 276.902 149.705 275.854 150.455L256.353 169.946L236.871 150.464C235.832 149.705 234.91 148.783 234.151 147.735C234.097 147.654 234.043 147.582 233.988 147.5C233.256 146.443 232.687 145.268 232.308 144.003C231.991 142.901 231.811 141.735 231.811 140.524C231.811 133.738 237.314 128.253 244.091 128.244C246.684 128.244 249.088 129.048 251.067 130.422C254.275 132.635 256.371 136.34 256.371 140.524C256.371 136.34 258.468 132.635 261.676 130.422C263.655 129.048 266.049 128.244 268.643 128.253C275.411 128.244 280.905 133.747 280.905 140.524Z" fill="#CC7CA3"/>
<path d="M280.227 144.545C279.866 145.593 279.36 146.578 278.736 147.491C278.682 147.572 278.637 147.654 278.574 147.735C277.815 148.774 276.902 149.696 275.854 150.446L256.353 169.937L236.871 150.455C235.832 149.696 234.91 148.774 234.151 147.726C234.097 147.645 234.043 147.572 233.988 147.491C233.256 146.434 232.687 145.259 232.308 143.994C233.988 139.196 238.543 135.744 243.91 135.753C246.504 135.753 248.907 136.557 250.886 137.931C254.085 140.145 256.191 143.849 256.182 148.033C256.191 143.84 258.287 140.145 261.486 137.931C263.474 136.557 265.869 135.753 268.453 135.753C274.019 135.753 278.718 139.467 280.227 144.545Z" fill="#D787B1"/>
<path opacity="0.33" d="M244.028 137.37C243.865 139.223 242.483 140.623 240.946 140.479C239.41 140.343 238.299 138.726 238.461 136.873C238.624 135.021 240.007 133.62 241.543 133.765C243.079 133.9 244.19 135.518 244.028 137.37Z" fill="white"/>
<path opacity="0.33" d="M238.344 142.557C238.281 143.307 237.72 143.868 237.106 143.813C236.482 143.759 236.04 143.109 236.103 142.358C236.166 141.608 236.726 141.048 237.341 141.102C237.964 141.166 238.416 141.816 238.344 142.557Z" fill="white"/>
<path d="M121.621 44.6035C121.983 45.968 122.1 47.3415 121.992 48.6698C121.92 49.7813 121.676 50.8657 121.296 51.9049C121.269 52.0042 121.242 52.0856 121.197 52.1759C120.727 53.3778 120.085 54.4983 119.263 55.4923L105.401 79.3301L81.5814 65.4684C80.3796 64.9985 79.2591 64.3479 78.247 63.5256C78.1747 63.4623 78.1024 63.4081 78.0302 63.3448C77.0542 62.5135 76.1958 61.5195 75.509 60.39C74.9217 59.405 74.4518 58.3207 74.1445 57.155C72.4096 50.5946 76.3223 43.8806 82.8736 42.1456C85.3857 41.486 87.9069 41.6486 90.175 42.4619C93.8437 43.7902 96.8167 46.8264 97.892 50.8747C96.8167 46.8264 97.9011 42.7059 100.44 39.751C102.004 37.9166 104.118 36.525 106.621 35.8744C113.172 34.1394 119.896 38.0521 121.621 44.6035Z" fill="#CC7CA3"/>
<mask id="mask3_103_1942" style="mask-type:luminance" maskUnits="userSpaceOnUse" x="73" y="35" width="50" height="45">
<path d="M106.621 35.8743C104.118 36.534 102.004 37.9166 100.44 39.7509C97.9011 42.7058 96.8167 46.8264 97.892 50.8747C96.8167 46.8264 93.8437 43.7811 90.175 42.4618C87.9069 41.6395 85.3857 41.4859 82.8736 42.1456C76.3223 43.8805 72.4096 50.5945 74.1445 57.1549C74.4518 58.3206 74.9217 59.405 75.509 60.3899C76.1958 61.5104 77.0452 62.5135 78.0302 63.3448C78.1024 63.4081 78.1747 63.4623 78.247 63.5255C79.2501 64.3478 80.3796 64.9985 81.5814 65.4684L105.401 79.3301L119.272 55.5013C120.094 54.5073 120.736 53.3777 121.206 52.1849C121.242 52.0946 121.269 52.0042 121.305 51.9138C121.685 50.8747 121.92 49.7903 122.001 48.6788C122.109 47.3415 121.992 45.977 121.63 44.6125C119.896 38.0521 113.172 34.1394 106.621 35.8743Z" fill="white"/>
</mask>
<g mask="url(#mask3_103_1942)">
<path d="M75.5452 47.8024C75.8796 48.8235 75.3284 49.9259 74.3073 50.2693C73.2862 50.6036 72.1837 50.0524 71.8404 49.0313C71.506 48.0102 72.0572 46.9078 73.0783 46.5644C74.1085 46.221 75.2109 46.7813 75.5452 47.8024Z" fill="white"/>
<path d="M82.1959 45.6066C82.5302 46.6277 81.979 47.7301 80.9579 48.0735C79.9368 48.4078 78.8344 47.8566 78.491 46.8355C78.1566 45.8144 78.7079 44.712 79.729 44.3686C80.7501 44.0252 81.8525 44.5855 82.1959 45.6066Z" fill="white"/>
<path d="M88.8375 43.4196C89.1718 44.4407 88.6206 45.5431 87.5995 45.8865C86.5784 46.2208 85.476 45.6696 85.1326 44.6485C84.7982 43.6274 85.3495 42.525 86.3706 42.1816C87.4007 41.8382 88.5031 42.3894 88.8375 43.4196Z" fill="white"/>
<path d="M95.4881 41.2239C95.8225 42.245 95.2712 43.3474 94.2501 43.6908C93.229 44.0251 92.1266 43.4739 91.7832 42.4528C91.4489 41.4317 92.0001 40.3293 93.0212 39.9859C94.0423 39.6425 95.1447 40.2028 95.4881 41.2239Z" fill="white"/>
<path d="M102.13 39.0281C102.464 40.0492 101.913 41.1516 100.892 41.495C99.8709 41.8293 98.7684 41.2781 98.4251 40.257C98.0907 39.2359 98.6419 38.1335 99.6631 37.7901C100.693 37.4467 101.796 38.007 102.13 39.0281Z" fill="white"/>
<path d="M108.781 36.8322C109.115 37.8533 108.564 38.9558 107.543 39.2992C106.522 39.6335 105.419 39.0823 105.076 38.0612C104.742 37.0401 105.293 35.9376 106.314 35.5943C107.335 35.2599 108.437 35.8111 108.781 36.8322Z" fill="white"/>
<path d="M115.422 34.6454C115.757 35.6665 115.206 36.7689 114.184 37.1123C113.163 37.4467 112.061 36.8955 111.718 35.8743C111.383 34.8532 111.934 33.7508 112.956 33.4074C113.986 33.064 115.088 33.6153 115.422 34.6454Z" fill="white"/>
<path d="M75.1295 55.3929C75.4638 56.4141 74.9126 57.5165 73.8915 57.8599C72.8704 58.1942 71.768 57.643 71.4246 56.6219C71.0902 55.6008 71.6414 54.4983 72.6626 54.155C73.6837 53.8116 74.7951 54.3718 75.1295 55.3929Z" fill="white"/>
<path d="M81.7711 53.197C82.1054 54.2181 81.5542 55.3206 80.5331 55.6639C79.512 55.9983 78.4096 55.4471 78.0662 54.426C77.7318 53.4049 78.283 52.3024 79.3042 51.959C80.3343 51.6157 81.4367 52.1759 81.7711 53.197Z" fill="white"/>
<path d="M88.422 51.0103C88.7563 52.0314 88.2051 53.1338 87.184 53.4772C86.1629 53.8115 85.0604 53.2603 84.7171 52.2392C84.3827 51.2181 84.9339 50.1157 85.955 49.7723C86.9761 49.4289 88.0876 49.9801 88.422 51.0103Z" fill="white"/>
<path d="M95.0636 48.8145C95.3979 49.8356 94.8467 50.938 93.8256 51.2814C92.8045 51.6157 91.702 51.0645 91.3587 50.0434C91.0243 49.0223 91.5755 47.9199 92.5966 47.5765C93.6268 47.2331 94.7292 47.7933 95.0636 48.8145Z" fill="white"/>
<path d="M101.714 46.6185C102.049 47.6396 101.498 48.7421 100.476 49.0855C99.4554 49.4198 98.3529 48.8686 98.0095 47.8475C97.6752 46.8264 98.2264 45.7239 99.2475 45.3806C100.269 45.0372 101.38 45.5974 101.714 46.6185Z" fill="white"/>
<path d="M108.356 44.4228C108.691 45.4439 108.139 46.5464 107.118 46.8897C106.097 47.2241 104.995 46.6729 104.651 45.6518C104.317 44.6306 104.868 43.5282 105.889 43.1848C106.92 42.8505 108.022 43.4017 108.356 44.4228Z" fill="white"/>
<path d="M115.007 42.236C115.341 43.2571 114.79 44.3595 113.769 44.7029C112.748 45.0372 111.645 44.486 111.302 43.4649C110.967 42.4438 111.519 41.3414 112.54 40.998C113.561 40.6546 114.672 41.2058 115.007 42.236Z" fill="white"/>
<path d="M121.649 40.04C121.983 41.0611 121.432 42.1636 120.411 42.507C119.389 42.8413 118.287 42.2901 117.944 41.269C117.609 40.2479 118.16 39.1454 119.182 38.8021C120.212 38.4587 121.314 39.0189 121.649 40.04Z" fill="white"/>
<path d="M73.7288 64.6281C74.0632 65.6492 73.512 66.7516 72.4909 67.095C71.4698 67.4293 70.3673 66.8781 70.0239 65.857C69.6896 64.8359 70.2408 63.7335 71.2619 63.3901C72.283 63.0467 73.3945 63.6069 73.7288 64.6281Z" fill="white"/>
<path d="M80.3795 62.4322C80.7138 63.4533 80.1626 64.5557 79.1415 64.8991C78.1204 65.2335 77.018 64.6823 76.6746 63.6612C76.3402 62.64 76.8915 61.5376 77.9126 61.1942C78.9337 60.8599 80.0361 61.4111 80.3795 62.4322Z" fill="white"/>
<path d="M87.0213 60.2454C87.3557 61.2665 86.8045 62.3689 85.7833 62.7123C84.7622 63.0466 83.6598 62.4954 83.3164 61.4743C82.9821 60.4532 83.5333 59.3508 84.5544 59.0074C85.5845 58.664 86.687 59.2152 87.0213 60.2454Z" fill="white"/>
<path d="M93.6722 58.0496C94.0065 59.0707 93.4553 60.1731 92.4342 60.5165C91.4131 60.8508 90.3107 60.2996 89.9673 59.2785C89.633 58.2574 90.1842 57.155 91.2053 56.8116C92.2264 56.4682 93.3288 57.0285 93.6722 58.0496Z" fill="white"/>
<path d="M100.314 55.8538C100.648 56.8749 100.097 57.9773 99.0758 58.3207C98.0547 58.6641 96.9523 58.1038 96.6089 57.0827C96.2746 56.0616 96.8258 54.9592 97.8469 54.6158C98.877 54.2724 99.9795 54.8327 100.314 55.8538Z" fill="white"/>
<path d="M106.964 53.6579C107.299 54.679 106.748 55.7815 105.726 56.1248C104.705 56.4592 103.603 55.908 103.26 54.8869C102.925 53.8658 103.476 52.7633 104.498 52.4199C105.519 52.0856 106.621 52.6368 106.964 53.6579Z" fill="white"/>
<path d="M113.606 51.4711C113.94 52.4922 113.389 53.5946 112.368 53.938C111.347 54.2724 110.245 53.7211 109.901 52.7C109.567 51.6789 110.118 50.5765 111.139 50.2331C112.169 49.8897 113.272 50.4409 113.606 51.4711Z" fill="white"/>
<path d="M120.257 49.2753C120.591 50.2964 120.04 51.3988 119.019 51.7422C117.998 52.0765 116.895 51.5253 116.552 50.5042C116.218 49.4831 116.769 48.3807 117.79 48.0373C118.811 47.6939 119.914 48.2542 120.257 49.2753Z" fill="white"/>
<path d="M79.9549 70.0228C80.2893 71.0439 79.738 72.1463 78.7169 72.4897C77.6958 72.824 76.5934 72.2728 76.25 71.2517C75.9157 70.2306 76.4669 69.1282 77.488 68.7848C78.5181 68.4505 79.6206 69.0017 79.9549 70.0228Z" fill="white"/>
<path d="M86.6056 67.836C86.9399 68.8571 86.3887 69.9595 85.3676 70.3029C84.3465 70.6463 83.244 70.086 82.9007 69.0649C82.5663 68.0438 83.1175 66.9414 84.1386 66.598C85.1597 66.2546 86.2622 66.8058 86.6056 67.836Z" fill="white"/>
<path d="M93.2471 65.64C93.5815 66.6611 93.0303 67.7636 92.0092 68.1069C90.9881 68.4413 89.8856 67.8901 89.5423 66.869C89.2079 65.8478 89.7591 64.7454 90.7802 64.402C91.8104 64.0587 92.9128 64.6189 93.2471 65.64Z" fill="white"/>
<path d="M99.898 63.4443C100.232 64.4654 99.6812 65.5679 98.6601 65.9113C97.6389 66.2456 96.5365 65.6944 96.1931 64.6733C95.8588 63.6522 96.41 62.5497 97.4311 62.2064C98.4522 61.863 99.5546 62.4232 99.898 63.4443Z" fill="white"/>
<path d="M106.54 61.2484C106.874 62.2695 106.323 63.3719 105.302 63.7153C104.281 64.0496 103.178 63.4984 102.835 62.4773C102.5 61.4562 103.052 60.3538 104.073 60.0104C105.103 59.6761 106.205 60.2273 106.54 61.2484Z" fill="white"/>
<path d="M113.191 59.0615C113.525 60.0826 112.974 61.1851 111.953 61.5285C110.931 61.8628 109.829 61.3116 109.486 60.2905C109.151 59.2694 109.702 58.1669 110.724 57.8236C111.745 57.4802 112.847 58.0314 113.191 59.0615Z" fill="white"/>
<path d="M119.832 56.8658C120.167 57.887 119.615 58.9894 118.594 59.3328C117.573 59.6671 116.471 59.1159 116.127 58.0948C115.793 57.0737 116.344 55.9712 117.365 55.6279C118.396 55.2845 119.498 55.8447 119.832 56.8658Z" fill="white"/>
<path d="M78.554 79.2579C78.8884 80.279 78.3372 81.3814 77.3161 81.7248C76.295 82.0592 75.1925 81.5079 74.8491 80.4868C74.5148 79.4657 75.066 78.3633 76.0871 78.0199C77.1173 77.6856 78.2197 78.2368 78.554 79.2579Z" fill="white"/>
<path d="M85.2049 77.0711C85.5393 78.0922 84.988 79.1946 83.9669 79.538C82.9458 79.8723 81.8434 79.3211 81.5 78.3C81.1657 77.2789 81.7169 76.1765 82.738 75.8331C83.7591 75.4897 84.8706 76.0409 85.2049 77.0711Z" fill="white"/>
<path d="M91.8468 74.8751C92.1811 75.8962 91.6299 76.9987 90.6088 77.342C89.5877 77.6764 88.4852 77.1252 88.1419 76.1041C87.8075 75.083 88.3587 73.9805 89.3798 73.6371C90.41 73.2938 91.5124 73.854 91.8468 74.8751Z" fill="white"/>
<path d="M98.4974 72.6794C98.8317 73.7005 98.2805 74.803 97.2594 75.1464C96.2383 75.4807 95.1359 74.9295 94.7925 73.9084C94.4582 72.8873 95.0094 71.7848 96.0305 71.4415C97.0516 71.0981 98.163 71.6583 98.4974 72.6794Z" fill="white"/>
<path d="M105.139 70.4836C105.474 71.5047 104.922 72.6071 103.901 72.9505C102.88 73.2849 101.778 72.7336 101.434 71.7125C101.1 70.6914 101.651 69.589 102.672 69.2456C103.702 68.9113 104.805 69.4625 105.139 70.4836Z" fill="white"/>
<path d="M111.79 68.2968C112.124 69.3179 111.573 70.4203 110.552 70.7637C109.531 71.098 108.428 70.5468 108.085 69.5257C107.751 68.5046 108.302 67.4022 109.323 67.0588C110.344 66.7154 111.456 67.2666 111.79 68.2968Z" fill="white"/>
<path d="M118.441 66.101C118.775 67.1221 118.224 68.2245 117.203 68.5679C116.182 68.9022 115.079 68.351 114.736 67.3299C114.402 66.3088 114.953 65.2064 115.974 64.863C116.995 64.5196 118.097 65.0798 118.441 66.101Z" fill="white"/>
<path d="M125.082 63.905C125.416 64.9261 124.865 66.0286 123.844 66.372C122.823 66.7063 121.721 66.1551 121.377 65.134C121.043 64.1129 121.594 63.0104 122.615 62.6671C123.636 62.3237 124.748 62.8839 125.082 63.905Z" fill="white"/>
<path d="M98.0816 80.2699C98.416 81.291 97.8647 82.3934 96.8436 82.7368C95.8225 83.0802 94.7201 82.5199 94.3767 81.4988C94.0424 80.4777 94.5936 79.3753 95.6147 79.0319C96.6358 78.6885 97.7382 79.2488 98.0816 80.2699Z" fill="white"/>
<path d="M104.723 78.0741C105.058 79.0952 104.507 80.1976 103.485 80.541C102.464 80.8753 101.362 80.3241 101.019 79.303C100.684 78.2819 101.235 77.1795 102.257 76.8361C103.287 76.5017 104.389 77.053 104.723 78.0741Z" fill="white"/>
<path d="M111.374 75.8874C111.708 76.9085 111.157 78.0109 110.136 78.3543C109.115 78.6886 108.013 78.1374 107.669 77.1163C107.335 76.0952 107.886 74.9928 108.907 74.6494C109.928 74.306 111.031 74.8572 111.374 75.8874Z" fill="white"/>
<path d="M118.016 73.6915C118.35 74.7126 117.799 75.8151 116.778 76.1584C115.757 76.4928 114.654 75.9416 114.311 74.9205C113.977 73.8994 114.528 72.7969 115.549 72.4536C116.579 72.1102 117.682 72.6704 118.016 73.6915Z" fill="white"/>
<path d="M124.667 71.4956C125.001 72.5167 124.45 73.6191 123.429 73.9625C122.408 74.2969 121.305 73.7457 120.962 72.7246C120.627 71.7034 121.179 70.601 122.2 70.2576C123.221 69.9142 124.323 70.4745 124.667 71.4956Z" fill="white"/>
</g>
<g opacity="0.3">
<path d="M273.784 55.3205C273.495 56.7121 273.125 58.0947 273.866 59.4321C275.456 62.3147 276.161 63.8418 274.254 67.4563C273.848 68.2244 273.215 69.4895 273.233 70.3841C273.332 74.1161 274.254 77.3873 273.351 81.2097C272.971 82.8091 273.567 83.7669 274.616 84.8242C275.076 85.2941 275.836 84.6073 275.375 84.1374C273.378 82.1223 275.239 78.7066 275.61 76.4385C276.143 73.1583 273.902 70.3118 275.736 66.8148C277.905 62.6942 273.884 59.8026 274.76 55.6368C274.887 55.0043 273.92 54.679 273.784 55.3205Z" fill="#054779"/>
</g>
<path d="M271.164 55.4741L274.353 50.5312L277.037 55.7723L271.164 55.4741Z" fill="#B8B8E0"/>
<path d="M271.299 12.5605C271.29 12.8677 271.281 13.184 271.272 13.5003C270.685 24.8951 263.637 33.8863 255.269 34.3019C254.853 34.329 254.438 34.329 254.022 34.311C245.094 33.8592 238.371 23.8017 238.976 11.8557C239.058 10.1568 239.293 8.59356 239.645 7.15678C239.772 6.64171 239.916 6.14471 240.07 5.65675C241.082 2.57536 243.748 0.234945 246.983 0.0180727C247.154 0.00903634 247.317 0 247.498 0C251.483 0 254.781 2.95488 255.305 6.80436C255.829 2.95488 259.127 0 263.112 0C263.284 0 263.465 0.00903634 263.637 0.027109C266.7 0.225908 269.275 2.40367 270.269 5.31337C270.567 6.19893 270.811 7.14774 270.983 8.15981C271.218 9.5243 271.326 10.9882 271.299 12.5605Z" fill="#CC7CA3"/>
<g opacity="0.3">
<path d="M253.633 36.2538C253.38 37.4375 253.073 38.6123 253.696 39.7599C255.052 42.2178 255.648 43.519 254.031 46.6004C253.687 47.26 253.145 48.3354 253.163 49.1034C253.245 52.2842 254.04 55.0765 253.263 58.3386C252.937 59.7031 253.443 60.5163 254.338 61.42C254.727 61.8176 255.377 61.2392 254.98 60.8326C253.272 59.1067 254.862 56.197 255.178 54.2722C255.639 51.48 253.714 49.0492 255.287 46.0672C257.139 42.5521 253.705 40.0852 254.455 36.5339C254.573 35.9827 253.751 35.7116 253.633 36.2538Z" fill="#054779"/>
</g>
<path d="M251.401 36.3804L254.121 32.1694L256.408 36.6424L251.401 36.3804Z" fill="#CC7CA3"/>
<g opacity="0.5">
<path d="M271.299 12.5605C271.29 12.8677 271.281 13.184 271.272 13.5003C270.685 24.8951 263.636 33.8862 255.269 34.3019C254.808 31.6995 254.636 28.9434 254.781 26.106C254.889 23.9282 255.178 21.9131 255.639 20.0787C255.802 19.4191 255.983 18.7685 256.2 18.154C257.501 14.187 260.917 11.1779 265.082 10.9159C265.299 10.8978 265.516 10.8978 265.733 10.8978C267.775 10.8888 269.691 11.5032 271.299 12.5605Z" fill="#BF6194"/>
</g>
<path d="M294.459 28.6451C293.736 42.6605 284.682 53.5764 274.236 53.0432C263.772 52.5101 255.883 40.7177 256.597 26.7114C256.697 24.7143 256.968 22.889 257.383 21.2082C257.528 20.6028 257.7 20.0154 257.889 19.4461C259.082 15.8316 262.2 13.0846 265.995 12.8406C266.194 12.8315 266.393 12.8225 266.591 12.8225C271.263 12.8225 275.131 16.2925 275.754 20.7926C276.369 16.2925 280.236 12.8225 284.908 12.8225C285.116 12.8225 285.324 12.8315 285.531 12.8406C289.128 13.0755 292.146 15.6328 293.312 19.0395C293.664 20.0787 293.944 21.1992 294.152 22.383C294.459 24.2896 294.577 26.368 294.459 28.6451Z" fill="url(#paint41_linear_103_1942)"/>
<defs>
<linearGradient id="paint0_linear_103_1942" x1="17.8698" y1="142.891" x2="9.30541" y2="168.714" gradientUnits="userSpaceOnUse">
<stop stop-color="white"/>
<stop offset="0.3068" stop-color="#F5F9FF"/>
<stop offset="0.8325" stop-color="#D9E7FF"/>
<stop offset="1" stop-color="#CFE1FF"/>
</linearGradient>
<linearGradient id="paint1_linear_103_1942" x1="93.5568" y1="181.548" x2="247.439" y2="181.548" gradientUnits="userSpaceOnUse">
<stop stop-color="#596A85"/>
<stop offset="0.3908" stop-color="#4F6282"/>
<stop offset="1" stop-color="#36507A"/>
</linearGradient>
<linearGradient id="paint2_linear_103_1942" x1="80.967" y1="343.813" x2="285.444" y2="-26.801" gradientUnits="userSpaceOnUse">
<stop stop-color="#7A76ED"/>
<stop offset="0.144" stop-color="#908DED"/>
<stop offset="0.3718" stop-color="#AEACEC"/>
<stop offset="0.5944" stop-color="#C3C2EC"/>
<stop offset="0.8073" stop-color="#D0CFEC"/>
<stop offset="1" stop-color="#D4D4EC"/>
</linearGradient>
<linearGradient id="paint3_linear_103_1942" x1="230.705" y1="168.933" x2="80.7186" y2="92.6969" gradientUnits="userSpaceOnUse">
<stop stop-color="#302424" stop-opacity="0.15"/>
<stop offset="0.0507" stop-color="#3F3434" stop-opacity="0.1931"/>
<stop offset="0.2297" stop-color="#716969" stop-opacity="0.3453"/>
<stop offset="0.4052" stop-color="#9A9595" stop-opacity="0.4944"/>
<stop offset="0.5734" stop-color="#BAB7B7" stop-opacity="0.6374"/>
<stop offset="0.7325" stop-color="#D0CFCF" stop-opacity="0.7726"/>
<stop offset="0.8787" stop-color="#DEDEDE" stop-opacity="0.8969"/>
<stop offset="1" stop-color="#E3E3E3"/>
</linearGradient>
<linearGradient id="paint4_linear_103_1942" x1="7.81732" y1="116.496" x2="31.7871" y2="116.496" gradientUnits="userSpaceOnUse">
<stop stop-color="#596A85"/>
<stop offset="0.3908" stop-color="#4F6282"/>
<stop offset="1" stop-color="#36507A"/>
</linearGradient>
<linearGradient id="paint5_linear_103_1942" x1="162.814" y1="118.556" x2="208.107" y2="118.556" gradientUnits="userSpaceOnUse">
<stop stop-color="#596A85"/>
<stop offset="0.3908" stop-color="#4F6282"/>
<stop offset="1" stop-color="#36507A"/>
</linearGradient>
<linearGradient id="paint6_linear_103_1942" x1="174.177" y1="111.239" x2="197.904" y2="111.239" gradientUnits="userSpaceOnUse">
<stop stop-color="#596A85"/>
<stop offset="0.3908" stop-color="#4F6282"/>
<stop offset="1" stop-color="#36507A"/>
</linearGradient>
<linearGradient id="paint7_linear_103_1942" x1="172.722" y1="106.805" x2="193.389" y2="106.805" gradientUnits="userSpaceOnUse">
<stop stop-color="#596A85"/>
<stop offset="0.3908" stop-color="#4F6282"/>
<stop offset="1" stop-color="#36507A"/>
</linearGradient>
<linearGradient id="paint8_linear_103_1942" x1="124.075" y1="91.6557" x2="135.754" y2="110.788" gradientUnits="userSpaceOnUse">
<stop stop-color="#596A85"/>
<stop offset="0.3908" stop-color="#4F6282"/>
<stop offset="1" stop-color="#36507A"/>
</linearGradient>
<linearGradient id="paint9_linear_103_1942" x1="125.971" y1="105.003" x2="135.38" y2="120.418" gradientUnits="userSpaceOnUse">
<stop stop-color="#596A85"/>
<stop offset="0.3908" stop-color="#4F6282"/>
<stop offset="1" stop-color="#36507A"/>
</linearGradient>
<linearGradient id="paint10_linear_103_1942" x1="125.971" y1="109.747" x2="135.38" y2="125.161" gradientUnits="userSpaceOnUse">
<stop stop-color="#596A85"/>
<stop offset="0.3908" stop-color="#4F6282"/>
<stop offset="1" stop-color="#36507A"/>
</linearGradient>
<linearGradient id="paint11_linear_103_1942" x1="125.971" y1="115.962" x2="135.38" y2="131.376" gradientUnits="userSpaceOnUse">
<stop stop-color="#596A85"/>
<stop offset="0.3908" stop-color="#4F6282"/>
<stop offset="1" stop-color="#36507A"/>
</linearGradient>
<linearGradient id="paint12_linear_103_1942" x1="114.316" y1="187.776" x2="231.489" y2="187.776" gradientUnits="userSpaceOnUse">
<stop stop-color="#302424" stop-opacity="0.15"/>
<stop offset="0.0507" stop-color="#3F3434" stop-opacity="0.1931"/>
<stop offset="0.2297" stop-color="#716969" stop-opacity="0.3453"/>
<stop offset="0.4052" stop-color="#9A9595" stop-opacity="0.4944"/>
<stop offset="0.5734" stop-color="#BAB7B7" stop-opacity="0.6374"/>
<stop offset="0.7325" stop-color="#D0CFCF" stop-opacity="0.7726"/>
<stop offset="0.8787" stop-color="#DEDEDE" stop-opacity="0.8969"/>
<stop offset="1" stop-color="#E3E3E3"/>
</linearGradient>
<linearGradient id="paint13_linear_103_1942" x1="219.698" y1="181.837" x2="185.811" y2="181.837" gradientUnits="userSpaceOnUse">
<stop stop-color="#596A85"/>
<stop offset="0.3908" stop-color="#4F6282"/>
<stop offset="1" stop-color="#36507A"/>
</linearGradient>
<linearGradient id="paint14_linear_103_1942" x1="211.197" y1="176.363" x2="193.445" y2="176.363" gradientUnits="userSpaceOnUse">
<stop stop-color="#596A85"/>
<stop offset="0.3908" stop-color="#4F6282"/>
<stop offset="1" stop-color="#36507A"/>
</linearGradient>
<linearGradient id="paint15_linear_103_1942" x1="181.537" y1="193.892" x2="200.31" y2="193.892" gradientUnits="userSpaceOnUse">
<stop stop-color="#7A76ED"/>
<stop offset="0.144" stop-color="#908DED"/>
<stop offset="0.3718" stop-color="#AEACEC"/>
<stop offset="0.5944" stop-color="#C3C2EC"/>
<stop offset="0.8073" stop-color="#D0CFEC"/>
<stop offset="1" stop-color="#D4D4EC"/>
</linearGradient>
<linearGradient id="paint16_linear_103_1942" x1="193.364" y1="180.738" x2="216.987" y2="218.109" gradientUnits="userSpaceOnUse">
<stop stop-color="#7A76ED"/>
<stop offset="0.144" stop-color="#908DED"/>
<stop offset="0.3718" stop-color="#AEACEC"/>
<stop offset="0.5944" stop-color="#C3C2EC"/>
<stop offset="0.8073" stop-color="#D0CFEC"/>
<stop offset="1" stop-color="#D4D4EC"/>
</linearGradient>
<linearGradient id="paint17_linear_103_1942" x1="197.048" y1="196.262" x2="215.171" y2="196.262" gradientUnits="userSpaceOnUse">
<stop stop-color="#7A76ED"/>
<stop offset="0.144" stop-color="#908DED"/>
<stop offset="0.3718" stop-color="#AEACEC"/>
<stop offset="0.5944" stop-color="#C3C2EC"/>
<stop offset="0.8073" stop-color="#D0CFEC"/>
<stop offset="1" stop-color="#D4D4EC"/>
</linearGradient>
<linearGradient id="paint18_linear_103_1942" x1="212.285" y1="173.046" x2="196.823" y2="173.046" gradientUnits="userSpaceOnUse">
<stop stop-color="#596A85"/>
<stop offset="0.3908" stop-color="#4F6282"/>
<stop offset="1" stop-color="#36507A"/>
</linearGradient>
<linearGradient id="paint19_linear_103_1942" x1="156.829" y1="161.712" x2="165.567" y2="176.026" gradientUnits="userSpaceOnUse">
<stop stop-color="#596A85"/>
<stop offset="0.3908" stop-color="#4F6282"/>
<stop offset="1" stop-color="#36507A"/>
</linearGradient>
<linearGradient id="paint20_linear_103_1942" x1="158.247" y1="171.698" x2="165.287" y2="183.23" gradientUnits="userSpaceOnUse">
<stop stop-color="#596A85"/>
<stop offset="0.3908" stop-color="#4F6282"/>
<stop offset="1" stop-color="#36507A"/>
</linearGradient>
<linearGradient id="paint21_linear_103_1942" x1="158.247" y1="175.246" x2="165.287" y2="186.779" gradientUnits="userSpaceOnUse">
<stop stop-color="#596A85"/>
<stop offset="0.3908" stop-color="#4F6282"/>
<stop offset="1" stop-color="#36507A"/>
</linearGradient>
<linearGradient id="paint22_linear_103_1942" x1="158.247" y1="179.896" x2="165.287" y2="191.429" gradientUnits="userSpaceOnUse">
<stop stop-color="#596A85"/>
<stop offset="0.3908" stop-color="#4F6282"/>
<stop offset="1" stop-color="#36507A"/>
</linearGradient>
<linearGradient id="paint23_linear_103_1942" x1="119.033" y1="181.09" x2="142.874" y2="181.09" gradientUnits="userSpaceOnUse">
<stop stop-color="#596A85"/>
<stop offset="0.3908" stop-color="#4F6282"/>
<stop offset="1" stop-color="#36507A"/>
</linearGradient>
<linearGradient id="paint24_linear_103_1942" x1="114.316" y1="240.257" x2="231.489" y2="240.257" gradientUnits="userSpaceOnUse">
<stop stop-color="#302424" stop-opacity="0.15"/>
<stop offset="0.0507" stop-color="#3F3434" stop-opacity="0.1931"/>
<stop offset="0.2297" stop-color="#716969" stop-opacity="0.3453"/>
<stop offset="0.4052" stop-color="#9A9595" stop-opacity="0.4944"/>
<stop offset="0.5734" stop-color="#BAB7B7" stop-opacity="0.6374"/>
<stop offset="0.7325" stop-color="#D0CFCF" stop-opacity="0.7726"/>
<stop offset="0.8787" stop-color="#DEDEDE" stop-opacity="0.8969"/>
<stop offset="1" stop-color="#E3E3E3"/>
</linearGradient>
<linearGradient id="paint25_linear_103_1942" x1="219.698" y1="234.319" x2="185.812" y2="234.319" gradientUnits="userSpaceOnUse">
<stop stop-color="#596A85"/>
<stop offset="0.3908" stop-color="#4F6282"/>
<stop offset="1" stop-color="#36507A"/>
</linearGradient>
<linearGradient id="paint26_linear_103_1942" x1="211.197" y1="228.844" x2="193.446" y2="228.844" gradientUnits="userSpaceOnUse">
<stop stop-color="#596A85"/>
<stop offset="0.3908" stop-color="#4F6282"/>
<stop offset="1" stop-color="#36507A"/>
</linearGradient>
<linearGradient id="paint27_linear_103_1942" x1="212.286" y1="225.527" x2="196.823" y2="225.527" gradientUnits="userSpaceOnUse">
<stop stop-color="#596A85"/>
<stop offset="0.3908" stop-color="#4F6282"/>
<stop offset="1" stop-color="#36507A"/>
</linearGradient>
<linearGradient id="paint28_linear_103_1942" x1="156.828" y1="214.193" x2="165.567" y2="228.507" gradientUnits="userSpaceOnUse">
<stop stop-color="#596A85"/>
<stop offset="0.3908" stop-color="#4F6282"/>
<stop offset="1" stop-color="#36507A"/>
</linearGradient>
<linearGradient id="paint29_linear_103_1942" x1="158.247" y1="224.179" x2="165.287" y2="235.711" gradientUnits="userSpaceOnUse">
<stop stop-color="#596A85"/>
<stop offset="0.3908" stop-color="#4F6282"/>
<stop offset="1" stop-color="#36507A"/>
</linearGradient>
<linearGradient id="paint30_linear_103_1942" x1="158.247" y1="227.728" x2="165.287" y2="239.26" gradientUnits="userSpaceOnUse">
<stop stop-color="#596A85"/>
<stop offset="0.3908" stop-color="#4F6282"/>
<stop offset="1" stop-color="#36507A"/>
</linearGradient>
<linearGradient id="paint31_linear_103_1942" x1="158.247" y1="232.378" x2="165.287" y2="243.91" gradientUnits="userSpaceOnUse">
<stop stop-color="#596A85"/>
<stop offset="0.3908" stop-color="#4F6282"/>
<stop offset="1" stop-color="#36507A"/>
</linearGradient>
<linearGradient id="paint32_linear_103_1942" x1="119.033" y1="233.571" x2="142.874" y2="233.571" gradientUnits="userSpaceOnUse">
<stop stop-color="#596A85"/>
<stop offset="0.3908" stop-color="#4F6282"/>
<stop offset="1" stop-color="#36507A"/>
</linearGradient>
<linearGradient id="paint33_linear_103_1942" x1="16.7223" y1="317.402" x2="35.9161" y2="317.402" gradientUnits="userSpaceOnUse">
<stop stop-color="#596A85"/>
<stop offset="0.3908" stop-color="#4F6282"/>
<stop offset="1" stop-color="#36507A"/>
</linearGradient>
<linearGradient id="paint34_linear_103_1942" x1="15.9743" y1="258.849" x2="38.7558" y2="258.849" gradientUnits="userSpaceOnUse">
<stop stop-color="#596A85"/>
<stop offset="0.3908" stop-color="#4F6282"/>
<stop offset="1" stop-color="#36507A"/>
</linearGradient>
<linearGradient id="paint35_linear_103_1942" x1="3.6692" y1="317.685" x2="23.5013" y2="317.685" gradientUnits="userSpaceOnUse">
<stop stop-color="#596A85"/>
<stop offset="0.3908" stop-color="#4F6282"/>
<stop offset="1" stop-color="#36507A"/>
</linearGradient>
<linearGradient id="paint36_linear_103_1942" x1="4.98125" y1="258.099" x2="33.879" y2="258.099" gradientUnits="userSpaceOnUse">
<stop stop-color="#596A85"/>
<stop offset="0.3908" stop-color="#4F6282"/>
<stop offset="1" stop-color="#36507A"/>
</linearGradient>
<linearGradient id="paint37_linear_103_1942" x1="4.50017" y1="142.669" x2="39.742" y2="225.158" gradientUnits="userSpaceOnUse">
<stop stop-color="white"/>
<stop offset="0.3068" stop-color="#F5F9FF"/>
<stop offset="0.8325" stop-color="#D9E7FF"/>
<stop offset="1" stop-color="#CFE1FF"/>
</linearGradient>
<linearGradient id="paint38_linear_103_1942" x1="17.5614" y1="163.856" x2="35.6723" y2="163.856" gradientUnits="userSpaceOnUse">
<stop stop-color="#596A85"/>
<stop offset="0.3908" stop-color="#4F6282"/>
<stop offset="1" stop-color="#36507A"/>
</linearGradient>
<linearGradient id="paint39_linear_103_1942" x1="13.4887" y1="154.334" x2="41.4037" y2="154.334" gradientUnits="userSpaceOnUse">
<stop stop-color="white"/>
<stop offset="0.3068" stop-color="#F5F9FF"/>
<stop offset="0.8325" stop-color="#D9E7FF"/>
<stop offset="1" stop-color="#CFE1FF"/>
</linearGradient>
<linearGradient id="paint40_linear_103_1942" x1="140.188" y1="282.603" x2="200.674" y2="282.603" gradientUnits="userSpaceOnUse">
<stop stop-color="#596A85"/>
<stop offset="0.3908" stop-color="#4F6282"/>
<stop offset="1" stop-color="#36507A"/>
</linearGradient>
<linearGradient id="paint41_linear_103_1942" x1="266.583" y1="72.4612" x2="283.315" y2="-11.1967" gradientUnits="userSpaceOnUse">
<stop offset="0.0853" stop-color="#7A76ED"/>
<stop offset="0.217" stop-color="#908DED"/>
<stop offset="0.4254" stop-color="#AEACEC"/>
<stop offset="0.629" stop-color="#C3C2EC"/>
<stop offset="0.8237" stop-color="#D0CFEC"/>
<stop offset="1" stop-color="#D4D4EC"/>
</linearGradient>
</defs>
</svg>
