<svg width="334" height="305" viewBox="0 0 334 305" fill="none" xmlns="http://www.w3.org/2000/svg">
<path d="M263.82 80.5899L261.83 80.3899C261.93 79.3899 262.01 78.3999 262.09 77.4299L264.08 77.5799C264 78.5599 263.92 79.5699 263.82 80.5899ZM264.26 74.5499L262.26 74.4599C262.31 73.4599 262.34 72.4699 262.35 71.4899L264.35 71.5199C264.34 72.5199 264.3 73.5299 264.26 74.5499ZM262.36 68.5199C262.35 67.5099 262.32 66.5299 262.27 65.5599L264.27 65.4599C264.32 66.4499 264.35 67.4599 264.36 68.4899L262.36 68.5199ZM262.07 62.5999C261.99 61.5999 261.88 60.6199 261.76 59.6599L263.74 59.4099C263.86 60.3999 263.97 61.3999 264.05 62.4299L262.07 62.5999ZM261.34 56.7399C261.18 55.7699 260.99 54.7899 260.79 53.8399L262.75 53.4199C262.96 54.3999 263.15 55.4099 263.32 56.4099L261.34 56.7399ZM260.11 50.9699C259.86 50.0199 259.58 49.0699 259.29 48.1399L261.19 47.5299C261.5 48.4899 261.78 49.4699 262.04 50.4599L260.11 50.9699ZM258.31 45.3599C257.96 44.4399 257.58 43.5299 257.18 42.6499L259 41.8299C259.42 42.7499 259.81 43.6999 260.17 44.6499L258.31 45.3599ZM255.89 40.0199C255.43 39.1499 254.94 38.2999 254.44 37.4799L256.14 36.4299C256.67 37.2899 257.18 38.1799 257.66 39.0899L255.89 40.0199ZM252.81 35.0299C252.24 34.2299 251.64 33.4499 251.02 32.7099L252.56 31.4299C253.2 32.2099 253.83 33.0199 254.43 33.8599L252.81 35.0299ZM249.08 30.5399C248.41 29.8399 247.7 29.1599 246.98 28.5099L248.31 27.0199C249.07 27.6999 249.81 28.4199 250.52 29.1499L249.08 30.5399ZM199.74 27.1799L198.05 26.0999C198.61 25.2299 199.29 24.3899 200.07 23.5999L201.48 25.0199C200.8 25.6999 200.21 26.4299 199.74 27.1799ZM244.73 26.6399C243.96 26.0499 243.16 25.4799 242.34 24.9499L243.43 23.2699C244.28 23.8299 245.13 24.4199 245.94 25.0399L244.73 26.6399ZM239.83 23.4599C238.98 22.9899 238.1 22.5499 237.22 22.1499L238.05 20.3299C238.98 20.7499 239.9 21.2199 240.8 21.7099L239.83 23.4599ZM203.65 23.2199L202.5 21.5799C203.33 20.9999 204.23 20.4599 205.19 19.9699L206.1 21.7499C205.23 22.1999 204.41 22.6899 203.65 23.2199ZM234.51 21.0399C233.6 20.6999 232.66 20.3999 231.73 20.1299L232.28 18.2099C233.26 18.4899 234.24 18.8099 235.2 19.1699L234.51 21.0399ZM208.75 20.5899L208.05 18.7199C209 18.3699 209.99 18.0499 211 17.7799L211.51 19.7099C210.56 19.9599 209.63 20.2599 208.75 20.5899ZM228.89 19.4199C227.94 19.2199 226.97 19.0499 226.01 18.9199L226.28 16.9399C227.29 17.0799 228.31 17.2499 229.31 17.4599L228.89 19.4199ZM214.36 19.0899L214.02 17.1199C215.01 16.9499 216.04 16.8099 217.07 16.7199L217.25 18.7099C216.27 18.7999 215.3 18.9299 214.36 19.0899ZM223.1 18.6399C222.29 18.5899 221.47 18.5599 220.67 18.5599H220.17L220.15 16.5599H220.67C221.51 16.5599 222.37 16.5899 223.22 16.6399L223.1 18.6399Z" fill="#BABBE3"/>
<path d="M194.62 28.76L211.69 9.48999L211.67 18.84L219.66 23.2L194.62 28.76Z" fill="#BABBE3"/>
<path d="M305.83 261.99L304.46 260.53C305.19 259.84 305.9 259.16 306.59 258.47L308.01 259.88C307.3 260.58 306.57 261.28 305.83 261.99ZM310.11 257.69L308.64 256.33C309.32 255.6 309.98 254.86 310.61 254.12L312.13 255.42C311.48 256.18 310.81 256.94 310.11 257.69ZM314.07 253.08L312.5 251.84C313.12 251.06 313.72 250.27 314.29 249.49L315.91 250.67C315.32 251.47 314.71 252.28 314.07 253.08ZM317.65 248.17L315.99 247.06C316.53 246.25 317.06 245.41 317.57 244.57L319.28 245.6C318.76 246.47 318.21 247.33 317.65 248.17ZM320.79 242.96L319.03 242.01C319.5 241.15 319.95 240.26 320.37 239.38L322.17 240.25C321.74 241.16 321.28 242.07 320.79 242.96ZM323.44 237.47L321.6 236.69C321.98 235.79 322.34 234.87 322.68 233.95L324.56 234.63C324.21 235.58 323.83 236.54 323.44 237.47ZM325.52 231.73L323.61 231.14C323.9 230.21 324.16 229.25 324.4 228.3L326.34 228.79C326.09 229.78 325.82 230.77 325.52 231.73ZM327 225.81L325.04 225.43C325.23 224.47 325.39 223.49 325.52 222.53L327.5 222.8C327.36 223.8 327.2 224.81 327 225.81ZM327.84 219.77L325.85 219.61C325.93 218.63 325.98 217.64 326.01 216.67L328.01 216.72C327.97 217.73 327.92 218.75 327.84 219.77ZM326 213.72C325.97 212.74 325.92 211.76 325.83 210.78L327.82 210.61C327.91 211.62 327.96 212.65 327.99 213.66L326 213.72ZM325.5 207.86C325.36 206.89 325.19 205.92 325 204.96L326.96 204.57C327.16 205.56 327.33 206.58 327.48 207.58L325.5 207.86ZM324.33 202.09C324.08 201.14 323.8 200.19 323.5 199.27L325.4 198.65C325.71 199.61 326 200.59 326.26 201.58L324.33 202.09ZM322.51 196.5C322.15 195.59 321.76 194.68 321.35 193.8L323.16 192.95C323.59 193.87 324 194.81 324.37 195.76L322.51 196.5ZM320.02 191.19C319.54 190.33 319.04 189.48 318.52 188.67L320.2 187.59C320.74 188.44 321.27 189.32 321.77 190.23L320.02 191.19ZM316.85 186.27C316.26 185.48 315.63 184.72 315 184.01L316.5 182.68C317.17 183.43 317.82 184.23 318.45 185.07L316.85 186.27ZM312.98 181.92C312.26 181.24 311.51 180.61 310.77 180.05L311.98 178.46C312.78 179.07 313.58 179.74 314.35 180.46L312.98 181.92ZM308.38 178.45C307.53 177.96 306.67 177.54 305.82 177.21L306.55 175.35C307.49 175.72 308.44 176.18 309.38 176.72L308.38 178.45ZM303.12 176.42C302.19 176.24 301.26 176.17 300.36 176.19L300.3 174.19C301.34 174.16 302.42 174.24 303.5 174.45L303.12 176.42Z" fill="#BABBE3"/>
<path d="M124.48 304.05H210.87C221.14 304.05 229.46 295.73 229.46 285.46V56.9001C229.46 46.6301 221.14 38.3101 210.87 38.3101H124.48C114.21 38.3101 105.89 46.6301 105.89 56.9001V285.46C105.89 295.72 114.22 304.05 124.48 304.05Z" fill="#50426E"/>
<path opacity="0.3" d="M124.48 304.05H210.87C221.14 304.05 229.46 295.73 229.46 285.46V56.9001C229.46 46.6301 221.14 38.3101 210.87 38.3101H124.48C114.21 38.3101 105.89 46.6301 105.89 56.9001V285.46C105.89 295.72 114.22 304.05 124.48 304.05Z" fill="#50426E"/>
<path d="M131.77 304.05H218.16C228.43 304.05 236.75 295.73 236.75 285.46V56.9001C236.75 46.6301 228.43 38.3101 218.16 38.3101H131.77C121.5 38.3101 113.18 46.6301 113.18 56.9001V285.46C113.18 295.72 121.51 304.05 131.77 304.05Z" fill="#50426E"/>
<path d="M131.09 293.89H218.86C229.84 293.89 232.39 285.87 232.39 275.98V60.5301C232.39 50.6401 228.75 42.6201 218.86 42.6201H131.09C121.2 42.6201 117.56 50.6401 117.56 60.5301V275.98C117.56 285.87 120.1 293.89 131.09 293.89Z" fill="#CC487E"/>
<path d="M190.01 42.5101C181.35 42.5101 185.41 51.9901 176.98 51.9901C168.55 51.9901 172.24 42.5101 163.76 42.5101C163.76 42.5101 170.32 40.3301 176.98 40.3301C183.63 40.3301 190.01 42.5101 190.01 42.5101Z" fill="#50426E"/>
<path opacity="0.3" d="M176.88 49.1601C178.614 49.1601 180.02 47.7543 180.02 46.0201C180.02 44.286 178.614 42.8801 176.88 42.8801C175.146 42.8801 173.74 44.286 173.74 46.0201C173.74 47.7543 175.146 49.1601 176.88 49.1601Z" fill="#50426E"/>
<path d="M232.39 76.3501H117.56V278.9H232.39V76.3501Z" fill="white"/>
<path d="M174.97 122.86C184.966 122.86 193.07 114.756 193.07 104.76C193.07 94.7637 184.966 86.66 174.97 86.66C164.974 86.66 156.87 94.7637 156.87 104.76C156.87 114.756 164.974 122.86 174.97 122.86Z" fill="#E7DFFA"/>
<path d="M180.41 97.45C178.66 97.46 176.4 98.5 174.93 101.48C173.46 98.5 171.81 97.46 170.06 97.45C164.07 97.41 159.01 107.63 174.98 114.77C191.28 106.8 185.33 97.41 180.41 97.45Z" fill="#F74C64"/>
<path d="M139.1 115.97C145.291 115.97 150.31 110.951 150.31 104.76C150.31 98.5689 145.291 93.55 139.1 93.55C132.909 93.55 127.89 98.5689 127.89 104.76C127.89 110.951 132.909 115.97 139.1 115.97Z" fill="#E7DFFA"/>
<path d="M134.83 110.16C134.54 110.16 134.25 110.05 134.03 109.83C133.59 109.39 133.59 108.68 134.03 108.24L142.58 99.69C143.02 99.25 143.73 99.25 144.17 99.69C144.61 100.13 144.61 100.84 144.17 101.28L135.62 109.83C135.4 110.05 135.11 110.16 134.83 110.16Z" fill="#F74C64"/>
<path d="M143.38 110.16C143.09 110.16 142.8 110.05 142.58 109.83L134.03 101.28C133.59 100.84 133.59 100.13 134.03 99.69C134.47 99.25 135.18 99.25 135.62 99.69L144.17 108.24C144.61 108.68 144.61 109.39 144.17 109.83C143.95 110.05 143.67 110.16 143.38 110.16Z" fill="#F74C64"/>
<path d="M210.84 115.97C217.031 115.97 222.05 110.951 222.05 104.76C222.05 98.5689 217.031 93.55 210.84 93.55C204.649 93.55 199.63 98.5689 199.63 104.76C199.63 110.951 204.649 115.97 210.84 115.97Z" fill="#E7DFFA"/>
<path d="M214.92 110.38L210.91 107.38L206.93 110.41L208.4 105.62L204 102.8L209.2 102.87L210.88 97.8101L212.57 102.87L217.78 102.8L213.41 105.6L214.92 110.38Z" fill="#7378C0"/>
<path d="M205.81 133.17H144.12V202.94H205.81V133.17Z" fill="#E7DFFA"/>
<path d="M214.19 177.06C213.87 177.06 213.55 176.92 213.33 176.66C212.93 176.18 212.99 175.47 213.47 175.07L221.82 168.06L213.47 161.04C212.99 160.64 212.93 159.93 213.33 159.45C213.73 158.97 214.44 158.91 214.92 159.31L224.3 167.19C224.55 167.4 224.7 167.72 224.7 168.05C224.7 168.38 224.55 168.7 224.3 168.91L214.92 176.79C214.7 176.97 214.44 177.06 214.19 177.06Z" fill="#D0CCDC"/>
<path d="M135.75 177.06C135.49 177.06 135.24 176.97 135.03 176.8L125.65 168.92C125.4 168.71 125.25 168.39 125.25 168.06C125.25 167.73 125.4 167.41 125.65 167.2L135.03 159.32C135.5 158.92 136.21 158.98 136.62 159.46C137.02 159.94 136.96 160.65 136.48 161.05L128.13 168.07L136.48 175.08C136.96 175.48 137.02 176.19 136.62 176.67C136.39 176.92 136.07 177.06 135.75 177.06Z" fill="#D0CCDC"/>
<mask id="mask0_103_1675" style="mask-type:luminance" maskUnits="userSpaceOnUse" x="144" y="133" width="62" height="70">
<path d="M205.81 133.17H144.12V202.94H205.81V133.17Z" fill="white"/>
</mask>
<g mask="url(#mask0_103_1675)">
<path d="M160.21 149.61C160.29 139.44 168.98 136.36 177.91 139.17C182.11 140.49 186.32 142.7 190.84 141.47C191.4 141.32 191.16 140.52 190.61 140.62C182.11 142.18 174.35 134.32 165.83 138.33C161.91 140.17 157.95 145.12 159.83 149.67C159.91 149.86 160.21 149.85 160.21 149.61Z" fill="#936466"/>
<path d="M156.96 143.53C156.5 145.5 158.21 148.35 159.95 149.29C160.4 149.53 160.81 148.97 160.49 148.6C159.07 146.97 157.5 145.85 157.16 143.53C157.14 143.43 156.98 143.44 156.96 143.53Z" fill="#936466"/>
<path d="M191.17 150.7C191.17 150.7 194.76 151.25 196.95 152.61C196.82 149.19 193.12 144.57 190.48 144.92C190.48 144.92 194.4 142.05 193.78 139.07C192.48 140.35 187.6 140.92 184.12 140.62C180.01 140.26 173.42 137.84 167.53 139.68C163.08 141.08 159.97 144.59 159.99 148.4C160 148.42 160.01 148.42 160.02 148.44C154.52 151.24 153.9 158.15 157.54 167.9C161.86 179.48 169.75 181.46 169.75 181.46L176.46 163.26C176.46 163.26 189.23 156.07 189.13 154.15C189.67 157.37 190.12 160.63 192.52 163.21C191.71 157.65 195.15 154.77 191.17 150.7Z" fill="#936466"/>
<path opacity="0.2" d="M191.17 150.7C191.17 150.7 194.54 151.22 196.74 152.5C193.67 146.63 182.06 143.63 173.31 149.41C170.67 151.15 170.66 153 170.5 154.16C169.49 154.25 168.74 154.7 167.87 155.7C166.68 157.06 164.51 161.73 159.35 160.84C156.88 160.41 155.78 158.97 155.29 157.57C155.33 160.5 156.06 163.95 157.54 167.9C161.86 179.48 169.75 181.46 169.75 181.46L173.12 172.32L171.6 155.83L180.37 160.96C180.37 160.96 189.14 154.26 189.13 154.15C189.67 157.37 190.12 160.63 192.52 163.21C191.71 157.65 195.15 154.77 191.17 150.7Z" fill="#65436D"/>
<path d="M196.59 265.35C178.06 267.62 160.56 267.64 144.4 264.73C147.22 241.38 140.3 209.73 152.49 198.93C158.51 193.59 175.59 190.96 179.88 190.96C184.71 190.96 188.81 194.68 191.96 196.97C195.8 199.77 199.01 205.31 198.15 214.91C197.4 223.38 194.48 243.65 196.59 265.35Z" fill="#E7DFFA"/>
<path d="M166.94 175.31C166.94 175.31 168.81 181.41 168.47 186.01C168.13 190.6 165.28 192.62 163.1 193.62C163.1 193.62 165.76 200.96 177.31 200.96C186.32 200.96 188.27 193.39 188.27 193.39C186.16 192.65 182.62 191.47 182.08 188.46C181.48 185.09 183.63 184.04 183.63 184.04L173.4 173.93L166.94 175.31Z" fill="url(#paint0_linear_103_1675)"/>
<path d="M170.64 199.96C178.66 197.55 181.53 191.79 182.38 189.41C182.25 189.12 182.14 188.81 182.08 188.47C181.56 185.55 183.11 184.37 183.53 184.11L183.56 183.97L180.94 181.38L170.1 174.64L166.95 175.3C166.95 175.3 168.82 181.4 168.48 186C168.14 190.59 165.29 192.61 163.11 193.61C163.1 193.63 164.68 197.95 170.64 199.96Z" fill="#D37A85"/>
<path d="M165.78 168C166.82 168.58 167.41 170.76 168.87 170.36C170.67 169.86 167.83 163.81 169.43 158.01C170.06 155.71 171.51 150.95 178.3 149.98C183.85 149.18 188.25 151.01 190.33 156.16C191.04 157.92 191.55 163.1 191.53 169.79C191.51 176.68 188.72 184.33 185.63 185.76C183.57 186.71 181.03 187 178.97 186.34C175.46 185.21 171.74 182.73 168.28 176.17C164.52 176.92 162.28 174.48 161.97 172.03C161.65 169.49 163.03 166.97 165.78 168Z" fill="url(#paint1_linear_103_1675)"/>
<path d="M166.84 171.47C167.42 172.69 167.24 173.99 166.43 174.38C165.62 174.77 164.48 174.1 163.9 172.88C163.31 171.66 163.5 170.36 164.31 169.97C165.12 169.58 166.25 170.25 166.84 171.47Z" fill="#D37A85"/>
<path d="M185.79 159.53C185.66 160.42 187.5 160.3 189.12 160.99C190.75 161.68 191.3 162.8 191.6 162.27C191.85 161.82 192.13 159.76 189.59 158.51C187.92 157.69 185.98 158.2 185.79 159.53Z" fill="#936466"/>
<path d="M179.45 159.46C179.54 160.36 177.47 160.35 175.26 161.33C173.03 162.31 172.11 163.6 171.55 163.22C170.95 162.82 170.86 160.65 174.32 158.95C176.56 157.83 179.3 157.96 179.45 159.46Z" fill="#936466"/>
<path d="M184.06 161.61C183.35 162.36 182.93 163.29 182.74 164.27C182.64 164.76 182.6 165.26 182.62 165.76C182.63 166 182.66 166.27 182.7 166.46C182.77 166.71 182.82 166.99 182.9 167.22C183.19 168.1 183.77 168.96 184.49 169.58C184.85 169.9 185.25 170.17 185.67 170.41C186.08 170.63 186.54 170.88 186.93 171.02L186.97 171.04C187.36 171.18 187.56 171.6 187.42 171.99C187.4 172.04 187.38 172.09 187.35 172.14C186.86 172.92 186.24 173.48 185.52 173.97C184.77 174.41 183.85 174.68 183 174.49C182.87 174.46 182.78 174.33 182.81 174.19C182.83 174.1 182.9 174.03 182.98 174.01H182.99C183.7 173.79 184.27 173.44 184.76 172.95C185.27 172.51 185.7 171.9 186.03 171.37L186.46 172.48C185.84 172.26 185.35 172.02 184.87 171.67C184.39 171.34 183.94 170.96 183.56 170.52C182.76 169.65 182.22 168.61 181.91 167.46C181.83 167.18 181.81 166.93 181.76 166.66C181.71 166.32 181.71 166.06 181.71 165.77C181.72 165.2 181.82 164.64 181.96 164.09C182.25 163.01 182.82 161.97 183.64 161.22L183.66 161.2C183.78 161.09 183.96 161.1 184.07 161.22C184.16 161.32 184.16 161.5 184.06 161.61Z" fill="#D37A85"/>
<path d="M178.25 166.38C178.29 167.3 177.73 168.08 176.98 168.12C176.23 168.16 175.59 167.44 175.55 166.52C175.5 165.6 176.07 164.82 176.82 164.78C177.56 164.74 178.2 165.46 178.25 166.38Z" fill="#634A64"/>
<path d="M173.48 167.58C173.76 166.18 174.9 164.89 176.76 164.56C177.84 164.35 178.84 165.57 178.66 166.29C178.66 166.29 177.86 165.48 176.73 165.72C175.59 165.97 173.48 167.58 173.48 167.58Z" fill="#634A64"/>
<path d="M189.54 165.78C189.58 166.67 189.05 167.42 188.36 167.46C187.66 167.5 187.06 166.8 187.02 165.91C186.98 165.02 187.51 164.27 188.2 164.23C188.9 164.2 189.5 164.89 189.54 165.78Z" fill="#634A64"/>
<path d="M185.38 166.92C185.38 165.6 186.61 164.13 188.12 164.03C189.33 163.89 190.25 165.32 190.08 166.02C190.08 166.02 189.34 164.99 188.1 165.15C186.7 165.34 185.38 166.92 185.38 166.92Z" fill="#634A64"/>
<path d="M164.94 192.11C164.94 192.11 170.34 196.74 170.78 216.12C171.22 235.5 170.07 256.55 169.84 266.92C169.84 266.92 157.17 267.72 144.4 264.74C144.4 264.74 145.16 254.48 145.07 239.19C144.98 223.9 145 207.37 150.83 198.91C154.57 193.48 164.94 192.11 164.94 192.11Z" fill="#65529D"/>
<path d="M185.14 192.04C185.14 192.04 194.3 197.09 192.88 220.52C191.47 243.95 191.64 266.04 191.64 266.04L196.6 265.35C196.6 265.35 196.34 254.39 197.21 236.22C198.08 218.05 200.27 205.82 195.36 199.25C190.99 193.41 185.14 192.04 185.14 192.04Z" fill="#65529D"/>
<path d="M187.25 176.9C187.25 176.9 183.31 177.95 177.55 175.88C177.55 175.88 179.02 179.88 181.89 180.21C185.64 180.64 187.25 176.9 187.25 176.9Z" fill="#634A64"/>
<path d="M185.53 177.62C184.36 177.63 181.52 177.56 178.5 176.76C178.5 176.76 179.73 179.02 181.86 179.34C184.43 179.74 185.53 177.62 185.53 177.62Z" fill="#FFF4E9"/>
<path d="M156.74 147.88C157.64 149.06 158.8 149.63 160.27 149.65C160.81 149.66 160.81 148.81 160.27 148.81C159 148.82 157.99 148.31 156.88 147.74C156.8 147.69 156.67 147.79 156.74 147.88Z" fill="#936466"/>
<path d="M155.52 195.9C144.38 197.16 134.35 234.22 143.43 249.78C149.86 260.8 184.06 260.07 184.06 260.07C186.32 257.47 188.3 252.45 188.3 249.17C188.3 249.17 170.75 241.48 159.62 236.9C159.63 236.9 163.44 195.01 155.52 195.9Z" fill="#65529D"/>
<g opacity="0.2">
<path d="M185.79 159.53C185.66 160.42 187.5 160.3 189.12 160.99C190.75 161.68 191.3 162.8 191.6 162.27C191.85 161.82 192.13 159.76 189.59 158.51C187.92 157.69 185.98 158.2 185.79 159.53Z" fill="#65436D"/>
</g>
<g opacity="0.2">
<path d="M179.45 159.46C179.54 160.36 177.47 160.35 175.26 161.33C173.03 162.31 172.11 163.6 171.55 163.22C170.95 162.82 170.86 160.65 174.32 158.95C176.56 157.83 179.3 157.96 179.45 159.46Z" fill="#65436D"/>
</g>
<path opacity="0.2" d="M166.69 151.78C166.69 151.78 167.28 145.83 172.72 144.05C178.16 142.27 182.58 144.47 186.91 144.39C191.02 144.31 191.92 142.01 191.92 142.01C191.92 142.01 190.48 143.54 187.08 143.62C182.31 143.74 177.99 140.31 171.19 142.6C164.39 144.9 166.69 151.78 166.69 151.78Z" fill="#65436D"/>
<path opacity="0.2" d="M162.52 150.42C162.52 150.42 161.08 144.9 166 141.16C166.01 141.16 158.61 143.71 162.52 150.42Z" fill="#65436D"/>
</g>
<path d="M205.35 216.09H144.58C143.34 216.09 142.33 215.08 142.33 213.84C142.33 212.6 143.34 211.59 144.58 211.59H205.35C206.59 211.59 207.6 212.6 207.6 213.84C207.6 215.08 206.6 216.09 205.35 216.09Z" fill="#D0CCDC"/>
<path d="M196.73 227.73H153.22C151.98 227.73 150.97 226.72 150.97 225.48C150.97 224.24 151.98 223.23 153.22 223.23H196.73C197.97 223.23 198.98 224.24 198.98 225.48C198.98 226.73 197.97 227.73 196.73 227.73Z" fill="#D0CCDC"/>
<path d="M175.44 242.53H133.24C132 242.53 130.99 241.52 130.99 240.28C130.99 239.04 132 238.03 133.24 238.03H175.44C176.68 238.03 177.69 239.04 177.69 240.28C177.69 241.53 176.69 242.53 175.44 242.53Z" fill="#D0CCDC"/>
<path d="M147.43 254.54H133.24C132 254.54 130.99 253.53 130.99 252.29C130.99 251.05 132 250.04 133.24 250.04H147.43C148.67 250.04 149.68 251.05 149.68 252.29C149.68 253.53 148.67 254.54 147.43 254.54Z" fill="#D0CCDC"/>
<path d="M206.58 266.54H133.24C132 266.54 130.99 265.53 130.99 264.29C130.99 263.05 132 262.04 133.24 262.04H206.58C207.82 262.04 208.83 263.05 208.83 264.29C208.83 265.53 207.82 266.54 206.58 266.54Z" fill="#D0CCDC"/>
<path d="M216.7 242.53H184.82C183.58 242.53 182.57 241.52 182.57 240.28C182.57 239.04 183.58 238.03 184.82 238.03H216.7C217.94 238.03 218.95 239.04 218.95 240.28C218.95 241.53 217.95 242.53 216.7 242.53Z" fill="#D0CCDC"/>
<path d="M216.7 254.54H156.31C155.07 254.54 154.06 253.53 154.06 252.29C154.06 251.05 155.07 250.04 156.31 250.04H216.7C217.94 250.04 218.95 251.05 218.95 252.29C218.95 253.53 217.95 254.54 216.7 254.54Z" fill="#D0CCDC"/>
<path d="M122.79 65.54C122.79 62.22 124.65 60.25 127.34 60.25C130.02 60.25 131.88 62.22 131.88 65.54C131.88 68.88 130.02 70.92 127.34 70.92C124.64 70.92 122.79 68.88 122.79 65.54ZM130 65.54C130 63.24 128.95 61.84 127.34 61.84C125.72 61.84 124.66 63.24 124.66 65.54C124.66 67.85 125.71 69.34 127.34 69.34C128.94 69.34 130 67.86 130 65.54Z" fill="white"/>
<path d="M133.91 60.4399H135.78L138.98 66.2299L140.05 68.4199H140.11C140.02 67.3599 139.88 66.0599 139.88 64.9099V60.4399H141.61V70.7299H139.74L136.54 64.9399L135.47 62.7499H135.41C135.5 63.8399 135.65 65.0799 135.65 66.2299V70.7299H133.92V60.4399H133.91Z" fill="white"/>
<path d="M144.19 60.4399H146.02V69.1899H150.29V70.7299H144.2V60.4399H144.19Z" fill="white"/>
<path d="M152.05 60.4399H153.88V70.7299H152.05V60.4399Z" fill="white"/>
<path d="M156.44 60.4399H158.31L161.51 66.2299L162.58 68.4199H162.64C162.55 67.3599 162.4 66.0599 162.4 64.9099V60.4399H164.13V70.7299H162.26L159.06 64.9399L158 62.7499H157.94C158.03 63.8399 158.18 65.0799 158.18 66.2299V70.7299H156.45V60.4399H156.44Z" fill="white"/>
<path d="M166.73 60.4399H172.92V61.9799H168.56V64.6099H172.26V66.1499H168.56V69.1899H173.08V70.7299H166.74V60.4399H166.73Z" fill="white"/>
<path d="M178.36 60.4399H181.1C184.25 60.4399 186.12 62.1399 186.12 65.5399C186.12 68.9599 184.25 70.7299 181.19 70.7299H178.36V60.4399ZM180.98 69.2499C183.06 69.2499 184.25 68.0699 184.25 65.5399C184.25 63.0199 183.05 61.9199 180.98 61.9199H180.19V69.2599H180.98V69.2499Z" fill="white"/>
<path d="M192.79 67.9499H189.34L188.54 70.7299H186.67L190.04 60.4399H192.18L195.53 70.7299H193.59L192.79 67.9499ZM192.38 66.5199L192.02 65.2599C191.7 64.1699 191.39 62.9899 191.09 61.8599H191.03C190.75 63.0099 190.45 64.1699 190.12 65.2599L189.76 66.5199H192.38Z" fill="white"/>
<path d="M198.21 61.9799H195.23V60.4399H202.99V61.9799H200.03V70.7299H198.2V61.9799H198.21Z" fill="white"/>
<path d="M204.68 60.4399H206.51V70.7299H204.68V60.4399Z" fill="white"/>
<path d="M209.07 60.4399H210.94L214.14 66.2299L215.21 68.4199H215.27C215.18 67.3599 215.03 66.0599 215.03 64.9099V60.4399H216.76V70.7299H214.89L211.69 64.9399L210.62 62.7499H210.56C210.65 63.8399 210.8 65.0799 210.8 66.2299V70.7299H209.07V60.4399Z" fill="white"/>
<path d="M223.72 60.25C225.15 60.25 226.14 60.9 226.79 61.55L225.78 62.68C225.26 62.18 224.69 61.83 223.73 61.83C221.9 61.83 220.68 63.25 220.68 65.56C220.68 67.9 221.78 69.32 223.84 69.32C224.41 69.32 224.97 69.16 225.3 68.86V66.64H223.36V65.14H226.93V69.68C226.22 70.34 225.01 70.91 223.61 70.91C220.87 70.91 218.79 69.02 218.79 65.6C218.81 62.25 220.95 60.25 223.72 60.25Z" fill="white"/>
<path d="M206.16 116.49C205.3 114.27 202.7 109.74 202.08 110.4C201.32 111.22 203.78 113.66 204.08 116.69C203.39 116.89 202.92 116.95 202.04 117.48C200.49 118.42 199.62 120.79 199.72 121.44C199.23 121.34 198.29 121.19 198.12 121.52C197.76 122.25 200.22 123.06 201.59 123.76C202.49 124.22 203.81 125.13 204.56 125.6C205.51 126.2 206.29 126.45 207.15 126.99L210.26 123.52C208.82 122.48 206.58 117.59 206.16 116.49ZM203.39 121.78C203.09 121.9 202.78 121.91 202.45 121.9C202.46 121.89 202.49 121.87 202.5 121.86C203.01 120.99 203.61 120.6 204.2 120.51C204.09 121.08 204 121.54 203.39 121.78ZM201.8 120.64C201.67 120.85 201.35 121.34 201.25 121.71C200.98 121.64 200.8 121.59 200.56 121.55C201.02 121.01 201.2 120.31 201.83 119.66C203.14 118.3 204.22 118.57 204.22 118.57C203.39 118.86 202.3 119.83 201.8 120.64Z" fill="url(#paint2_linear_103_1675)"/>
<path d="M283.39 91.5001C283.87 95.0501 284.63 98.2301 287 101.07C289.98 104.63 302.19 110.54 296.91 116.17C296.48 116.63 297.14 117.29 297.6 116.86C301.43 113.37 298.56 109.33 295.16 106.56C292.78 104.63 290.01 103.1 287.95 100.8C285.54 98.1001 284.69 94.8701 283.74 91.4601C283.69 91.2701 283.36 91.3001 283.39 91.5001Z" fill="#CC487E"/>
<path d="M268.82 76.13C269.84 74.61 273.17 74.73 274.63 74.98C277.17 75.42 279.04 77.19 280.33 79.36C282.35 82.75 282.5 86.51 282.3 90.32C282.28 90.75 282.85 90.75 282.99 90.41C284.91 85.82 282.48 79.27 278.87 76.08C276.74 74.2 270 72.36 268.37 75.86C268.24 76.17 268.64 76.41 268.82 76.13Z" fill="#CC487E"/>
<path opacity="0.2" d="M283.42 91.5401C283.95 95.2101 284.78 98.5501 287.36 101.39C290.43 104.78 302.23 110.64 296.95 116.21C296.57 116.62 297.15 117.2 297.56 116.82C301.34 113.35 298.51 109.38 295.13 106.61C292.75 104.67 289.97 103.14 287.91 100.83C285.49 98.1201 284.64 94.8901 283.72 91.4501C283.66 91.2701 283.39 91.3501 283.42 91.5401Z" fill="#65529D"/>
<path opacity="0.2" d="M268.79 76.1101C269.8 74.5601 273.16 74.6801 274.63 74.9301C277.19 75.3701 279.08 77.1501 280.38 79.3301C282.4 82.7201 282.6 86.5101 282.35 90.3201C282.33 90.6901 282.83 90.6901 282.95 90.4001C284.8 85.8001 282.45 79.3301 278.84 76.1201C276.73 74.2401 270.06 72.4301 268.41 75.8801C268.28 76.1401 268.63 76.3501 268.79 76.1101Z" fill="#65529D"/>
<path d="M245.83 103.63C247.84 109.17 245.3 119.75 251.07 123.55C251.34 123.73 251.58 123.35 251.4 123.13C248.27 119.31 247.99 114.47 247.89 109.75C247.83 107.2 247.58 105.61 246.12 103.52C246.02 103.38 245.77 103.46 245.83 103.63Z" fill="#CC487E"/>
<path d="M248.09 81.0201C243.96 85.0201 239.9 91.9201 240.32 97.9001C240.64 102.52 245.28 105.75 249.8 103.95C250.21 103.79 250.06 103.2 249.61 103.28C245.98 103.93 242.27 102.65 241.22 98.6001C240.72 96.6601 241.23 94.6801 241.78 92.8101C243.09 88.3701 245.53 84.8701 248.35 81.2901C248.51 81.1001 248.27 80.8401 248.09 81.0201Z" fill="#CC487E"/>
<path opacity="0.2" d="M245.85 103.63C247.99 109.22 245.32 119.6 251.09 123.52C251.32 123.68 251.53 123.34 251.37 123.15C248.18 119.37 247.94 114.44 247.83 109.74C247.77 107.2 247.51 105.62 246.09 103.52C246.02 103.41 245.79 103.48 245.85 103.63Z" fill="#65529D"/>
<path opacity="0.2" d="M248.11 81.0401C244.02 85.0701 239.94 91.9001 240.36 97.8901C240.68 102.5 245.28 105.67 249.78 103.91C250.14 103.77 250.01 103.26 249.62 103.33C245.97 104.01 242.22 102.69 241.17 98.6101C240.67 96.6701 241.19 94.6701 241.74 92.8001C243.05 88.3601 245.48 84.8301 248.34 81.2701C248.47 81.1101 248.26 80.8801 248.11 81.0401Z" fill="#65529D"/>
<path d="M261.23 282.55C265.33 287.9 266.07 303.37 268.41 304.01C270.41 304.56 270.15 299.43 270.8 295.14C271.34 291.55 272.6 290.47 271.75 288.61C271.18 287.35 269.3 287.43 268.13 286.51C266.96 285.59 266.75 280.49 266.75 280.49L261.23 282.55Z" fill="url(#paint3_linear_103_1675)"/>
<path d="M296.68 222.16C301.86 217.85 317.29 216.49 317.84 214.12C318.31 212.1 313.2 212.57 308.88 212.09C305.27 211.69 304.15 210.48 302.32 211.4C301.08 212.02 301.23 213.89 300.36 215.1C299.49 216.3 294.4 216.72 294.4 216.72L296.68 222.16Z" fill="url(#paint4_linear_103_1675)"/>
<path d="M251.82 120.69C249.26 115.92 250.1 110.36 248.88 107.26C247.65 104.16 240.74 102 241.66 92.4201C242.51 83.6901 252.44 74.5501 261.13 73.3401C263.45 73.0201 267.88 73.3601 268.91 75.4301C268.91 75.4301 273.41 74.8901 276.53 77.0101C288.45 85.0901 279.57 94.7801 290.63 106.12C294.95 110.55 296.37 110.13 301.01 112.8C308.07 116.87 313.01 138.18 292.51 150.57C278.57 159 265.69 155.28 259.64 146.02C256.66 141.47 254.56 135.93 252.86 130.74C251.79 127.49 251.82 120.69 251.82 120.69Z" fill="#CC487E"/>
<path opacity="0.2" d="M276.78 95.8801C276.78 95.8801 280.11 98.6401 278.16 102.13C276.54 105.03 274.23 104.47 274.23 104.47C274.23 104.47 270.35 107.82 270.35 113.31C270.35 119.63 273.2 122.55 273.2 122.55C273.2 122.55 265.77 120.66 265.76 120.41C265.75 120.17 265.63 108.17 265.63 108.17L276.78 95.8801Z" fill="#65529D"/>
<path opacity="0.2" d="M251.71 77.3901C246.45 81.1301 242.21 86.8501 241.66 92.4301C240.73 102 247.65 104.16 248.88 107.27C250.11 110.37 249.26 115.93 251.82 120.7C251.82 120.7 252.3 121.14 251.96 120.21C250.26 115.59 252.81 110.97 250.87 106.6C248.93 102.23 243.21 102.59 242.24 94.5701C241.37 87.4001 249.86 79.1001 251.71 77.3901Z" fill="#65529D"/>
<path opacity="0.2" d="M267.43 153.02C271.46 155.07 276.32 155.82 281.61 154.84C279.87 149.52 274.9 136.23 274.9 136.23L267.43 153.02Z" fill="#65529D"/>
<path opacity="0.2" d="M264.56 82.77C264.56 82.77 249.17 85.12 248.27 92.17C247.38 99.22 254.35 101.33 254.35 101.33L274.04 99.22L275.5 95.9C275.5 95.9 277.93 95.33 279.47 93.79C279.47 93.79 275.46 94.68 270.68 91.76C265.89 88.84 264.56 82.77 264.56 82.77Z" fill="#65529D"/>
<path d="M258.29 122.29C255.29 114.25 240.7 129.56 228.93 134.12C224.83 131.5 214.6 126.55 208.92 122.62L207.16 127.02C209.66 129.56 221.46 143.18 227.75 144.04C237.55 145.38 260.87 129.23 258.29 122.29Z" fill="url(#paint5_linear_103_1675)"/>
<path d="M242.15 126.55C241.24 127.15 240.58 127.59 239.65 128.2C239.85 131.68 243.09 136.49 243.09 136.49C243.09 136.49 234.13 144.15 227.87 143.17C221.61 142.2 209.4 127.67 207.7 126.46C206.24 125.43 205.46 125.78 202.99 124.15C201.19 122.96 199.35 122.73 198.12 121.72C198.18 122.4 200.34 123.13 201.6 123.78C202.5 124.24 203.82 125.15 204.57 125.62C205.52 126.22 206.3 126.47 207.16 127.01L207.17 127L207.16 127.04C209.66 129.58 221.46 143.2 227.75 144.06C232.32 144.68 239.82 141.51 246.27 137.25L242.15 126.55Z" fill="#D37A85"/>
<path d="M235.64 170.34C230.55 183.32 232.17 204.03 244.22 237.22C254.88 266.58 261.57 285.37 261.57 285.37C261.57 285.37 265.57 286.57 268.38 282.61C268.38 282.61 265.8 252.89 263.1 241.46C263.89 241.75 265.12 241.88 266.6 241.55C272.08 240.32 286.44 229.3 296.98 223.42C296.98 223.42 301.07 218.3 297.76 215.14C297.76 215.14 278.75 216.48 271.16 224.68C271.16 224.68 276.84 201.2 277.4 190.25C278.04 177.88 275.18 171.34 275.18 171.34L235.64 170.34Z" fill="#A15BA3"/>
<path opacity="0.2" d="M297.76 215.13C297.76 215.13 278.75 216.47 271.16 224.67C271.16 224.67 276.84 201.19 277.4 190.24C277.84 181.76 276.64 176.03 275.83 173.26L269.26 176.33C271.85 182.01 270.41 199.62 269.43 207.09C266.74 227.66 267.49 228.97 268.94 229.94C270.4 230.91 272.46 224.35 280.73 220.22C286.73 217.22 295.52 217.47 298.97 217.43C298.84 216.61 298.49 215.82 297.76 215.13Z" fill="#65529D"/>
<path opacity="0.2" d="M278.52 89.6801C278.52 89.6801 270.2 90.4801 269.25 81.9601C269.24 81.9601 271.62 86.7701 278.52 89.6801Z" fill="#65529D"/>
<path d="M269.56 106.74C269.56 106.74 261.89 110.68 259.88 114.38C260.23 118.24 254.97 117.49 249.4 122.42C249.4 122.42 248.58 129.27 256.68 131C264.79 132.73 275.56 125.67 275.56 125.67C272.42 120.83 267.6 119.33 267.33 115.6C267.1 112.52 268.06 109.47 269.56 106.74Z" fill="url(#paint6_linear_103_1675)"/>
<path d="M267.33 115.6C267.1 112.53 268.06 109.47 269.56 106.74C269.56 106.74 261.89 110.68 259.88 114.39C260.01 115.85 259.31 116.7 258.02 117.38C258.66 119.31 261.42 125.79 269.59 125.97C271.85 126.02 273.64 125.64 275.08 125.03C271.95 120.71 267.59 119.15 267.33 115.6Z" fill="#D37A85"/>
<path d="M274.55 95.37C273.24 95.96 273.22 98.02 272.19 98.01C271.16 98 270.53 95.1 270.39 93.4C265.49 90.57 263.97 84.41 263.97 84.41C251.97 85.88 251.07 91.12 251.07 91.12C248.64 107.14 257.02 114 259.49 114.19C264.4 114.56 268.87 111.5 273.07 103.26C274.95 103.37 277.35 101.96 277.97 99.85C278.57 97.82 277.16 94.83 274.55 95.37Z" fill="url(#paint7_linear_103_1675)"/>
<path d="M276.34 99.7601C276.04 100.74 275.2 101.34 274.46 101.12C273.72 100.9 273.36 99.9201 273.66 98.9401C273.96 97.9601 274.8 97.3601 275.54 97.5801C276.28 97.8001 276.64 98.7901 276.34 99.7601Z" fill="#D37A85"/>
<path d="M255.75 106.55C255.75 106.55 259.46 106.95 264.23 105.21C264.23 105.21 263.84 109.45 260.57 109.91C257.69 110.32 255.75 106.55 255.75 106.55Z" fill="#4E3A5E"/>
<path d="M257.33 107.02C257.33 107.02 260.1 107.15 263.45 105.93C263.45 105.93 262.72 107.47 260.12 107.95C257.99 108.33 257.33 107.02 257.33 107.02Z" fill="#FFF4E9"/>
<path d="M258 98.1201C258.4 96.5301 258.04 94.7501 256.92 93.3201C257.67 93.8901 258.21 94.6801 258.54 95.5401C258.86 96.3901 259.04 97.3501 258.85 98.2601C258.53 99.9801 257.38 101.35 255.92 102.4C256.54 103.16 257.45 103.84 258.55 104.16C256.63 104.08 255.49 103.3 254.22 102.2C256.02 101.25 257.58 99.9801 258 98.1201Z" fill="#D37A85"/>
<path d="M261.92 91.2501C261.71 92.1801 263.17 91.6201 265.83 92.7201C267.44 93.3801 268.74 94.5701 269.02 94.3801C269.3 94.1901 268.57 93.1401 266.26 91.8501C264.4 90.8101 262.07 90.5701 261.92 91.2501Z" fill="#CC487E"/>
<path d="M255.41 91.6401C255.63 92.4901 254.14 92.2201 252.34 93.0701C251.05 93.6801 250.19 94.5701 249.89 94.4601C249.59 94.3501 250.02 93.3401 251.59 92.3301C253.05 91.4001 255.27 91.1101 255.41 91.6401Z" fill="#CC487E"/>
<path d="M270.51 153.18C269.86 161.42 273.1 162.63 276.26 174.75C263.5 178.54 243.94 178.64 234.87 171.88C237.6 162.49 244.39 154.81 245.35 150.23C246.29 145.75 241.93 139.03 242.54 133.3C242.99 129.11 246.96 124.35 253.03 119.8C253.03 119.8 250.86 127.03 256.81 128.57C265.64 130.85 272.43 121.46 272.43 121.46C275.1 123.21 278.08 126.45 279.35 129.63C278.43 137.11 270.98 147.23 270.51 153.18Z" fill="#FAC2F0"/>
<path d="M276.13 139.1L276.12 138.92C273.41 144.79 263.36 147.43 253.03 145.97C245.64 144.93 243.07 138.71 243.07 138.71C244.09 142.91 246 147.12 245.35 150.23C245.03 151.77 244.04 153.67 242.77 155.87C245.54 154.04 248.88 152.91 252.79 153.5C262.65 154.99 267.52 169.57 269.27 176.33C271.74 175.92 274.11 175.39 276.27 174.75C273.11 162.63 269.86 161.42 270.52 153.18C270.8 149.53 273.71 144.31 276.13 139.1Z" fill="#DD97D6"/>
<path opacity="0.2" d="M245.46 90.5201C245.46 90.5201 246.59 86.4101 251.33 83.6201C255.8 80.9801 261.56 80.6301 261.56 80.6301C261.56 80.6301 256.59 79.4001 250.93 82.4501C244.74 85.7901 245.46 90.5201 245.46 90.5201Z" fill="#65529D"/>
<path opacity="0.2" d="M292.06 125.65C292.06 125.65 296.08 127.87 298.11 132.99C299.69 136.96 299.64 142.75 299.64 142.75C299.64 142.75 301.45 138.22 299.38 132.7C296.91 126.11 292.06 125.65 292.06 125.65Z" fill="#65529D"/>
<path d="M262.99 96.78C263 97.68 263.6 98.4 264.32 98.39C265.04 98.38 265.62 97.64 265.61 96.74C265.6 95.84 265 95.12 264.28 95.13C263.55 95.15 262.98 95.88 262.99 96.78Z" fill="#4E3A5E"/>
<path d="M267.66 97.6501C267.31 96.3101 266.13 95.1301 264.32 94.9301C263.26 94.8001 262.37 96.0401 262.59 96.7301C262.59 96.7301 263.31 95.9001 264.42 96.0601C265.52 96.2201 267.66 97.6501 267.66 97.6501Z" fill="#4E3A5E"/>
<path d="M266.39 95.9501C266.39 95.9501 267.4 95.3201 267.48 95.4301C267.57 95.5401 266.79 96.3401 266.79 96.3401L266.39 95.9501Z" fill="#4E3A5E"/>
<path d="M266.88 96.4201C266.88 96.4201 268.09 96.0801 268.13 96.1601C268.17 96.2501 267.17 96.8901 267.17 96.8901L266.88 96.4201Z" fill="#4E3A5E"/>
<path d="M251.85 96.8901C251.86 97.7601 252.42 98.4501 253.09 98.4401C253.76 98.4301 254.3 97.7201 254.29 96.8601C254.28 95.9901 253.72 95.3001 253.05 95.3101C252.37 95.3201 251.84 96.0201 251.85 96.8901Z" fill="#4E3A5E"/>
<path d="M255.94 97.7301C255.86 96.4501 254.58 95.1001 253.12 95.1001C251.94 95.0401 251.15 96.4801 251.35 97.1501C251.35 97.1501 252 96.1001 253.21 96.1901C254.57 96.2801 255.94 97.7301 255.94 97.7301Z" fill="#4E3A5E"/>
<path d="M252.17 96.1401C252.17 96.1401 251.15 95.5401 251.06 95.6501C250.98 95.7601 251.78 96.5401 251.78 96.5401L252.17 96.1401Z" fill="#4E3A5E"/>
<path d="M251.69 96.6201C251.69 96.6201 250.47 96.3101 250.43 96.4001C250.39 96.4901 251.41 97.1001 251.41 97.1001L251.69 96.6201Z" fill="#4E3A5E"/>
<path d="M273.95 125.48C265.48 126.89 277.72 144.14 279.95 156.56C277.16 156.96 265.37 155.98 258.95 158.52C255.63 159.61 251.57 166.13 252.6 166.65C253.59 167.15 254.15 164.09 256.93 162.37C255.61 164.12 253.38 168.07 254.34 168.36C255.48 168.71 256.58 164.05 258.97 162.88C257.26 165.1 255.93 168.15 256.57 168.31C257.64 168.57 258.69 164.76 260.68 163.2C260.38 163.64 258.61 167.23 259.58 167.32C260.51 167.41 261.46 162.91 264.24 162.38C267.74 161.72 283.5 169.14 288.24 164.11C293.34 158.71 281.25 124.27 273.95 125.48Z" fill="url(#paint8_linear_103_1675)"/>
<path d="M282.14 133.97L273.76 138.99C274.23 140.17 274.74 141.39 275.25 142.62C276.34 142.41 280.03 141.55 282.69 139.09C282.69 139.09 291.44 158.96 287.54 163.59C283.65 168.21 267.97 159.94 264.08 161.4C260.72 162.66 260.55 166.67 259.39 167.17C259.44 167.24 259.49 167.31 259.58 167.32C260.51 167.41 261.46 162.91 264.24 162.38C267.74 161.72 283.5 169.14 288.24 164.11C291.62 160.53 287.46 144.22 282.14 133.97Z" fill="#D37A85"/>
<path d="M264.9 71.1301C267.17 71.5401 268.18 74.9001 268.19 76.8001C268.19 77.1101 268.59 77.2801 268.81 77.0601C269.97 75.8801 268.63 73.7301 267.95 72.6201C267.3 71.5601 266.28 70.6501 264.95 70.7501C264.75 70.7701 264.68 71.0901 264.9 71.1301Z" fill="#CC487E"/>
<path d="M239.99 127.25C239.99 127.25 241.39 131.7 244.85 133.98L253.02 119.8C253.02 119.8 245.59 123.1 239.99 127.25Z" fill="#FAC2F0"/>
<path d="M272.51 142.2C272.51 142.2 281.03 139.7 283.87 135.58C283.87 135.58 281.58 129.46 275.36 123.96C275.36 123.96 269.33 124.47 268.57 130.11C267.8 135.76 272.51 142.2 272.51 142.2Z" fill="#FAC2F0"/>
<path opacity="0.2" d="M263.1 241.45C255.52 239.62 253.64 193.31 253.64 193.31L246.14 191.38L250.44 195.01C250.44 195.01 254.15 245.01 263.71 244.35L263.1 241.45Z" fill="#65529D"/>
<path opacity="0.2" d="M261.92 91.2501C261.71 92.1801 263.17 91.6201 265.83 92.7201C267.44 93.3801 268.74 94.5701 269.02 94.3801C269.3 94.1901 268.57 93.1401 266.26 91.8501C264.4 90.8101 262.07 90.5701 261.92 91.2501Z" fill="#65529D"/>
<path opacity="0.2" d="M255.41 91.6401C255.63 92.4901 254.14 92.2201 252.34 93.0701C251.05 93.6801 250.19 94.5701 249.89 94.4601C249.59 94.3501 250.02 93.3401 251.59 92.3301C253.05 91.4001 255.27 91.1101 255.41 91.6401Z" fill="#65529D"/>
<path opacity="0.2" d="M301.01 112.81C296.37 110.14 294.96 110.56 290.63 106.13C279.58 94.8001 288.45 85.1001 276.53 77.0201C274.69 75.7701 272.4 75.4501 270.81 75.4001C273.37 76.0301 278.27 78.3301 280.49 82.8901C285.11 92.3801 280.11 96.9201 286.32 105.86C291.3 113.03 296.77 110.36 302.12 114.73C304.15 116.39 305.36 118.37 306.07 120.18C304.96 116.68 303.08 114 301.01 112.81Z" fill="#65529D"/>
<path opacity="0.2" d="M278.95 105.53C278.95 105.53 277.82 113.63 287.7 119.3C295.54 123.8 300.83 126.92 303.09 135.02C303.09 135.02 303.74 130.16 299.53 125.14C295.32 120.12 290.72 119.81 286.24 116.71C279.93 112.34 278.95 105.53 278.95 105.53Z" fill="#65529D"/>
<path opacity="0.2" d="M289.95 115.13C296.14 115.66 300.9 119.93 303.33 123.6C303.33 123.6 303.63 119.5 298.35 116.33C294.17 113.8 289.95 115.13 289.95 115.13Z" fill="#65529D"/>
<path opacity="0.2" d="M275.67 108.68C275.67 108.68 273.11 115.65 278.95 123.36C282.7 128.3 286.57 127.41 289.14 135.71C290.86 141.25 289.68 146.58 289.68 146.58C289.68 146.58 292.26 141.29 290.27 134.92C288.27 128.52 283.31 125.65 280.46 122.09C278.34 119.43 276.55 115.75 275.67 108.68Z" fill="#65529D"/>
<path d="M52.99 268.2C52.9 268.2 52.36 268.2 51.45 268.15L51.5499 266.15C52.4599 266.2 52.98 266.2 52.99 266.2L53 268.2C53 268.2 53 268.2 52.99 268.2Z" fill="#BABBE3"/>
<path d="M48.44 267.92C47.55 267.83 46.54 267.71 45.45 267.54L45.74 265.56C46.8 265.72 47.78 265.83 48.65 265.92L48.44 267.92ZM42.48 267.04C41.54 266.86 40.55 266.65 39.53 266.42L39.99 264.47C40.98 264.7 41.94 264.9 42.86 265.08L42.48 267.04ZM36.61 265.66C35.64 265.39 34.67 265.09 33.72 264.78L34.35 262.88C35.26 263.18 36.21 263.47 37.15 263.73L36.61 265.66ZM30.88 263.77C29.93 263.4 28.99 263.02 28.09 262.62L28.9 260.79C29.77 261.18 30.68 261.55 31.6 261.9L30.88 263.77ZM25.36 261.32C24.45 260.86 23.56 260.37 22.7 259.87L23.71 258.14C24.53 258.62 25.39 259.09 26.27 259.53L25.36 261.32ZM20.14 258.27C19.3 257.71 18.47 257.11 17.67 256.51L18.88 254.92C19.64 255.5 20.44 256.07 21.24 256.61L20.14 258.27ZM15.32 254.59C14.55 253.92 13.81 253.22 13.11 252.51L14.53 251.1C15.2 251.77 15.91 252.44 16.64 253.08L15.32 254.59ZM11.04 250.29C10.38 249.52 9.74 248.73 9.14 247.92L10.74 246.72C11.31 247.48 11.92 248.24 12.55 248.97L11.04 250.29ZM7.42 245.42C6.88 244.57 6.36 243.69 5.88 242.81L7.64 241.86C8.1 242.71 8.59 243.54 9.11 244.35L7.42 245.42ZM4.53 240.09C4.11 239.18 3.72 238.24 3.37 237.29L5.24 236.59C5.58 237.49 5.95 238.39 6.35 239.26L4.53 240.09ZM2.39 234.43C2.1 233.48 1.83 232.5 1.6 231.51L3.54 231.04C3.77 231.99 4.02 232.93 4.3 233.84L2.39 234.43ZM0.97 228.56C0.79 227.59 0.64 226.59 0.51 225.58L2.49 225.33C2.61 226.3 2.76 227.27 2.94 228.21L0.97 228.56ZM0.2 222.59C0.12 221.61 0.07 220.6 0.03 219.58L2.03 219.51C2.06 220.49 2.12 221.47 2.19 222.43L0.2 222.59ZM2 216.59L0 216.57C0.01 215.55 0.04 214.55 0.09 213.57L2.09 213.67C2.04 214.62 2.01 215.6 2 216.59ZM2.29 210.75L0.3 210.56C0.39 209.56 0.51 208.55 0.65 207.57L2.63 207.85C2.5 208.8 2.38 209.78 2.29 210.75ZM3.11 204.98L1.15 204.6C1.34 203.6 1.56 202.61 1.8 201.65L3.74 202.14C3.51 203.07 3.3 204.02 3.11 204.98ZM4.53 199.34L2.62 198.74C2.93 197.77 3.26 196.81 3.61 195.88L5.48 196.6C5.15 197.49 4.83 198.41 4.53 199.34ZM6.61 193.93L4.79 193.1C5.21 192.18 5.67 191.27 6.15 190.39L7.91 191.35C7.45 192.18 7.01 193.05 6.61 193.93ZM9.37 188.85L7.69 187.77C8.24 186.92 8.82 186.08 9.42 185.27L11.02 186.47C10.45 187.23 9.89 188.03 9.37 188.85ZM12.84 184.22L11.34 182.9C12.01 182.14 12.71 181.39 13.43 180.69L14.83 182.12C14.14 182.79 13.47 183.5 12.84 184.22ZM16.97 180.19L15.69 178.65C16.47 178 17.29 177.38 18.11 176.8L19.26 178.44C18.48 178.99 17.71 179.58 16.97 180.19ZM32.83 177.88C31.96 177.48 31.06 176.84 30.16 175.96L31.55 174.52C32.29 175.24 33 175.76 33.66 176.06L32.83 177.88ZM36.63 177.78L35.5 176.13C35.73 175.97 35.94 175.72 36.11 175.39C36.28 175.08 36.36 174.8 36.36 174.58L38.35 174.32C38.36 174.4 38.36 174.48 38.36 174.57C38.36 175.14 38.19 175.73 37.87 176.34C37.55 176.96 37.13 177.44 36.63 177.78ZM21.69 176.89L20.69 175.16C21.58 174.64 22.49 174.17 23.4 173.75L24.24 175.56C23.38 175.96 22.52 176.4 21.69 176.89ZM26.89 174.48L26.23 172.59C26.55 172.48 26.88 172.37 27.2 172.27C26.94 171.86 26.68 171.44 26.43 171L28.17 170.01C28.66 170.87 29.19 171.68 29.72 172.4L29.4 172.64L29.63 173.7C28.74 173.9 27.82 174.16 26.89 174.48ZM35.04 173.51C34.34 173.32 33.44 173.25 32.41 173.3L32.31 171.3C33.57 171.24 34.66 171.33 35.57 171.57L35.04 173.51ZM25.04 168.28C24.63 167.37 24.24 166.42 23.89 165.46L25.77 164.78C26.1 165.69 26.47 166.59 26.86 167.45L25.04 168.28ZM22.97 162.56C22.7 161.59 22.47 160.59 22.27 159.6L24.23 159.21C24.42 160.15 24.64 161.1 24.9 162.03L22.97 162.56ZM21.79 156.59C21.67 155.58 21.58 154.56 21.53 153.56L23.53 153.47C23.57 154.43 23.66 155.4 23.77 156.35L21.79 156.59ZM23.5 150.58L21.5 150.53C21.53 149.52 21.59 148.49 21.7 147.49L23.69 147.7C23.59 148.64 23.53 149.61 23.5 150.58ZM24.1 144.83L22.13 144.47C22.31 143.48 22.53 142.48 22.79 141.5L24.72 142.01C24.48 142.94 24.27 143.89 24.1 144.83ZM25.56 139.24L23.67 138.59C24 137.64 24.37 136.68 24.77 135.75L26.6 136.54C26.23 137.43 25.88 138.34 25.56 139.24ZM27.86 133.94L26.09 133.01C26.55 132.12 27.06 131.23 27.59 130.37L29.29 131.42C28.78 132.25 28.3 133.09 27.86 133.94ZM30.9 129.01L29.27 127.85C29.57 127.43 29.88 127.01 30.2 126.59C30.5 126.2 30.81 125.81 31.12 125.44L32.66 126.71C32.37 127.07 32.08 127.43 31.79 127.8C31.48 128.21 31.19 128.61 30.9 129.01ZM34.59 124.56L33.15 123.17C33.86 122.44 34.6 121.73 35.35 121.06L36.67 122.56C35.96 123.19 35.26 123.86 34.59 124.56ZM38.91 120.76L37.72 119.15C38.54 118.55 39.39 117.97 40.26 117.45L41.3 119.16C40.49 119.65 39.68 120.19 38.91 120.76ZM80.45 118.86C79.56 118.49 78.64 118.14 77.72 117.81L78.4 115.93C79.34 116.27 80.29 116.63 81.21 117.01L80.45 118.86ZM43.82 117.78L42.94 115.98C43.85 115.54 44.79 115.13 45.74 114.77L46.45 116.64C45.56 116.98 44.68 117.36 43.82 117.78ZM74.95 116.88C74.01 116.59 73.07 116.32 72.14 116.08L72.64 114.14C73.6 114.39 74.57 114.66 75.54 114.96L74.95 116.88ZM49.19 115.73L48.65 113.81C49.62 113.54 50.61 113.3 51.62 113.1L52 115.06C51.05 115.25 50.1 115.48 49.19 115.73ZM69.29 115.43C68.33 115.23 67.36 115.06 66.42 114.92L66.72 112.94C67.7 113.09 68.7 113.26 69.69 113.47L69.29 115.43ZM54.85 114.63L54.63 112.64C55.62 112.53 56.64 112.45 57.66 112.41L57.74 114.41C56.76 114.45 55.79 114.52 54.85 114.63ZM63.53 114.57C62.56 114.48 61.59 114.42 60.63 114.4L60.69 112.4C61.69 112.43 62.7 112.49 63.71 112.58L63.53 114.57Z" fill="#BABBE3"/>
<path d="M84.52 120.74C84.51 120.73 84.05 120.49 83.23 120.09L84.09 118.29C84.99 118.72 85.48 118.99 85.48 118.99L84.52 120.74Z" fill="#BABBE3"/>
<path d="M98.43 127.77L73.17 122.8L81.24 118.09L80.96 108.99L98.43 127.77Z" fill="white"/>
<path d="M54.48 61.55H85.77C87.95 61.55 89.73 59.78 89.73 57.59V38.17C89.73 35.99 87.96 34.21 85.77 34.21H54.48C52.3 34.21 50.52 35.98 50.52 38.17V57.59C50.52 59.78 52.29 61.55 54.48 61.55Z" fill="#FF75C0"/>
<path d="M83.73 60.59V66.94L76.54 60.59H83.73Z" fill="#FF75C0"/>
<path d="M82.35 43.71H57.89C57.32 43.71 56.85 43.25 56.85 42.67C56.85 42.1 57.31 41.63 57.89 41.63H82.35C82.92 41.63 83.39 42.09 83.39 42.67C83.39 43.24 82.92 43.71 82.35 43.71Z" fill="white"/>
<path d="M82.35 48.61H57.89C57.32 48.61 56.85 48.15 56.85 47.57C56.85 47 57.31 46.53 57.89 46.53H82.35C82.92 46.53 83.39 46.99 83.39 47.57C83.39 48.15 82.92 48.61 82.35 48.61Z" fill="white"/>
<path d="M82.35 53.5101H57.89C57.32 53.5101 56.85 53.0501 56.85 52.4701C56.85 51.9001 57.31 51.4301 57.89 51.4301H82.35C82.92 51.4301 83.39 51.8901 83.39 52.4701C83.39 53.0501 82.92 53.5101 82.35 53.5101Z" fill="white"/>
<path d="M108.06 33.98C107.94 33.98 107.82 33.96 107.71 33.9C107.4 33.76 107.21 33.46 107.21 33.12V28.65H106.05C103.43 28.65 101.3 26.52 101.3 23.9V4.75C101.3 2.13 103.43 0 106.05 0H136.91C139.53 0 141.66 2.13 141.66 4.75V23.9C141.66 26.52 139.53 28.65 136.91 28.65H114.41L108.63 33.76C108.46 33.9 108.26 33.98 108.06 33.98ZM106.05 1.7C104.37 1.7 103 3.07 103 4.75V23.9C103 25.58 104.37 26.95 106.05 26.95H108.06C108.53 26.95 108.91 27.33 108.91 27.8V31.23L113.52 27.16C113.68 27.02 113.88 26.95 114.08 26.95H136.9C138.58 26.95 139.95 25.58 139.95 23.9V4.75C139.95 3.07 138.58 1.7 136.9 1.7H106.05Z" fill="#7378C0"/>
<path d="M108.62 8.81006H109.83V14.6201C110.02 14.1901 110.28 13.8401 110.61 13.5801C110.95 13.3201 111.38 13.1801 111.91 13.1801C112.47 13.1801 112.91 13.3301 113.24 13.6201C113.57 13.9201 113.74 14.3101 113.76 14.8001V18.7001H112.56V15.3701C112.54 15.1101 112.45 14.8801 112.28 14.6901C112.11 14.5001 111.85 14.4001 111.5 14.3801C111.26 14.3801 111.03 14.4201 110.82 14.5101C110.61 14.6001 110.44 14.7201 110.29 14.8701C110.14 15.0201 110.03 15.2001 109.95 15.4101C109.87 15.6201 109.83 15.8501 109.83 16.0901V18.6801H108.62V8.81006Z" fill="#7378C0"/>
<path d="M119.85 18.0701C119.59 18.3101 119.27 18.4901 118.9 18.6301C118.53 18.7701 118.15 18.8301 117.76 18.8301C117.36 18.8301 116.99 18.7601 116.64 18.6101C116.29 18.4601 115.99 18.2601 115.73 18.0001C115.47 17.7401 115.27 17.4401 115.12 17.1001C114.97 16.7601 114.89 16.3901 114.89 16.0101C114.89 15.6201 114.97 15.2601 115.12 14.9201C115.27 14.5801 115.48 14.2801 115.73 14.0201C115.99 13.7601 116.29 13.5601 116.63 13.4101C116.97 13.2601 117.33 13.1901 117.71 13.1901C118.32 13.1901 118.85 13.3701 119.31 13.7401C119.77 14.1101 120.1 14.5901 120.29 15.1901C120.04 15.2801 119.74 15.3901 119.41 15.5301C119.08 15.6601 118.73 15.8001 118.37 15.9401C118.01 16.0801 117.64 16.2301 117.28 16.3801C116.92 16.5301 116.58 16.6601 116.28 16.7801C116.42 17.0401 116.62 17.2501 116.87 17.4101C117.12 17.5701 117.41 17.6501 117.73 17.6501C117.95 17.6501 118.17 17.6101 118.39 17.5301C118.61 17.4501 118.8 17.3401 118.94 17.2101L119.85 18.0701ZM118.78 14.9101C118.68 14.7201 118.53 14.5901 118.32 14.5001C118.12 14.4101 117.92 14.3701 117.73 14.3701C117.5 14.3701 117.29 14.4101 117.08 14.5001C116.88 14.5901 116.7 14.7101 116.56 14.8501C116.42 15.0001 116.3 15.1701 116.22 15.3601C116.14 15.5501 116.09 15.7501 116.09 15.9501V16.0001C116.3 15.9201 116.53 15.8301 116.77 15.7301C117.01 15.6301 117.25 15.5301 117.49 15.4301C117.73 15.3301 117.96 15.2301 118.18 15.1501C118.41 15.0601 118.61 14.9801 118.78 14.9101Z" fill="#7378C0"/>
<path d="M122.43 18.6901H121.23V8.81006H122.43V18.6901Z" fill="#7378C0"/>
<path d="M125.12 18.6901H123.92V8.81006H125.12V18.6901Z" fill="#7378C0"/>
<path d="M126.27 16.0001C126.27 15.6101 126.34 15.2501 126.49 14.9101C126.64 14.5701 126.84 14.2701 127.1 14.0201C127.36 13.7701 127.67 13.5701 128.02 13.4201C128.37 13.2701 128.74 13.2001 129.14 13.2001C129.54 13.2001 129.92 13.2701 130.27 13.4201C130.62 13.5701 130.91 13.7701 131.16 14.0201C131.41 14.2701 131.6 14.5701 131.75 14.9101C131.89 15.2501 131.96 15.6201 131.96 16.0001C131.96 16.3901 131.89 16.7601 131.75 17.1001C131.61 17.4501 131.41 17.7501 131.16 18.0001C130.91 18.2601 130.61 18.4601 130.26 18.6101C129.91 18.7601 129.53 18.8301 129.12 18.8301C128.72 18.8301 128.35 18.7601 128.01 18.6301C127.66 18.5001 127.36 18.3001 127.11 18.0501C126.85 17.8001 126.65 17.5001 126.5 17.1501C126.35 16.8101 126.27 16.4201 126.27 16.0001ZM127.48 16.0101C127.48 16.2401 127.52 16.4501 127.61 16.6501C127.69 16.8501 127.81 17.0201 127.96 17.1701C128.11 17.3201 128.28 17.4301 128.48 17.5201C128.68 17.6001 128.89 17.6501 129.12 17.6501C129.35 17.6501 129.56 17.6101 129.76 17.5201C129.96 17.4401 130.13 17.3201 130.28 17.1701C130.43 17.0201 130.55 16.8501 130.63 16.6501C130.72 16.4501 130.76 16.2401 130.76 16.0101C130.76 15.7801 130.72 15.5701 130.63 15.3701C130.54 15.1701 130.42 15.0001 130.28 14.8501C130.13 14.7001 129.96 14.5801 129.76 14.5001C129.56 14.4101 129.35 14.3701 129.12 14.3701C128.89 14.3701 128.68 14.4101 128.48 14.5001C128.28 14.5901 128.11 14.7101 127.96 14.8501C127.81 15.0001 127.7 15.1701 127.61 15.3701C127.52 15.5701 127.48 15.7801 127.48 16.0101Z" fill="#7378C0"/>
<path d="M134.11 18.82C133.91 18.82 133.73 18.74 133.57 18.59C133.41 18.44 133.33 18.25 133.33 18.02C133.33 17.79 133.41 17.61 133.57 17.46C133.73 17.32 133.91 17.25 134.11 17.25C134.3 17.25 134.47 17.32 134.63 17.46C134.79 17.6 134.87 17.79 134.87 18.02C134.87 18.25 134.79 18.44 134.63 18.59C134.46 18.75 134.29 18.82 134.11 18.82ZM133.45 9.05005H134.75V16.57H133.45V9.05005Z" fill="#7378C0"/>
<path d="M21.57 109.02C21.24 109.02 20.91 108.84 20.74 108.53L11.92 92.5C11.8 92.28 11.77 92.02 11.84 91.78C11.91 91.54 12.07 91.33 12.29 91.21L36.5 77.88C36.72 77.76 36.98 77.73 37.22 77.8C37.46 77.87 37.67 78.03 37.79 78.25L46.61 94.28C46.73 94.5 46.76 94.76 46.69 95C46.62 95.24 46.46 95.45 46.24 95.57L22.03 108.9C21.88 108.98 21.73 109.02 21.57 109.02ZM14.04 92.42L21.95 106.78L44.5 94.36L36.58 80L14.04 92.42Z" fill="#9EA6EF"/>
<path d="M29.95 94.81C29.92 94.81 29.88 94.81 29.85 94.8L12.64 92.98C12.23 92.94 11.89 92.63 11.81 92.22C11.73 91.81 11.92 91.4 12.28 91.2L36.5 77.88C36.86 77.68 37.3 77.74 37.6 78.02C37.9 78.3 37.99 78.74 37.81 79.11L30.8 94.26C30.66 94.6 30.32 94.81 29.95 94.81ZM15.85 91.42L29.38 92.85L34.89 80.94L15.85 91.42Z" fill="#9EA6EF"/>
<path d="M8.13004 161.15C7.25004 161.45 6.28004 162.35 6.03004 164.1C4.79004 162.84 3.79004 162.59 2.90004 162.87C-0.129961 163.84 -0.989961 169.85 8.26004 170.8C15.17 164.07 10.61 160.31 8.13004 161.15Z" fill="#F74C64"/>
<path d="M307.67 72.89C306.82 72.51 305.5 72.51 304.13 73.62C304.08 71.85 303.52 70.99 302.67 70.59C299.79 69.24 295.07 73.05 301.2 80.05C310.85 79.82 310.06 73.97 307.67 72.89Z" fill="#F74C64"/>
<path d="M69.55 11.7201C68.64 11.9401 67.6 12.7501 67.21 14.4701C66.08 13.1101 65.11 12.7701 64.2 12.9801C61.1 13.6901 59.72 19.5901 68.86 21.3501C76.31 15.2401 72.09 11.1001 69.55 11.7201Z" fill="#E3CFFA"/>
<path d="M332.62 173.15C332.11 172.9 331.31 172.87 330.45 173.52C330.46 172.45 330.13 171.91 329.63 171.65C327.91 170.77 324.96 172.99 328.53 177.37C334.4 177.44 334.05 173.86 332.62 173.15Z" fill="#E3CFFA"/>
<path d="M310.41 167.13C314.37 167.13 317.58 163.92 317.58 159.96C317.58 156 314.37 152.79 310.41 152.79C306.45 152.79 303.24 156 303.24 159.96C303.24 163.92 306.45 167.13 310.41 167.13Z" fill="#FFBB69"/>
<path d="M305.67 160.83H315.14C315.14 160.83 314.07 164.7 310.31 164.7C306.55 164.7 305.67 160.83 305.67 160.83Z" fill="#634A64"/>
<path d="M307.99 159.42C308.763 159.42 309.39 158.793 309.39 158.02C309.39 157.247 308.763 156.62 307.99 156.62C307.217 156.62 306.59 157.247 306.59 158.02C306.59 158.793 307.217 159.42 307.99 159.42Z" fill="#634A64"/>
<path d="M312.9 159.42C313.673 159.42 314.3 158.793 314.3 158.02C314.3 157.247 313.673 156.62 312.9 156.62C312.127 156.62 311.5 157.247 311.5 158.02C311.5 158.793 312.127 159.42 312.9 159.42Z" fill="#634A64"/>
<path d="M306.24 161.29H314.58C314.58 161.29 313.64 164.25 310.33 164.25C307.02 164.25 306.24 161.29 306.24 161.29Z" fill="white"/>
<path d="M83.36 96.16C87.7893 96.16 91.38 92.5693 91.38 88.14C91.38 83.7107 87.7893 80.12 83.36 80.12C78.9306 80.12 75.34 83.7107 75.34 88.14C75.34 92.5693 78.9306 96.16 83.36 96.16Z" fill="#FFBB69"/>
<path d="M78.51 89.63C81.62 90.98 84.86 90.97 88.22 89.63C88.22 89.63 87.12 93.08 83.27 93.08C79.42 93.08 78.51 89.63 78.51 89.63Z" fill="#634A64"/>
<path d="M81.6299 84.37C81.2599 84.38 80.7799 84.6 80.4699 85.24C80.1499 84.61 79.7999 84.39 79.4299 84.39C78.1599 84.39 77.0899 86.58 80.5099 88.07C83.9599 86.34 82.6799 84.35 81.6299 84.37Z" fill="#F74C64"/>
<path d="M87.39 84.37C87.02 84.38 86.54 84.6 86.23 85.24C85.91 84.61 85.56 84.39 85.19 84.39C83.92 84.39 82.86 86.58 86.27 88.07C89.73 86.34 88.44 84.35 87.39 84.37Z" fill="#F74C64"/>
<path d="M274.28 49.1099C274.28 54.4499 280.6 58.7799 288.39 58.7799C296.18 58.7799 302.5 54.4499 302.5 49.1099C302.5 43.7699 296.18 39.4399 288.39 39.4399C280.6 39.4399 274.28 43.7699 274.28 49.1099Z" fill="#F4AAC4"/>
<path d="M282.69 57.35L276.75 60.8L277.68 54.22L282.69 57.35Z" fill="#F4AAC4"/>
<path d="M283.31 44.62H284.4V49.85C284.57 49.46 284.8 49.15 285.11 48.91C285.41 48.67 285.81 48.55 286.28 48.54C286.78 48.54 287.18 48.67 287.48 48.94C287.78 49.21 287.93 49.56 287.95 50V53.51H286.87V50.51C286.85 50.27 286.77 50.07 286.62 49.9C286.47 49.73 286.23 49.64 285.91 49.62C285.69 49.62 285.49 49.66 285.3 49.74C285.11 49.82 284.95 49.93 284.82 50.07C284.69 50.21 284.58 50.37 284.51 50.56C284.44 50.75 284.4 50.96 284.4 51.18V53.52H283.31V44.62Z" fill="white"/>
<path d="M289.13 46.8C289.13 46.6 289.2 46.44 289.35 46.31C289.49 46.18 289.65 46.12 289.82 46.12C289.99 46.12 290.14 46.18 290.28 46.31C290.42 46.44 290.49 46.6 290.49 46.8C290.49 47.01 290.42 47.17 290.28 47.3C290.14 47.43 289.99 47.49 289.82 47.49C289.65 47.49 289.5 47.43 289.35 47.3C289.21 47.17 289.13 47.01 289.13 46.8ZM290.35 53.53H289.26V48.68H290.35V53.53Z" fill="white"/>
<path d="M292.59 53.64C292.41 53.64 292.24 53.57 292.1 53.43C291.96 53.29 291.88 53.12 291.88 52.92C291.88 52.71 291.95 52.55 292.1 52.42C292.24 52.29 292.41 52.23 292.59 52.23C292.76 52.23 292.91 52.29 293.06 52.42C293.2 52.55 293.28 52.72 293.28 52.92C293.28 53.13 293.21 53.3 293.06 53.43C292.91 53.58 292.76 53.64 292.59 53.64ZM292 44.84H293.17V51.61H292V44.84Z" fill="white"/>
<path d="M48.7 184.36C45.92 193.2 48.65 205.18 50.37 214.08C53.48 230.17 60.69 244.98 63.85 260.92C64.05 261.93 65.79 261.72 65.67 260.67C62.69 235.46 44.34 211.22 49.27 184.52C49.34 184.15 48.82 183.99 48.7 184.36Z" fill="#7378C0"/>
<path d="M48.38 187.84C51.73 185.43 52.57 178.49 51.06 178C49.55 177.52 46.69 182.07 48.38 187.84Z" fill="#7378C0"/>
<path d="M42.49 189.15C41.57 190.3 42.68 196.91 48.18 199.74C47.61 190.67 43.27 188.18 42.49 189.15Z" fill="#7378C0"/>
<path d="M54.38 198.25C52.66 198.53 48.12 204.82 50.34 211.14C57.37 203.23 55.82 198.01 54.38 198.25Z" fill="#7378C0"/>
<path d="M43.57 214.01C42.78 215.58 46.17 222.74 53.82 224.32C50.37 214.24 44.24 212.69 43.57 214.01Z" fill="#7378C0"/>
<path d="M59.54 218.22C57.62 218.59 53.32 225.78 56.72 232.84C63.63 223.74 61.15 217.92 59.54 218.22Z" fill="#7378C0"/>
<path d="M49.74 237.42C49.06 239.14 53.31 246.36 61.5 247.38C56.9 237.08 50.31 235.98 49.74 237.42Z" fill="#7378C0"/>
<path d="M47.5601 199.55C47.7401 199.66 47.9201 199.74 48.0801 199.68L47.5601 199.55Z" fill="#7378C0"/>
<path d="M47.5601 199.55C47.3901 199.45 47.4601 199.51 47.5601 199.55V199.55Z" fill="#7378C0"/>
<path d="M96.48 200.95C90.92 223.59 74.96 248.04 79.63 271.94C79.82 272.91 81.51 272.71 81.39 271.7C78.18 246.22 94.63 225.57 97.18 201.04C97.21 200.64 96.57 200.56 96.48 200.95Z" fill="#7378C0"/>
<path d="M96.5 203.88C99.19 200.83 98.35 193.89 96.77 193.73C95.19 193.57 93.48 198.61 96.5 203.88Z" fill="#7378C0"/>
<path d="M99.0399 217.7C100.14 219.11 97.3999 225.84 89.1699 227.67C91.5599 218.23 98.1199 216.52 99.0399 217.7Z" fill="#7378C0"/>
<path d="M90.53 239.96C91.98 241.35 90.1 249.18 81.33 252.41C82.38 241.65 89.32 238.79 90.53 239.96Z" fill="#7378C0"/>
<path d="M91.08 205.37C92.69 205.62 95.82 211.48 92.37 217.44C87.16 210.06 89.73 205.15 91.08 205.37Z" fill="#7378C0"/>
<path d="M83.72 223.38C85.76 223.62 89.45 230.8 84.75 238.38C78.49 229.42 82.01 223.18 83.72 223.38Z" fill="#7378C0"/>
<path d="M73.91 153.86C70.29 170.6 67.33 187.24 68.11 204.52C68.98 223.6 73.19 242.2 73.11 261.42C73.1 263.06 75.65 263.06 75.66 261.42C75.79 242.91 71.36 225.37 69.89 207.04C68.43 188.77 73.61 171.85 74.77 153.98C74.8 153.49 74.01 153.38 73.91 153.86Z" fill="#7378C0"/>
<path d="M74.11 156.24C77.06 153.13 75.91 146.21 74.12 146.09C72.32 145.96 70.54 151.04 74.11 156.24Z" fill="#7378C0"/>
<path d="M80.1601 159.89C81.3001 161.08 79.5101 167.64 72.2001 170.2C73.4101 161.17 79.2001 158.89 80.1601 159.89Z" fill="#7378C0"/>
<path d="M65.2801 169.29C67.3601 169.31 72.5001 175.33 69.4001 182.51C61.3301 175.15 63.5401 169.27 65.2801 169.29Z" fill="#7378C0"/>
<path d="M60.71 195.27C63.04 194.87 70.5 200.58 69.05 209.29C57.93 202.66 58.75 195.61 60.71 195.27Z" fill="#7378C0"/>
<path d="M62.85 227.86C65.38 227.53 73.8801 233.81 72.7601 242.89C60.2201 235.51 60.73 228.13 62.85 227.86Z" fill="#7378C0"/>
<path d="M76.76 182.23C74.59 182 67.85 187.61 69.45 195.4C79.55 188.75 78.59 182.42 76.76 182.23Z" fill="#7378C0"/>
<path d="M75.6701 207C73.2501 207.58 67.5601 216.17 71.5401 223.92C80.5601 212.94 77.6901 206.51 75.6701 207Z" fill="#7378C0"/>
<path d="M86.36 304.05H59.6C54.94 290.33 51.98 274.76 50.73 257.31H95.22C94.18 273.69 91.43 289.35 86.36 304.05Z" fill="#FF75C0"/>
<path opacity="0.35" d="M82.89 257.31C81.3 306.29 62.42 300 57.51 297.31C58.17 299.6 58.85 301.86 59.6 304.05H86.36C91.43 289.36 94.18 273.69 95.23 257.31H82.89Z" fill="#65529D"/>
<defs>
<linearGradient id="paint0_linear_103_1675" x1="176.326" y1="203.998" x2="174.582" y2="175.636" gradientUnits="userSpaceOnUse">
<stop stop-color="#FFB8A8"/>
<stop offset="1" stop-color="#FF9696"/>
</linearGradient>
<linearGradient id="paint1_linear_103_1675" x1="180.606" y1="188.501" x2="170.474" y2="132.095" gradientUnits="userSpaceOnUse">
<stop stop-color="#FFB8A8"/>
<stop offset="1" stop-color="#FF9696"/>
</linearGradient>
<linearGradient id="paint2_linear_103_1675" x1="196.659" y1="118.671" x2="259.989" y2="118.671" gradientUnits="userSpaceOnUse">
<stop stop-color="#FFB8A8"/>
<stop offset="1" stop-color="#FF9696"/>
</linearGradient>
<linearGradient id="paint3_linear_103_1675" x1="258.772" y1="282.675" x2="280.049" y2="305.988" gradientUnits="userSpaceOnUse">
<stop stop-color="#FFB8A8"/>
<stop offset="1" stop-color="#FF9696"/>
</linearGradient>
<linearGradient id="paint4_linear_103_1675" x1="296.911" y1="224.615" x2="319.352" y2="202.42" gradientUnits="userSpaceOnUse">
<stop stop-color="#FFB8A8"/>
<stop offset="1" stop-color="#FF9696"/>
</linearGradient>
<linearGradient id="paint5_linear_103_1675" x1="193.724" y1="129.432" x2="260.393" y2="133.06" gradientUnits="userSpaceOnUse">
<stop stop-color="#FFB8A8"/>
<stop offset="1" stop-color="#FF9696"/>
</linearGradient>
<linearGradient id="paint6_linear_103_1675" x1="260.743" y1="132.195" x2="266.19" y2="106.603" gradientUnits="userSpaceOnUse">
<stop stop-color="#FFB8A8"/>
<stop offset="1" stop-color="#FF9696"/>
</linearGradient>
<linearGradient id="paint7_linear_103_1675" x1="260.933" y1="115.001" x2="268.165" y2="75.7047" gradientUnits="userSpaceOnUse">
<stop stop-color="#FFB8A8"/>
<stop offset="1" stop-color="#FF9696"/>
</linearGradient>
<linearGradient id="paint8_linear_103_1675" x1="273.503" y1="111.548" x2="270.454" y2="173.062" gradientUnits="userSpaceOnUse">
<stop stop-color="#FFB8A8"/>
<stop offset="1" stop-color="#FF9696"/>
</linearGradient>
</defs>
</svg>
